<?xml version="1.0" standalone="no"?>
<!DOCTYPE svg PUBLIC "-//W3C//DTD SVG 1.1//EN" "http://www.w3.org/Graphics/SVG/1.1/DTD/svg11.dtd" >
<svg>
<metadata>
Created by FontForge 20110222 at Wed Mar 12 14:05:17 2014
 By Orthosie Webhosting
Copyright (c) 1994 Miles Inc. All rights reserved.
</metadata>
<defs>
<font id="BenguiatFriskyRegular" horiz-adv-x="1229" >
  <font-face 
    font-family="BenguiatFriskyRegular"
    font-weight="400"
    font-stretch="normal"
    units-per-em="2048"
    panose-1="3 6 8 2 3 4 2 2 2 4"
    ascent="1638"
    descent="-410"
    x-height="774"
    cap-height="1458"
    bbox="-197 -688 2039 1935"
    underline-thickness="105"
    underline-position="-355"
    unicode-range="U+0020-F004"
  />
<missing-glyph horiz-adv-x="1024" 
d="M128 0v1638h768v-1638h-768zM256 128h512v1382h-512v-1382z" />
    <glyph glyph-name=".notdef" horiz-adv-x="1024" 
d="M128 0v1638h768v-1638h-768zM256 128h512v1382h-512v-1382z" />
    <glyph glyph-name=".null" horiz-adv-x="0" 
 />
    <glyph glyph-name="nonmarkingreturn" horiz-adv-x="492" 
 />
    <glyph glyph-name="space" unicode=" " horiz-adv-x="492" 
 />
    <glyph glyph-name="exclam" unicode="!" horiz-adv-x="547" 
d="M147 422q0 332 11 619q1 33 8 155q6 97 6 156q0 7 -9.5 18.5t-9.5 25.5q0 54 46 54q34 0 143 -27q71 -17 73 -18q46 -17 46 -51q0 -16 -16 -32q-22 -22 -25 -28q-24 -41 -33 -151q-17 -195 -33 -484q-12 -217 -12 -208q0 -17 8 -47t8 -45q0 -31 -67 -31q7 0 -49 14
q-95 24 -95 80zM148 -9q0 138 42 165q16 2 46 10q1 0 29 15q13 7 36 7q29 0 43 -14q19 -19 23 -20q11 -3 32 -13l21 -39q26 -49 26 -92q0 -44 -69 -94l-23 -23t-29 -12q-9 0 -30.5 3t-32.5 3q-26 0 -70 37t-44 67z" />
    <glyph glyph-name="quotedbl" unicode="&#x22;" horiz-adv-x="614" 
d="M123 778q-14 0 -27 15q-5 231 -18 477q-4 64 -16 104q-9 26 -9 19q0 45 47 45q8 0 20 -5t17 -6q84 -9 96 -9q36 0 36 -35q0 -5 -5.5 -15t-5.5 -16q-12 -287 -12 -404q0 -22 6.5 -65t6.5 -65q0 -29 -27 -29q-6 0 -19.5 3t-20.5 3q-12 0 -35.5 -8.5t-33.5 -8.5zM409 778
q-14 0 -27 15q-5 231 -18 477q-4 64 -16 104q-9 26 -9 19q0 45 47 45q8 0 20 -5t17 -6q84 -9 96 -9q36 0 36 -35q0 -5 -5.5 -15t-5.5 -16q-12 -287 -12 -404q0 -22 6.5 -65t6.5 -65q0 -29 -27 -29q-6 0 -19.5 3t-20.5 3q-12 0 -35.5 -8.5t-33.5 -8.5z" />
    <glyph glyph-name="numbersign" unicode="#" horiz-adv-x="758" 
d="M209 203h-86l47 284h-147l12 76h147l41 246h-147l14 78h146l49 284h90l-49 -284h180l49 284h86l-45 -284h139l-14 -78h-141l-41 -246h139l-12 -76h-142l-49 -284h-88l51 284h-180zM492 809h-179l-43 -246h181z" />
    <glyph glyph-name="dollar" unicode="$" horiz-adv-x="778" 
d="M365 1386v119q0 33 41 43q33 8 22 8q21 0 21 -26v-273q24 -2 63 -16q102 -36 127 -76q23 -35 23 -145q0 -80 -5 -104q-14 -61 -64 -61q-84 0 -97 50q-5 74 -10 147q-9 109 -52 109q-6 0 -17 -4.5t-16 -5.5q-49 -8 -82 -89q-29 -69 -28 -129v-38q0 -117 102 -176l188 -74
q101 -41 101 -115q0 -48 -40.5 -91.5t-88.5 -51.5q-40 -6 -127 -14q2 -88 2 -144q0 -173 -10 -209q-6 -18 -23 -18q-10 0 -22 18q-15 22 -20 171q-4 124 -1 182q-73 0 -217 14q-45 9 -45 59q0 19 13 42.5t30 23.5q33 0 102.5 -28.5t124.5 -28.5q146 0 146 69q0 25 -105 68
q-68 25 -137 51q-85 40 -118 112q-28 59 -28 164q0 64 29 177q46 176 186 176q16 0 34 -2q-2 71 -2 116z" />
    <glyph glyph-name="percent" unicode="%" 
d="M1092 232q0 -98 -40 -173q-49 -91 -139 -91q-21 0 -77 9q-25 3 -74 13q-77 25 -115 73q-63 83 -61 175v8q8 358 213 358q-20 0 65 -14q19 -2 54 -8q174 -60 174 -350zM971 268q0 79 -24 142q-33 86 -99 86q-61 0 -93 -86q-24 -63 -24 -136q0 -223 117 -223q123 0 123 217
zM1023 1458q0 -6 -11 -20q-14 -18 -16 -21q-57 -117 -173 -350q-89 -176 -312 -600q-84 -165 -260 -481q-20 -33 -60 -33q-17 0 -43.5 28.5t-26.5 45.5q0 13 13 28q20 24 21 25.5t157 289.5q180 332 326 607l134 248q76 145 116 256q1 11 12 30q15 12 35 12q30 0 57 -17
q31 -20 31 -48zM592 1153q0 -98 -40 -173q-49 -91 -139 -91q-21 0 -77 9q-25 3 -74 13q-77 25 -115 73q-63 83 -61 175v8q8 358 213 358q-20 0 65 -14q19 -2 54 -8q174 -60 174 -350zM471 1189q0 79 -24 142q-33 86 -99 86q-61 0 -93 -86q-24 -63 -24 -136q0 -223 117 -223
q123 0 123 217z" />
    <glyph glyph-name="ampersand" unicode="&#x26;" horiz-adv-x="1233" 
d="M39 195q0 133 84 262q27 40 176 217q-102 129 -102 332q0 165 122.5 297.5t286.5 132.5q102 0 193 -48q108 -58 108 -151q0 -115 -434 -619q62 -94 184 -197q107 -84 213 -169q91 85 154 200q68 124 78 238v82q0 38 26 38q45 0 71 -76q20 -57 20 -111q0 -114 -74 -257
q-69 -134 -160 -216q42 -28 123 -84q10 -11 31 -31q9 -8 73 -55q21 -15 21 -19q0 -27 -39 -27q-61 0 -146 54q-12 8 -130 96q-101 -82 -227 -138q-141 -63 -253 -63q-114 0 -215 58t-155 157q-29 53 -29 97zM408 524q-209 -265 -209 -387q0 -57 40 -90t99 -33q205 0 461 168
q-222 173 -391 342zM733 1255q0 62 -80 62q-116 0 -205 -124q-81 -114 -81 -235q0 -124 30 -194q94 116 188 233q148 195 148 258z" />
    <glyph glyph-name="quotesingle" unicode="'" horiz-adv-x="492" 
d="M211 778q-14 0 -27 15q-5 231 -18 477q-4 64 -16 104q-9 26 -9 19q0 45 47 45q8 0 20 -5t17 -6q84 -9 96 -9q36 0 36 -35q0 -5 -5.5 -15t-5.5 -16q-12 -287 -12 -404q0 -22 6.5 -65t6.5 -65q0 -29 -27 -29q-6 0 -19.5 3t-20.5 3q-12 0 -35.5 -8.5t-33.5 -8.5z" />
    <glyph glyph-name="parenleft" unicode="(" horiz-adv-x="492" 
d="M409 1540q32 0 55 -37q21 -33 21 -68q0 -28 -26 -59q-34 -42 -39 -53q-142 -303 -142 -950q0 -344 89 -541q8 -19 66 -60q48 -36 48 -75q0 -38 -28 -68.5t-65 -30.5q-34 0 -69 23q-212 142 -212 867q0 252 34 528q46 386 135 479q43 45 133 45z" />
    <glyph glyph-name="parenright" unicode=")" horiz-adv-x="492" 
d="M61 1446q0 18 45 37q41 16 65 16q92 0 118 -90q94 -326 94 -811q0 -298 -42 -546q-72 -425 -242 -425q-24 0 -47 28t-23 54q0 36 39 60q76 45 104 198q41 221 41 474q0 325 -12 475q-23 277 -99 460q-3 8 -24 32q-17 19 -17 38z" />
    <glyph glyph-name="asterisk" unicode="*" horiz-adv-x="492" 
d="M207 1288q8 47 16 95q18 63 56 63q44 0 44 -54q0 -9 -26 -110q103 66 120 66q35 0 35 -30q0 -20 -52 -57q-37 -23 -74 -47q133 -58 133 -97t-47 -39q-37 0 -127 65q6 -56 6 -115q0 -57 -49 -57q-52 0 -52 57q0 22 11 109q-29 -29 -58 -57q-40 -38 -65 -38q-40 0 -40 38
q0 31 126 126q-35 19 -70 37q-47 29 -47 56q0 44 41 44q29 0 119 -55z" />
    <glyph glyph-name="plus" unicode="+" 
d="M678 -20h-135v385h-385v129h385v385h135v-385h383v-129h-383v-385z" />
    <glyph glyph-name="comma" unicode="," horiz-adv-x="492" 
d="M261 275q25 0 101.5 -53.5t76.5 -74.5q0 -13 -13 -26q-106 -102 -166 -254q-27 -68 -57 -203q-6 -26 -23 -26q-27 0 -78 32t-51 56q0 20 83 255q79 223 99 271q10 23 28 23z" />
    <glyph glyph-name="hyphen" unicode="-" horiz-adv-x="547" 
d="M72 437q0 24 24 24q14 0 44 -4t46 -4q39 0 118 7t118 7q25 0 43 -57q15 -47 15 -81q0 -29 -19 -29q-7 0 -17.5 7.5t-17.5 7.5q-21 0 -133 -10q-19 -2 -85 -13q-56 -9 -81 -9t-42 66q-13 52 -13 88z" />
    <glyph glyph-name="period" unicode="." horiz-adv-x="492" 
d="M94 95q0 139 43 165q15 3 45 10l30 15q13 7 36 7q29 0 43 -13q18 -19 22 -21q12 -3 33 -12q7 -14 21 -39q26 -50 26 -92q0 -44 -69 -95q-12 -11 -24 -23t-28 -12q-10 0 -31 3t-32 3q-26 0 -69 37q-46 38 -46 67z" />
    <glyph glyph-name="slash" unicode="/" horiz-adv-x="614" 
d="M55 -84q-40 0 -72 23q-35 25 -35 64q0 19 11 46q43 99 128 296q136 316 259 624q8 19 138 354q22 48 57 143q12 47 15 50q11 16 54 16q116 0 116 -50q-327 -793 -425 -1023q-71 -156 -201 -469q-2 -19 -12 -53q-10 -21 -33 -21z" />
    <glyph glyph-name="zero" unicode="0" 
d="M55 672q0 490 303 770q37 33 124 33q23 0 63 -9q44 -11 63 -12q-10 1 97 1q136 0 284 -128q37 -31 78 -123q110 -244 110 -470q0 -221 -58 -407q-72 -229 -218 -339q-49 -38 -124 -38q-31 0 -93.5 11.5t-95.5 11.5q-11 0 -32.5 -2t-32.5 -2q-74 0 -142 43
q-326 209 -326 660zM1018 682q0 238 -77 430q-104 260 -306 260q-192 0 -300 -269q-83 -206 -83 -431q0 -135 39 -260q43 -137 127 -238q106 -127 227 -127q182 0 289 239q84 188 84 396z" />
    <glyph glyph-name="one" unicode="1" horiz-adv-x="743" 
d="M307 1102l-56 -78q-43 -53 -67 -53q-20 0 -55 30q0 -1 59 99q42 70 82 179q56 151 70 181q9 20 21 20q11 0 22.5 -7.5t15.5 -8.5l60 -14q8 -5 43 -47q12 -15 11 -28l-1 -17q-19 -359 -19 -803q0 -404 5 -500q0 -14 11 -45t11 -45q0 -3 -20 -11.5t-25 -8.5q-8 0 -19.5 7.5
t-17.5 8.5q-47 5 -94 9q-43 10 -43 75q0 418 6 1057z" />
    <glyph glyph-name="two" unicode="2" 
d="M274 774q-62 0 -75 79q-3 14 -3 128q0 80 5 152q9 152 152 255q133 96 292 96q170 0 287 -59q150 -76 150 -231q0 -181 -210 -472q-166 -213 -333 -425q-44 -58 -63 -87q-42 -64 -46 -91l8 -15q302 9 431 9q204 0 204 -64q0 -8 -16 -10l-291 -39q-21 -3 -198 -34
q-131 -24 -191 -24q-39 0 -101 40q-67 43 -67 79q0 61 177 290q260 336 328 440q177 269 177 428q0 172 -156 172q-131 0 -233 -80q-128 -100 -133 -238q-2 -52 -2 -225q0 -39 -19 -53q-25 -21 -74 -21z" />
    <glyph glyph-name="three" unicode="3" 
d="M418 819q0 -16 -16.5 -30.5t-32.5 -14.5q-13 0 -27 7q-17 10 -25 12q-16 -1 -51 8q-27 15 -42 132q-11 81 -11 150q0 150 114 274t263 124q191 0 313 -109q127 -112 127 -301q0 -175 -104 -320q-96 -135 -260 -216v-11q159 -52 237 -106q123 -86 123 -213
q0 -155 -156 -227q-116 -54 -292 -54q-111 0 -217 33q-125 38 -187 106q-3 4 -3 11q0 23 14 46.5t35 23.5q18 0 116.5 -66t202.5 -66q109 0 195 41q110 52 110 150q0 100 -106 178q-96 72 -201 76q-56 -1 -162 10q-32 7 -32 40q0 30 32 44q50 16 147 55q320 156 320 494
q0 105 -42 184q-52 96 -149 96q-113 0 -188 -100q-68 -92 -68 -208q0 -43 11.5 -127t11.5 -126z" />
    <glyph glyph-name="four" unicode="4" 
d="M676 1464q57 0 125 -13q96 -19 96 -52q0 -6 -11.5 -11t-13 -9.5t-16.5 -157.5q-33 -340 -33 -700q0 -93 4 -195q325 0 383 -25q33 -14 33 -57q0 -8 -18 -8q-131 -4 -391 -13q1 -23 9 -127q7 -78 7 -127q0 -32 -30 -38h-59q-78 0 -77 0q-45 7 -45 46q0 31 2 92.5t2 93.5
v50q-294 -23 -397 -23q-163 60 -187 72q-10 5 -10 21q0 11 12 34q116 220 275 555l266 560q13 25 31 31q6 1 43 1zM651 326l6 831l-401 -838z" />
    <glyph glyph-name="five" unicode="5" 
d="M215 809v455q0 20 -11 57t-11 55q0 36 61 43q109 13 292 13q247 0 439 -9q80 -3 80 -43q0 -7 -23 -28t-32 -23q-80 -20 -267 -28q-239 -11 -278 -15q-42 -4 -47 -29q-11 -49 -11 -272q0 -43 4.5 -127t4.5 -126q0 -6 -13 -79q69 27 180 27q206 0 369 -106
q187 -121 187 -316q0 -159 -111 -249q-103 -83 -266 -83q-166 0 -354 42q-216 47 -328 126q-17 12 -17 29q0 45 87 45q12 0 172.5 -70.5t275.5 -70.5q144 0 248 64q123 75 123 210q0 125 -119 206q-105 73 -236 73q-69 0 -129 -38q-34 -21 -79 -69q-36 -37 -48 -37
q-8 0 -62 24t-65 32q-17 12 -18 36q-3 54 -1 141q3 117 3 140z" />
    <glyph glyph-name="six" unicode="6" 
d="M115 573q0 246 83 503q105 327 285 394q37 14 62 14q87 0 233 -59q95 -38 145 -154q42 -97 42 -214q0 -85 -58 -85q-57 0 -98 23q-30 17 -37 86q-14 132 -24 170q-30 115 -99 115q-65 0 -143 -89q-61 -69 -96 -147q-89 -192 -111 -448q283 115 475 115q140 0 252 -72
q129 -83 129 -215q0 -201 -134 -384q-146 -198 -341 -198q-36 0 -164 29q-180 40 -231 90q-170 166 -170 526zM989 522q0 88 -59 142.5t-148 54.5q-126 0 -261 -58t-218 -151q62 -494 299 -494q142 0 270 186q117 171 117 320z" />
    <glyph glyph-name="seven" unicode="7" horiz-adv-x="1081" 
d="M756 1290q-486 -12 -645 -12q-37 0 -37 39q0 53 57 63q332 60 608 60q68 0 154 -22q114 -30 114 -77q0 -7 -3 -14q-202 -404 -265 -548q-138 -315 -194 -575q-29 -131 -29 -192q0 -5 5 -16t5 -21q0 -13 -31 -28t-47 -15q-41 0 -114 21q-29 8 -29 45q0 8 34 140
q100 385 417 1152z" />
    <glyph glyph-name="eight" unicode="8" horiz-adv-x="1303" 
d="M729 -57q-157 0 -313 84q-183 99 -183 243q0 95 66 191q21 31 131 157q-199 173 -225 198q-146 146 -146 239q0 183 354 307q281 98 511 98q204 0 323 -114q10 -10 10 -23q0 -22 -21.5 -49t-42.5 -27q6 0 -82 51.5t-181 51.5q-110 0 -236 -30q-144 -35 -269 -102
q-177 -95 -177 -200q0 -86 88 -187q32 -36 156 -147q106 107 365 307q301 232 370 232q11 0 36 -21t25 -31l-20 -12q-296 -175 -654 -579q124 -87 223 -191q138 -144 138 -239q0 -92 -79 -152q-73 -55 -167 -55zM807 180q0 121 -252 334q-149 -164 -149 -285q0 -80 78 -128
q67 -42 153 -42q62 0 111 29q59 35 59 92z" />
    <glyph glyph-name="nine" unicode="9" 
d="M598 412q-188 0 -338 103q-168 116 -168 296q0 211 113 423q133 251 325 251q34 0 130 -20q100 -20 124 -33q173 -96 272 -361q83 -222 83 -455q0 -288 -178.5 -465.5t-466.5 -177.5q-240 0 -449 127q-18 12 -18 21q0 36 73 36q9 0 147.5 -56t235.5 -56q200 0 332 162
q123 151 123 356q-50 -64 -155 -109q-100 -42 -185 -42zM596 1350q-137 0 -239 -199q-87 -170 -87 -322q0 -129 67 -227q76 -110 200 -110q166 0 401 196v36q2 175 -84 378q-105 248 -258 248z" />
    <glyph glyph-name="colon" unicode=":" horiz-adv-x="492" 
d="M94 95q0 139 43 165q15 3 45 10l30 15q13 7 36 7q29 0 43 -13q18 -19 22 -21q12 -3 33 -12q7 -14 21 -39q26 -50 26 -92q0 -44 -69 -95q-12 -11 -24 -23t-28 -12q-10 0 -31 3t-32 3q-26 0 -69 37q-46 38 -46 67zM94 608q0 139 43 165q15 3 45 10l30 15q13 7 36 7
q29 0 43 -13q18 -19 22 -21q12 -3 33 -12q7 -14 21 -39q26 -50 26 -92q0 -44 -69 -95q-12 -11 -24 -23t-28 -12q-10 0 -31 3t-32 3q-26 0 -69 37q-46 38 -46 67z" />
    <glyph glyph-name="semicolon" unicode=";" horiz-adv-x="492" 
d="M261 275q25 0 101.5 -53.5t76.5 -74.5q0 -13 -13 -26q-106 -102 -166 -254q-27 -68 -57 -203q-6 -26 -23 -26q-27 0 -78 32t-51 56q0 20 83 255q79 223 99 271q10 23 28 23zM94 608q0 139 43 165q15 3 45 10l30 15q13 7 36 7q29 0 43 -13q18 -19 22 -21q12 -3 33 -12
q7 -14 21 -39q26 -50 26 -92q0 -44 -69 -95q-12 -11 -24 -23t-28 -12q-10 0 -31 3t-32 3q-26 0 -69 37q-46 38 -46 67z" />
    <glyph glyph-name="less" unicode="&#x3c;" horiz-adv-x="2048" 
d="M412 682v-148l1225 -549v162l-1014 461l1014 456v165z" />
    <glyph glyph-name="equal" unicode="=" 
d="M686 184h-135v385h-385v129h385v385h135v-385h383v-129h-383v-385zM686 -225h-135v385h-385v129h385v385h135v-385h383v-129h-383v-385z" />
    <glyph glyph-name="greater" unicode="&#x3e;" horiz-adv-x="2048" 
d="M1637 688v-148l-1225 -549v162l1014 461l-1014 456v165z" />
    <glyph glyph-name="question" unicode="?" horiz-adv-x="1516" 
d="M227 616q-178 0 -178 142q0 230 168 418q150 168 383 250q188 65 406 65q170 0 318 -69q187 -88 187 -238q0 -119 -147 -232q-70 -55 -250 -149q-304 -160 -338 -180q-254 -150 -254 -224q0 -32 50.5 -61.5t50.5 -48.5q0 -27 -59 -27q-76 0 -137 41q-69 46 -69 119
q0 81 103 186q80 81 174 137l400 222q296 181 296 282q0 119 -228 119q-345 0 -565 -128q-272 -158 -272 -478q0 -17 3 -51t3 -52q0 -43 -45 -43zM346 38q0 42 35 90.5t75 48.5l85 1q48 0 91.5 -53.5t43.5 -102.5q0 -54 -54 -102.5t-108 -48.5q-60 0 -114 53.5t-54 113.5z
" />
    <glyph glyph-name="at" unicode="@" horiz-adv-x="2048" 
d="M1217 1124h180v-508q0 -229 119 -229q176 0 176 404q0 297 -166 482q-174 193 -467 193q-145 0 -277 -53q-426 -173 -426 -707q0 -344 192 -545q195 -204 537 -204q137 0 304 41v-170q-157 -41 -297 -41q-429 0 -680.5 249t-251.5 677q0 405 250 663t655 258
q382 0 606 -241q217 -235 217 -621q0 -223 -82 -371q-103 -184 -309 -184q-198 0 -256 197q-64 -191 -283 -191q-183 0 -282 148q-84 127 -84 319q0 193 92 319q104 142 291 142q149 0 242 -143v116zM778 684q0 -129 42 -213q55 -109 171 -109q120 0 176 110q43 85 43 217
q0 125 -43 211q-56 110 -170 110q-219 0 -219 -326z" />
    <glyph glyph-name="A" unicode="A" horiz-adv-x="1186" 
d="M524 1436q19 0 56.5 -6.5t56.5 -6.5q12 0 35.5 4.5t36.5 4.5q91 0 100 -60q7 -67 27 -203q122 -654 329 -1149q3 -5 3 -10q0 -18 -19 -18q-8 0 -24 3t-25 3l-44.5 -13.5t-76.5 -13.5q-57 0 -68 45q-44 194 -94 369l-477 -35q-49 -138 -104 -405q-7 -31 -33 -31
q-61 0 -85 13q-33 25 -65 50q-18 14 -18 44q0 34 128 386l156 424q78 219 96 272q52 159 77 277q2 19 4 37q6 19 28 19zM786 496l-157 647l-250 -672z" />
    <glyph glyph-name="B" unicode="B" horiz-adv-x="1210" 
d="M125 1419q0 37 53 49q146 35 376 35q457 0 558 -289q25 -70 25 -113q0 -130 -86 -212q-203 -193 -482 -264v-7q413 -49 541 -266q13 -22 13 -91q0 -149 -243 -256q-201 -89 -371 -89q-50 0 -179 26q-141 28 -163 50.5t-22 66.5q0 131 7.5 391.5t7.5 391.5q0 464 -13 526
q-1 8 -11.5 25t-10.5 26zM627 1346q-109 0 -215 -39q-52 -19 -56 -72q0 -56 -2 -166q-4 -253 -4 -364q203 60 391 173q258 155 258 300q0 88 -150 135q-107 33 -222 33zM344 485q2 -138 12 -413q152 0 357 55q264 70 264 174q0 54 -157 110q-111 39 -206 54q-118 18 -270 20
z" />
    <glyph glyph-name="C" unicode="C" horiz-adv-x="1032" 
d="M82 526q0 270 70 508q85 286 251 439q44 40 97 40q96 0 248 -47q106 -32 129 -114q49 -179 49 -432q0 -115 -19 -183q-9 -35 -49 -35q-129 0 -129 82q0 30 3 90.5t3 90.5q0 405 -117 405q-49 0 -98 -55q-235 -269 -235 -810q0 -179 56 -299q74 -161 232 -161
q105 0 246 76t142 76q32 0 32 -60q0 -27 -22 -53q-57 -67 -165 -112q-102 -42 -196 -42q-119 0 -235 66q-2 1 -81 37q-48 23 -73 49q-139 147 -139 444z" />
    <glyph glyph-name="D" unicode="D" horiz-adv-x="1241" 
d="M131 1414q0 42 49 42q24 0 71.5 -4t71.5 -4q33 0 98.5 3t98.5 3q244 0 383 -149.5t195 -250.5q80 -141 80 -304q0 -221 -123 -392q-221 -307 -504 -411q-95 -35 -162 -35q-20 0 -51 7q-40 10 -51 11q-104 14 -112 17q-59 19 -57 81l1 9q5 110 35 532q23 328 23 533
q0 174 -7 227q-2 15 -20.5 41.5t-18.5 43.5zM346 222v-128q110 0 242 72q193 105 308 289q118 189 118 405q0 276 -248 406q-51 27 -110 27q-149 0 -183 -7q-44 -8 -59 -30q-13 -17 -17 -64q-13 -239 -43 -715q-8 -123 -8 -255z" />
    <glyph glyph-name="E" unicode="E" horiz-adv-x="1006" 
d="M152 1313q0 23 -12 56.5t-12 42.5q0 30 52 30q184 0 291 -4q141 -4 391 -23q49 -7 49 -53q0 -35 -51 -43q-74 -12 -206 -20q-151 -8 -208.5 -15t-62.5 -43q-1 -5 -11 -231l-20 -461l345 -6q46 2 132 -2q39 -6 39 -49q0 -48 -41 -56q-34 -7 -352 -37q-41 -5 -123 -12
q-4 -149 -4 -246q0 -63 58 -63q81 0 243.5 1t243.5 1q68 0 68 -43q0 -35 -54 -47q-100 -24 -322 -53q-227 -29 -320 -29q-130 0 -128 122v11q15 712 15 1272z" />
    <glyph glyph-name="F" unicode="F" horiz-adv-x="973" 
d="M167 1443q0 38 77 38q20 0 58 -8t56 -9q179 -4 537 -16q55 -2 55 -51q0 -36 -37 -47q-54 -17 -210 -29q-188 -14 -228 -21q-59 -9 -63 -49q-24 -232 -60 -778q305 -8 459 -8q22 0 45 -18t23 -39q0 -36 -50 -46q-78 -15 -205 -24q-175 -13 -206 -16q-68 -8 -68 -37
q0 -47 8.5 -140.5t8.5 -136.5q0 -51 -45 -51h-142q-43 0 -43 76q0 -24 18 423q13 289 31 865l1 12q0 28 -10 61t-10 49z" />
    <glyph glyph-name="G" unicode="G" horiz-adv-x="1182" 
d="M690 -117q-612 0 -612 570q0 243 97 511q106 292 271 439q35 31 146 31q55 0 100 -25q36 -11 109 -37q12 -9 41 -24q11 0 32 -7q81 -45 129 -242q36 -151 36 -284q0 -60 -19 -72q-34 -20 -92 -20q-10 0 -56 12q-31 9 -36 72q-20 226 -22 241q-23 138 -91 220
q-27 32 -68 32q-27 0 -69 -25.5t-60 -49.5q-248 -332 -248 -799q0 -175 80 -306q94 -155 258 -155q111 0 201 74q80 66 125 176q7 16 6 36v21q-30 -1 -177 -8q-109 -6 -177 -6q-30 0 -61 22.5t-31 51.5q0 43 39 53q167 41 480 41q17 0 36 -16q41 -37 50 -56q11 -22 11 -75
q0 -161 -135 -281q-130 -115 -293 -115z" />
    <glyph glyph-name="H" unicode="H" horiz-adv-x="1239" 
d="M129 1323q0 24 7 33v0q7 10 33 10q32 0 95 -1t94 -1q44 0 44 -27l-1 -8q-21 -193 -42 -385q-21 -208 -21 -387q207 26 496 23q3 134 16 319l22 264q13 158 13 264q0 7 -4 17.5t-4 17.5q0 21 30 21q18 0 53.5 -9t51.5 -10q-7 1 60 1q24 0 48 -12q29 -14 29 -36
q0 -13 -9 -28q-12 -16 -14 -25q-90 -370 -90 -852q0 -298 29 -426q1 -5 6.5 -16.5t5.5 -18.5q0 -30 -38 -36q-3 -1 -58 -1q-19 0 -55.5 -6t-55.5 -6q-51 0 -51 39q0 83 7 219q8 172 10 219l-498 -12q4 -266 29 -463q1 -10 1 -17q0 -39 -41 -39q-12 0 -37 5.5t-38 5.5
q-9 0 -26 -3t-25 -3q-74 0 -74 72q0 -2 12 246q10 229 11 427v174q0 167 -9 298q-1 14 -7 76q-5 48 -5 77z" />
    <glyph glyph-name="I" unicode="I" horiz-adv-x="504" 
d="M147 1233v160q0 5 -5 15t-5 17q0 15 33 25q25 8 44 8q-20 0 75 -12q119 -16 119 -57q0 -9 -8 -19q-9 -14 -11 -18q-11 -34 -29 -240q-43 -521 -43 -645q0 -333 5 -393q0 -8 7 -22t7 -20q0 -47 -67 -47q-156 0 -156 87q0 31 4 84q5 67 6 84q24 486 24 993z" />
    <glyph glyph-name="J" unicode="J" horiz-adv-x="733" 
d="M340 1403q0 55 59 55q9 0 24.5 -5.5t22.5 -6.5q106 -12 117 -12q47 0 47 -37q0 -10 -5.5 -24t-6.5 -21q-14 -187 -14 -543q0 -94 4 -281.5t4 -281.5q0 -144 -77 -237q-83 -100 -222 -98l-25 1q-65 1 -191 38q-150 43 -150 86q0 46 50 46q32 0 96 -12.5t97 -12.5
q86 0 130 28q51 31 71 110q25 98 25 516q0 112 -25 538q-2 48 -19 129q-12 29 -12 25z" />
    <glyph glyph-name="K" unicode="K" horiz-adv-x="1116" 
d="M152 1364q0 9 -5.5 27t-5.5 28q0 37 53 37q196 0 196 -50q0 -12 -21.5 -28.5t-22.5 -29.5q-1 -70 -4 -207q-5 -169 -20 -453q169 257 320 483q60 92 185 271q7 8 18 8q12 0 79 -30q63 -29 77.5 -38t14.5 -30q0 -3 -33 -27q-54 -40 -224 -285q-173 -248 -173 -293
q0 -34 217 -257q157 -161 264 -261q13 -7 33 -26q9 -15 9 -33q0 -24 -51 -58q-47 -32 -73 -32q-18 0 -43 24q-160 161 -485 478l-121 -183q-6 -232 -6 -278q0 -21 11 -59t11 -48q0 -40 -24 -40q-7 0 -20 4.5t-19 5.5q-50 -1 -100 -1q-62 5 -62 54q0 45 3 118q4 92 5 119
q2 77 8 500q9 514 9 590z" />
    <glyph glyph-name="L" unicode="L" horiz-adv-x="879" 
d="M146 1006q0 250 -7 327q-1 10 -7.5 29t-6.5 31q0 49 65 49q13 0 34 -6q25 -7 34 -9q9 -1 24 1q19 2 24 2q26 0 50.5 -15t24.5 -39q0 -11 -7 -29q-8 -21 -9 -28q-17 -83 -19 -150q-8 -330 -8 -567q0 -244 10 -514q283 -9 434 -25q81 -8 81 -68q0 -22 -25 -26
q-88 -2 -263 -12q-180 -15 -309 -51q-134 112 -134 208q0 149 7 446t7 446z" />
    <glyph glyph-name="M" unicode="M" horiz-adv-x="1393" 
d="M152 -47q0 228 14 685t14 685q0 6 -8 15t-8 18q0 11 22 21t35 10q16 0 49 -9t47 -10q36 -2 71 -4q46 -5 65 -23q12 -11 16 -53q55 -611 209 -1034h12q58 106 115 350q40 186 80 371q34 154 116 455q12 34 50 34q14 0 40 -6.5t37 -7.5q30 1 86 -2q27 -5 27 -29
q0 -8 -9.5 -17t-10.5 -16q-1 -56 -4 -162q-11 -329 -11 -408v-46q1 -204 20 -492q2 -54 11 -159q1 -9 10.5 -27.5t9.5 -25.5q0 -29 -24 -29q-12 0 -37 3t-42 3q-7 0 -20 3t-20 3q-5 0 -16 -2.5t-16 -2.5q-53 0 -56 54q-12 250 -8 865h-8q-56 -267 -183 -797q-21 -80 -69 -80
q-12 0 -33 8.5t-33 8.5q-9 0 -27.5 -2.5t-27.5 -2.5q-50 0 -74 45q-152 284 -198 772h-11q-5 -205 -5 -393q0 -473 26 -565q1 -5 8.5 -12t7.5 -15q0 -12 -32 -22q-26 -7 -44 -7q-22 0 -66.5 4.5t-66.5 4.5q-30 0 -30 43z" />
    <glyph glyph-name="N" unicode="N" horiz-adv-x="1202" 
d="M212 1402q14 0 40 -5.5t39 -5.5q5 0 13 4t13 4q4 0 39 -6q65 -12 66 -12q31 -12 31 -52q0 -7 -6.5 -17.5t-6.5 -17.5q0 -168 140 -630q95 -317 243 -492q12 -14 23 -14q16 0 16 30q0 603 -22 1086q0 47 -6 137q-1 7 -6 18t-5 21q0 23 76 23q16 0 44.5 -4.5t44.5 -4.5
q46 0 46 -41q0 -58 -4.5 -174.5t-4.5 -174.5q0 -133 8 -398t8 -398q0 -246 -89 -258q-18 -2 -55 -2q-162 0 -221 76q-232 300 -328 852h-14l-1 -214q0 -254 5 -408q4 -141 7 -178q8 -118 26 -171q1 -4 10 -17q6 -11 6 -19q0 -14 -14 -18q-11 -2 -31 0q-25 3 -27 3
q-11 0 -33 -3t-33 -3q-104 0 -104 86q0 226 7.5 677t7.5 677q0 44 52 44z" />
    <glyph glyph-name="O" unicode="O" horiz-adv-x="1202" 
d="M421 1441q26 0 69 -12q52 -14 69 -16q45 -1 133 -10q211 -42 330 -285q100 -203 100 -444q0 -215 -80 -421q-93 -237 -254 -333q-61 -37 -126 -37q-4 0 -146 29q-60 7 -178 41q-269 120 -269 599q0 93 9 204q15 205 77 380q81 233 214 295q21 10 52 10zM602 1311
q-174 0 -265 -286q-67 -207 -67 -433q0 -210 50 -369q73 -235 233 -235q208 0 316 252q81 190 81 430q0 373 -155 534q-103 107 -193 107z" />
    <glyph glyph-name="P" unicode="P" horiz-adv-x="967" 
d="M151 1129q0 242 -4 286q0 7 -5 20.5t-5 16.5q0 26 31 26q6 0 20 -3t21 -3q20 0 59.5 2.5t58.5 2.5q231 0 396 -95q201 -116 201 -329q0 -225 -174 -399.5t-398 -174.5q-4 -69 -4 -114q0 -232 19 -334q6 -34 6 -29q0 -33 -44 -33q-12 0 -29.5 7.5t-25.5 7.5q-6 0 -18 -3.5
t-18 -3.5q-24 0 -70 23q-51 25 -51 46q0 7 4.5 20.5t5.5 19.5q8 104 20 727q4 197 4 316zM518 1322q-56 0 -94 -5q-41 -5 -53 -18t-15 -54q-14 -274 -14 -620q0 -35 31 -35q49 0 120 44q112 70 183 186q72 120 76 247v19q6 236 -234 236z" />
    <glyph glyph-name="Q" unicode="Q" horiz-adv-x="1202" 
d="M53 662q0 182 63 400q59 207 154 376q22 39 88 39q36 0 95 -16q68 -18 94 -21q39 -2 117 -8q147 -22 229 -91q7 -9 22 -28q20 -11 56 -41q87 -106 134 -291q40 -158 40 -320q0 -372 -182 -606q-44 -56 -150 -98q103 -109 201 -233q29 -31 59 -62q43 -45 43 -63
q0 -19 -24 -33.5t-43 -14.5q-35 0 -74 33q-123 107 -373 316q-63 -7 -117 -7q-233 0 -348 284q-84 209 -84 485zM967 709q0 225 -83 410q-107 239 -304 239q-149 0 -247 -289q-77 -227 -77 -414q0 -221 53 -404q79 -269 246 -269q198 0 317 278q95 220 95 449z" />
    <glyph glyph-name="R" unicode="R" horiz-adv-x="1167" 
d="M161 1399q0 5 -8 12.5t-8 13.5q0 21 4 27q9 15 79 26q57 9 91 9q120 0 272 -23q37 -11 111 -32q28 -7 84 -25q107 -48 206 -164q107 -127 107 -233q0 -133 -89 -233q-53 -60 -166 -129q-89 -55 -89 -76t126 -185q117 -151 155 -190q13 -14 49 -23q-76 -84 -125 -84
q-28 0 -55 27q-131 131 -400 387q-85 -25 -166 -31q2 -162 5 -308q-1 -42 3 -120q1 -6 6 -12.5t5 -18.5t-55 -25q-47 -12 -68 -12q-25 0 -66 14q-49 18 -49 38q0 -36 14 246q11 212 17 468q10 441 10 656zM433 1325q-50 0 -63 -70q-35 -193 -31 -596v-53q198 15 387 144
q215 146 215 327q0 164 -187 219q-101 29 -321 29z" />
    <glyph glyph-name="S" unicode="S" horiz-adv-x="1079" 
d="M67 971q0 257 219 467q64 61 160 61q51 0 164 -37q99 -33 157 -63q172 -88 172 -533q0 -36 -8.5 -47.5t-42.5 -19.5l-41 -11q-37 0 -69 26q-35 27 -35 63q0 200 -16 287q-36 195 -152 195q-126 0 -222 -144q-86 -130 -86 -263q0 -129 101 -286q56 -88 137 -157
q41 -36 166 -124l184 -124q115 -91 115 -173q0 -103 -114 -156q-88 -41 -205 -41q-124 0 -341 46q-189 39 -335 88q-25 8 -25 26q0 28 39 51q35 20 65 19h13q33 -1 86 -18l84 -28q200 -57 330 -57q198 0 198 93q0 67 -181 193q-251 174 -336 261q-181 187 -181 406z" />
    <glyph glyph-name="T" unicode="T" horiz-adv-x="1126" 
d="M12 1403q0 16 29 29q24 11 43 12q541 12 684 12q88 0 200 -11q165 -16 165 -44q0 -23 -29 -31q-2 -1 -57 -6q-266 -27 -336 -59q-26 -12 -29 -52q-2 -24 -6 -188q-20 -796 -20 -831q0 -171 1 -193q1 -12 13 -30t12 -26q0 -32 -103 -32q-84 0 -107 6q-61 15 -61 73
q0 13 5 33q7 24 8 33q13 110 16 226q25 755 25 921q0 44 -27 51q-184 24 -393 62q-33 18 -33 45z" />
    <glyph glyph-name="U" unicode="U" horiz-adv-x="1178" 
d="M166 1296q0 7 -8 19t-8 22q0 13 34 24q29 9 45 9q10 0 27.5 -3.5t24.5 -4.5q64 -7 85 -15q47 -18 47 -64q0 -18 -10 -41q-12 -27 -14 -38q-39 -223 -39 -510q0 -216 37 -430q32 -184 251 -184q84 0 157 35q30 838 30 1233q0 5 -7 14t-7 18q0 23 18 23q4 0 10.5 -3
t12.5 -3q2 0 15.5 5t21.5 5q13 0 39 -13t41 -13q5 0 16.5 3t17.5 3q63 0 63 -52q0 -16 -9 -90q-61 -490 -61 -881q0 -255 16 -382q1 -9 7.5 -26.5t6.5 -29.5q0 -49 -125 -49q-5 0 -13.5 3t-13.5 3q-4 0 -14 -2t-14 -2q-41 0 -49 30q-2 5 -4 63v30q-115 -8 -172 -8
q-302 0 -399 168q-69 117 -69 434q0 117 6.5 350.5t6.5 349.5z" />
    <glyph glyph-name="V" unicode="V" horiz-adv-x="1077" 
d="M22 1331q0 37 60 37q7 0 20.5 4t20.5 4q11 0 31 -6t30 -6q30 0 72 -12q53 -14 53 -35q0 -3 -14.5 -15t-14.5 -32q0 -76 281 -1020h8q86 346 150 561q58 194 166 502q9 26 7 46q-2 28 -1 34q8 10 14 10q7 0 14.5 -5t12.5 -5q3 0 10 2t10 2q12 0 33.5 -4t32.5 -4
q-5 0 29 -21q28 -17 28 -22q0 10 -12 -25q-1 -8 -4 -25q-3 -8 -76 -196q-10 -27 -20 -66q-23 -71 -68 -213q-61 -187 -122 -375q-70 -221 -99 -380q-4 -37 -8 -73q-10 -38 -54 -38q-5 0 -14.5 4.5t-13.5 5.5q-53 4 -156 29q-21 8 -33 53l-200 741q-9 31 -93 292
q-80 248 -80 251z" />
    <glyph glyph-name="W" unicode="W" horiz-adv-x="1491" 
d="M39 1292q0 15 58 25q46 9 74 9q50 0 65 -7q22 -9 38 -49q10 -23 13 -45l133 -975l8 -4q60 358 117 596q26 101 53 202q40 156 40 187q0 43 60 43q32 0 82 -8q64 -11 67.5 -23.5t47.5 -256.5q47 -261 94 -552h6q132 596 252 922q12 31 31 40q13 5 52 5q13 0 36.5 -5t40 -5
t52.5 -15q40 -16 40 -30q0 -6 -13 -19l-18 -18q-78 -117 -211 -635q-34 -134 -69 -342q-51 -300 -60 -344q-3 -17 -7 -22t-44.5 -17t-48.5 -12q-91 0 -96 16q-6 47 -19 135q-21 100 -61 299q-2 9 -139 600h-8q-39 -181 -64 -313q-26 -112 -70 -336q-12 -79 -51 -387
q-5 -42 -26 -55q-33 -21 -121 -21q-73 0 -84 59q-36 226 -109 676q-25 164 -84 491q-9 59 -39 167q-1 3 -9.5 9.5t-8.5 14.5z" />
    <glyph glyph-name="X" unicode="X" horiz-adv-x="1100" 
d="M393 842q-314 477 -314 512q0 8 26.5 23.5t35.5 15.5q86 0 113 -37q32 -45 73 -126q54 -105 68 -130q22 -37 74 -119q192 307 202 322q152 230 226 282q173 -91 173 -125q0 -17 -33 -29q-40 -15 -48 -24q-141 -165 -418 -612q167 -264 289 -433q78 -108 187 -241
q4 -4 18 -5q6 0 6 -18q0 -11 7 -15.5t7 -8.5q0 -6 -20 -8q-12 -2 -34.5 -9.5t-34.5 -7.5q-25 0 -42 17q-231 239 -446 598q-137 -266 -215 -449q-31 -78 -94 -231q-8 -17 -30 -17q-15 0 -44.5 5t-45.5 5q-52 0 -52 52q0 80 154 404q129 270 212 409z" />
    <glyph glyph-name="Y" unicode="Y" horiz-adv-x="1227" 
d="M14 1360q0 11 15.5 24t27.5 13q132 0 176 -82q152 -283 334 -676l6 2q80 153 288 509q50 89 155 263q13 21 41 21q7 0 74.5 -31t74.5 -37q13 -11 13 -31q0 -9 -36 -36q-40 -29 -46 -39q-267 -397 -457 -828q-3 -59 -3 -139q0 -123 9 -216q1 -10 7 -45q5 -29 5 -44
q0 -25 -114 -25q-101 0 -101 66q0 28 3.5 84t3.5 84q0 222 -39 311q-135 302 -286 591q-36 74 -116 216q-2 3 -20 22q-15 14 -15 23z" />
    <glyph glyph-name="Z" unicode="Z" horiz-adv-x="981" 
d="M33 1386q0 10 67 15q336 22 456 22q184 0 275 -12q66 -9 66 -67q0 -47 -29 -103q-18 -35 -305 -575q-268 -502 -268 -506q0 -10 18 -13q13 -2 37 -1q34 2 30 2q24 0 269 -5q72 2 211 -8q60 -9 60 -55q0 -27 -31 -35q-7 -2 -171 -19q-210 -22 -362 -42q-49 -7 -103 -7
q-79 0 -95 4q-38 10 -74 56q-29 37 -29 78q0 33 305.5 583.5t305.5 570.5q0 16 -39 19q-57 5 -150 5v0q-129 -1 -358 12q-54 8 -68 19q-18 15 -18 62z" />
    <glyph glyph-name="bracketleft" unicode="[" horiz-adv-x="528" 
d="M452 -355q77 0 77 50q0 34 -129 41q-78 9 -78 63v1495q0 55 66 55v0q-2 0 63 -4q38 -3 55 5q23 10 23 41q0 28 -47 36q-154 29 -211 29q-117 0 -117 -129l6 -1583q0 -102 186 -102q23 0 60 1.5t46 1.5z" />
    <glyph glyph-name="backslash" unicode="\" horiz-adv-x="614" 
d="M454 -122q-40 0 -50 16q-8 10 -8 51q0 29 -52 245q-33 133 -65 267q-71 340 -224 1018q-1 5 -10 28q-8 17 -8 30q0 38 48 38h55q70 0 79 -39q-2 9 -2 -39q0 2 31 -152l76 -372q80 -383 221 -975q3 -14 3 -27q0 -54 -32 -67q-50 -22 -62 -22z" />
    <glyph glyph-name="bracketright" unicode="]" horiz-adv-x="528" 
d="M83 -355q-77 0 -77 50q0 34 129 41q78 9 78 63v1495q0 55 -66 55v0q2 0 -63 -4q-38 -3 -55 5q-23 10 -23 41q0 28 47 36q154 29 211 29q117 0 117 -129l-6 -1583q0 -102 -186 -102q-23 0 -60 1.5t-46 1.5z" />
    <glyph glyph-name="asciicircum" unicode="^" horiz-adv-x="1024" 
d="M98 993v94q150 118 216 197q81 97 145 252h104q68 -157 146 -251q68 -82 215 -198v-94q-237 92 -412 269q-111 -112 -189 -162.5t-225 -106.5z" />
    <glyph glyph-name="underscore" unicode="_" horiz-adv-x="1024" 
d="M1024 -154v-102h-1024v102h1024z" />
    <glyph glyph-name="grave" unicode="`" horiz-adv-x="475" 
d="M8 1262q0 38 111 38q17 0 22 -6q164 -188 301 -270q19 -11 19 -12q0 -10 -46.5 -36t-60.5 -26q-19 0 -28 6q-74 51 -180 145q-138 122 -138 161z" />
    <glyph glyph-name="a" unicode="a" horiz-adv-x="807" 
d="M206 493q-34 0 -64 22q-33 25 -33 56q0 157 55 242q62 97 140 97q17 0 49 -7.5t48 -7.5q10 0 29 1t26 1q28 0 49 -14q26 -16 40 -19q157 -34 157 -239q0 -61 -6 -182.5t-6 -182.5v-136q0 -28 5.5 -84t5.5 -83q0 -51 -42 -51q-17 0 -51 1h-50q-54 0 -54 24q0 9 15.5 31.5
t15.5 41.5q0 18 -3 29q-80 -6 -138 -6q-116 0 -158 7q-82 15 -138 70q-10 3 -28 23q-15 31 -15 61q0 114 168 205q57 31 164 31q52 0 145 -25q-3 123 -7 247q-21 173 -113 173q-86 0 -111 -109q-12 -50 -12 -175q0 -18 -33 -32q-26 -10 -50 -10zM539 315l-42 1
q-125 3 -200 -46q-24 -15 -47 -47q-25 -36 -25 -61q0 -55 183 -55q73 0 133 14z" />
    <glyph glyph-name="b" unicode="b" horiz-adv-x="774" 
d="M67 1247q0 25 78 25q6 0 18 -4t19 -4h58q40 0 40 -41q0 -174 -14 -443q67 31 111 31q86 0 149 -27q166 -71 166 -383q0 -288 -154 -362q-44 -21 -199 -21q-16 0 -84 15q1 -7 7 -31t6 -27q0 -38 -70 -38q-138 0 -138 36q0 15 9.5 53t9.5 56q8 195 9 530v285q0 267 -9 320
q0 5 -6 13.5t-6 16.5zM398 740q-104 0 -134 -187q-12 -75 -12 -267q0 -28 -1.5 -82t-1.5 -81q0 -44 66 -44q197 0 197 316q0 345 -114 345z" />
    <glyph glyph-name="c" unicode="c" horiz-adv-x="752" 
d="M69 355q0 244 83 466q26 72 158 72q105 0 203 -41q123 -52 134 -139q19 -151 19 -201q0 -52 -9.5 -60t-60.5 -8q-7 0 -19.5 -2t-19.5 -2q-75 0 -75 116q0 14 1 38.5t1 33.5q0 165 -70 165q-41 0 -101 -93q-30 -46 -54 -182q-21 -120 -21 -192q0 -94 28 -164
q39 -94 119 -94q71 0 155.5 64.5t100.5 64.5q17 0 43 -13q31 -14 31 -28q0 -16 -49 -62q-105 -96 -256 -96q-182 0 -263 89q-78 85 -78 268z" />
    <glyph glyph-name="d" unicode="d" horiz-adv-x="817" 
d="M63 259q0 149 49 304q58 183 156 260q29 23 41 23q68 0 248 -41q1 90 0 235q-2 183 -2 236q0 35 61 35q13 0 34 -10.5t30 -12.5q36 -4 71 -8q44 -11 44 -48q0 -6 -8.5 -20t-10.5 -18q-10 -31 -14 -96q-47 -688 -47 -900q0 -163 6 -270q0 -10 6.5 -30.5t6.5 -30.5
q0 -12 -38 -25q-32 -10 -49 -10q-7 0 -19.5 4t-19.5 4q-4 0 -13.5 -1.5t-13.5 -1.5q-35 0 -38 59q-1 6 4 86q-124 -16 -223 -16q-3 0 -99 18q-162 30 -162 275zM551 576q0 54 -22 94q-27 49 -76 49q-112 0 -177 -204q-49 -153 -49 -298q0 -174 131 -174q75 0 189 57v167
q0 51 2 154.5t2 154.5z" />
    <glyph glyph-name="e" unicode="e" horiz-adv-x="748" 
d="M63 303q0 193 119 453q3 11 13 32q6 8 50.5 25t55.5 17q12 0 32.5 -5t28.5 -6q54 -3 108 -7q68 -8 97 -38q94 -96 94 -372q0 -102 -1 -106q-8 -71 -54 -71q-264 0 -383 -4q-1 -94 38 -156q46 -73 134 -73q61 0 153.5 55t115.5 55q18 0 44 -9q31 -12 31 -27q0 -25 -89 -75
q-73 -42 -111 -54q-28 -10 -67 -10q-20 0 -53 2q-40 3 -52 3q-126 5 -174 26q-72 34 -101 138.5t-29 206.5zM225 295l38 -1q101 -1 241 15q14 80 14 154q0 270 -92 270q-66 0 -126 -117q-42 -84 -62 -176q-13 -56 -13 -145z" />
    <glyph glyph-name="f" unicode="f" horiz-adv-x="547" 
d="M156 709l-1 69q-2 172 5 215q16 120 92 185q41 35 71 35q56 0 131 -37q72 -35 113 -78q45 -48 45 -60q0 -27 -33 -27q-18 0 -55 32t-71 32q-125 0 -125 -356q75 4 123 4q138 0 151 -41q1 -3 6.5 -10t5.5 -13q0 -32 -168 -32q-55 0 -122 6q-9 -232 -9 -421q0 -137 7 -208
q0 -10 6 -32t6 -33q0 -18 -34 -18q-12 0 -35.5 4.5t-35.5 4.5q-13 0 -38.5 -7t-36.5 -7q-8 0 -15 6q-24 11 -24 23q0 10 5.5 29.5t6.5 27.5q27 271 27 619q-64 -3 -103 -3q-51 0 -51 68q0 16 20 16q68 0 136 7z" />
    <glyph glyph-name="g" unicode="g" horiz-adv-x="889" 
d="M299 195q-180 22 -180 215q0 283 143 442q21 23 53 23q40 0 111 -17q78 -18 113 -20q11 4 136 58q116 50 120 50q19 0 54.5 -24t35.5 -41q0 -34 -211 -133q67 -123 67 -230q0 -249 -176 -325q-56 -19 -166 -68q-106 -60 -106 -82q0 -19 67 -29l232 -28q173 -26 267 -71
q128 -62 128 -163q0 -86 -151 -139q-117 -41 -226 -41q-276 0 -450 43q-87 21 -116 36q-61 32 -62 91l-1 11q-2 97 240 208q-100 28 -100 90q0 111 178 144zM586 547q0 75 -21 135q-29 84 -90 84q-82 0 -148 -133q-57 -115 -57 -207q0 -80 32 -132q38 -65 112 -65
q172 0 172 318zM811 -240q0 44 -185 104q-167 54 -233 54q-50 0 -145 -60q-101 -63 -101 -108q0 -106 279 -106q90 0 215 25q170 35 170 91z" />
    <glyph glyph-name="h" unicode="h" horiz-adv-x="889" 
d="M150 1136q0 16 -3.5 47t-3.5 46q0 33 68 33q40 0 88 -5q23 -1 69 -20q54 -21 54 -37l-24.5 -26t-37.5 -78q-37 -153 -55 -357q41 33 92 33q19 0 107 -18q246 -52 262 -176q6 -48 6 -138q0 -58 -8 -178t-8 -182q0 -64 6 -96q1 -5 6.5 -16t5.5 -15q0 -21 -26 -21
q-9 0 -29 5.5t-31 5.5q-5 0 -16.5 -4.5t-18.5 -4.5q-84 0 -84 34q0 5 2 16q31 147 31 424q0 15 1 48t1 50q0 174 -139 174q-58 0 -114 -45t-62 -103q-10 -90 -10 -256q0 -48 5 -146t5 -147q0 -16 -16 -29t-33 -13q-15 0 -45 2t-45 2q-82 0 -82 39q0 7 7.5 16.5t8.5 13.5
q9 29 12 74q54 694 54 1048z" />
    <glyph glyph-name="i" unicode="i" horiz-adv-x="436" 
d="M148 557q0 136 -15 221q-4 23 -4 27q0 15 20 26t36 11q14 0 34 -5q24 -5 33 -6q35 -3 71 -6q52 -9 52 -34q0 -11 -12.5 -22.5t-14.5 -18.5q-11 -38 -23 -170q-30 -351 -30 -493q0 -30 9 -56t9 -25q0 -32 -92 -32q-123 0 -123 38q0 8 5 22.5t5 20.5q40 275 40 502z
M98 1061q0 52 37.5 97.5t87.5 45.5q37 0 75 -26q42 -29 42 -63q0 -63 -29 -111q-35 -56 -95 -56q-43 0 -80.5 34.5t-37.5 78.5z" />
    <glyph glyph-name="j" unicode="j" horiz-adv-x="424" 
d="M139 597q0 170 -7 214q-1 5 -8 13.5t-7 15.5q0 13 24 24q20 9 36 9q142 0 163 -21q13 -12 13 -31q0 -8 -7.5 -21t-9.5 -18q-9 -33 -14 -168q-15 -409 -15 -598q0 -199 7 -303q4 -53 4 -39q0 -45 -67 -45q-8 0 -24.5 5.5t-25.5 5.5t-26.5 -5.5t-26.5 -5.5q-33 0 -33 45
q0 13 4 37.5t4 36.5q16 476 16 849zM119 1061q0 52 37.5 97.5t87.5 45.5q37 0 75 -26q42 -29 42 -63q0 -63 -29 -111q-35 -56 -95 -56q-43 0 -80.5 34.5t-37.5 78.5z" />
    <glyph glyph-name="k" unicode="k" horiz-adv-x="788" 
d="M84 1229q0 29 49 29l154 1q47 0 47 -34q0 -6 -8 -12t-9 -11q-22 -118 -32 -438q-4 -132 -4 -266q41 72 157 207q108 124 180 190q19 16 58 16q10 0 32 -7.5t38 -7.5q34 0 34 -31q0 -11 -20 -29q-85 -76 -182 -183q-134 -148 -134 -197q0 -54 108 -190q102 -128 159 -162
q30 -18 57 -24q13 -2 27.5 -4t14.5 -16q0 -26 -76 -49q-64 -19 -99 -19q-61 0 -197 153q-98 111 -166 213q1 -112 11 -335q0 -11 6 -34t6 -34q0 -19 -31 -19q-11 0 -31.5 5.5t-29.5 5.5q-10 0 -29 -3.5t-29 -3.5q-50 0 -49 42v8q3 84 18 305q13 193 13 306q0 -6 -18 480
q-1 25 -13 80t-12 68z" />
    <glyph glyph-name="l" unicode="l" horiz-adv-x="438" 
d="M147 805q0 63 -7 189.5t-7 189.5q0 48 30 48q11 0 60.5 -15.5t89.5 -15.5q57 0 57 -40q0 -10 -17.5 -42.5t-18.5 -47.5q-30 -317 -30 -655q0 -60 1.5 -178t1.5 -177q0 -9 7.5 -26t7.5 -27q0 -39 -42 -39q-180 0 -180 47q0 8 6 21.5t6 19.5q35 268 35 748z" />
    <glyph glyph-name="m" unicode="m" horiz-adv-x="1378" 
d="M125 679q0 133 -2 181q-1 17 -11 29.5t-10 17.5q0 23 54 26q-26 -1 71 -1q10 0 28.5 4t28.5 4q18 0 41 -13t23 -30q0 -7 -8 -13q-11 -9 -12 -12q-10 -17 -19 -71q85 20 146 20q177 0 245 -80q103 84 230 84q68 0 121 -10q172 -34 213 -170q12 -42 12 -65
q0 -46 -4.5 -138.5t-4.5 -139.5q0 -174 5 -245q0 -7 5.5 -22.5t5.5 -24.5q0 -44 -33 -44q-8 0 -24 4.5t-24 4.5q-9 0 -27.5 -4t-27.5 -4q-22 0 -52 8q-38 10 -38 25q0 6 9.5 11.5t10.5 8.5q30 81 30 516q0 86 -29 145q-39 77 -117 77q-45 0 -104 -53q-53 -49 -71 -95
q-36 -97 -36 -315q0 -144 16 -217q1 -5 7 -18t6 -20q0 -22 -38 -22q-7 0 -20.5 4.5t-20.5 4.5q-10 0 -29 -4.5t-29 -4.5q-70 0 -70 100q0 72 12 228.5t12 234.5q0 177 -91 177q-143 0 -187 -162q-21 -79 -21 -277q0 -149 18 -219q17 -61 17 -47q0 -27 -44 -27
q-9 0 -24.5 5.5t-23.5 5.5q-10 0 -28 -2.5t-27 -2.5q-85 0 -85 31q0 13 5 34q5 25 6 34q14 159 14 357v191z" />
    <glyph glyph-name="n" unicode="n" horiz-adv-x="897" 
d="M122 657q0 174 -3 201q-1 4 -4.5 11t-3.5 12q0 10 6 13t16 1l14 -2q6 0 17 3t16 3q158 0 158 -47q0 -6 -21 -37t-21 -55q0 -6 3 -17q98 46 261 46q227 0 227 -272q0 -80 -4.5 -241t-4.5 -241q0 -9 7.5 -26.5t7.5 -23.5q0 -14 -23 -14q-13 0 -40.5 -6t-41.5 -6q-4 0 -12 2
t-12 2q-38 0 -46 3q-19 7 -19 39l1 11q23 264 23 308q0 92 -15 292q-8 105 -99 105q-121 0 -183 -120q-49 -94 -49 -227q0 -271 12 -327q1 -4 4.5 -9.5t3.5 -10.5q0 -17 -64 -17q-7 0 -22 5t-23 5q-7 0 -21 -3t-22 -3q-13 0 -32 9q-23 9 -23 20q0 3 5 8.5t5 9.5
q22 146 22 596z" />
    <glyph glyph-name="o" unicode="o" horiz-adv-x="795" 
d="M63 307q0 295 123 496q10 19 31 49q62 25 73 25q20 0 56.5 -10.5t52.5 -12.5q49 -3 148 -27q117 -50 157 -218q23 -97 23 -285q0 -100 -35 -203q-42 -126 -112 -164q-50 -27 -123 -27q-18 0 -48.5 11t-46.5 12q-37 1 -110 14q-113 37 -156 133q-33 72 -33 207zM554 474
q0 274 -146 274q-87 0 -132 -181q-30 -123 -30 -248q0 -305 129 -305q103 0 149 189q30 122 30 271z" />
    <glyph glyph-name="p" unicode="p" horiz-adv-x="782" 
d="M130 749q0 37 -6 110.5t-6 110.5q0 23 17 27q57 15 137 15q74 0 74 -72q0 -10 -8.5 -26t-9.5 -23q-4 -37 -19 -111q53 19 86 19q10 0 111 -23q31 -5 92 -26q67 -36 101 -158q26 -93 26 -195q0 -151 -65 -261q-78 -132 -220 -132q-53 0 -151 39q4 -231 16 -348
q1 -30 4 -90q1 -7 8 -20.5t7 -22.5q0 -35 -41 -35q-9 0 -21.5 9.5t-27.5 9.5q-8 0 -24 -2.5t-24 -2.5q-82 0 -82 61v9q2 169 15 569q11 366 11 569zM412 725q-92 0 -117 -196q-7 -62 -7 -264q0 -114 -1 -88q2 -62 22.5 -72.5t45.5 -10.5q192 0 192 342q0 289 -135 289z" />
    <glyph glyph-name="q" unicode="q" horiz-adv-x="825" 
d="M78 472q0 325 305 325q28 0 147 -29l1 19q1 24 -15 51.5t-16 33.5q0 32 70 32q15 0 46 -3t46 -3q96 0 96 -46q0 2 -20.5 -31.5t-22.5 -64.5q-39 -648 -39 -1008q0 -140 2 -174q1 -15 27 -63q0 -24 -44 -24q-8 0 -22.5 2.5t-22.5 2.5q-13 0 -41 -2t-42 -2q-54 0 -54 37
q0 5 7 21.5t8 25.5q6 129 10 438q-62 -4 -103 -4q-177 0 -227 68q-96 130 -96 398zM446 717q-108 0 -159 -112q-39 -83 -39 -206q0 -315 139 -315t139 307q0 46 4.5 138.5t4.5 138.5q0 20 -36 36q-29 13 -53 13z" />
    <glyph glyph-name="r" unicode="r" horiz-adv-x="559" 
d="M130 626q0 112 -11 173q-1 4 -7 13t-6 15q0 28 32 28q8 0 23.5 -2.5t22.5 -2.5q11 0 32 1.5t31 1.5q111 0 111 -48l-28.5 -34t-28.5 -71q27 6 44 5h11q68 -4 160 -89q57 -52 57 -71q0 -16 -38.5 -34.5t-57.5 -18.5q-48 0 -63 24q-1 1 -23 68q-106 -24 -106 -142v-387
q0 -10 7 -29.5t7 -29.5q0 -49 -46 -49q-171 0 -171 54q0 7 3.5 21t4.5 19q40 308 40 585z" />
    <glyph glyph-name="s" unicode="s" horiz-adv-x="715" 
d="M86 493q0 100 23 192q31 120 90 167q11 2 34 8q6 2 13 12q5 7 21 7q27 0 71 -12q52 -13 72 -15q8 -1 24.5 0.5t21.5 1.5q10 0 21 -2q162 -35 162 -190q0 -179 -47 -197q-13 -5 -31 -5q-30 0 -64 19q-39 22 -39 50q0 14 3 43.5t3 44.5q0 153 -54 153q-58 0 -106 -89
q-44 -79 -43 -146l1 -62q2 -100 101 -152l184 -70q99 -42 99 -119q0 -150 -302 -150q-132 0 -250 20q-49 9 -49 57q0 64 56 64q22 0 96 -32t129 -32q145 0 145 66q0 37 -100 71q-135 46 -185 84q-100 75 -100 213z" />
    <glyph glyph-name="t" unicode="t" horiz-adv-x="535" 
d="M168 748q-90 -11 -94 -11q-19 0 -35 28q-13 24 -13 45q0 20 65 29q41 3 83 7v207q0 13 -12.5 39t-12.5 29q0 30 21 30q3 0 9 -3t9 -3q4 0 10.5 2t10.5 2q14 0 42 -8t42 -8q5 0 16 1t17 1q53 0 53 -29q0 -12 -9.5 -32.5t-11.5 -31.5q-7 -69 -14 -180q131 4 162 4
q43 0 43 -57q0 -5 2 -13t2 -12l-4 -10q-19 -14 -211 -14q-13 -317 -13 -564q0 -121 11 -151q12 -34 12 -27q0 -26 -160 -26q-17 0 -39 11t-22 27q7 26 16 70q25 354 25 648z" />
    <glyph glyph-name="u" unicode="u" horiz-adv-x="883" 
d="M104 231q0 87 3.5 261.5t3.5 261.5q0 5 -5.5 15.5t-5.5 14.5q0 35 64 35q16 0 49 -3t50 -3q9 0 25 4.5t24 4.5q2 0 11 -12t9 -15q0 -12 -7.5 -24t-9.5 -19q-45 -220 -45 -495q0 -169 112 -169q94 0 206 76v244q0 288 -4 340q-1 6 -6.5 17.5t-5.5 17.5q0 30 55 30
q38 0 107 -18q85 -22 85 -47q0 -11 -22.5 -36.5t-24.5 -45.5q-8 -98 -8 -311v-121q0 -43 3 -126.5t3 -125.5q0 -20 15.5 -44l15.5 -24q0 -31 -68 -31q-164 0 -164 47q0 16 4.5 47.5t4.5 47.5q-98 -37 -168 -37q-133 0 -213 54q-93 64 -93 189z" />
    <glyph glyph-name="v" unicode="v" horiz-adv-x="672" 
d="M22 785q0 30 125 30q34 0 62 -15q35 -18 35 -48q0 -8 -4.5 -25t-4.5 -25q0 -177 103 -567h8q60 345 113 537q29 105 33 157q0 6 -2 16t-2 14q0 29 32 29q7 0 20.5 -4.5t20.5 -4.5q29 0 58 -12q36 -15 36 -40q0 -19 -13 -43q-18 -31 -21 -41q-137 -420 -137 -709
q0 -35 -29 -35q-4 0 -12.5 2.5t-12.5 2.5q-5 0 -14 -4t-15 -4q-7 0 -20 6t-21 6t-23.5 -4t-23.5 -4q-11 0 -35 3.5t-36 3.5q-31 0 -31 28q0 34 -12 83q-10 42 -21 83q-37 177 -149 553q-7 22 -7 31z" />
    <glyph glyph-name="w" unicode="w" horiz-adv-x="997" 
d="M33 811q0 11 28.5 25t41.5 14q11 0 38 -2.5t41 -2.5q87 0 87 -44q0 -7 -11.5 -45t-11.5 -68q0 -293 18 -477h6q23 103 70 309q27 115 27 123t9.5 24.5t17.5 16.5q14 0 43.5 -6t43.5 -6q12 0 34.5 4t33.5 4q25 0 30 -15q1 -4 1 -36q0 -86 125 -523h6q83 731 96 748.5
t67 17.5q7 0 18.5 -4.5t16.5 -5.5q81 -8 81 -55q0 -14 -7 -21q-10 -10 -12 -14q-27 -59 -72 -299q-35 -241 -72 -485q-10 -15 -84 -15q-7 0 -20 5.5t-21 5.5q-9 0 -27 -3.5t-28 -3.5q-50 0 -59 14q-6 11 -6 28t-17 55q-25 58 -49 170q-5 23 -43 258h-6l-88 -410
q-2 -8 -2 -15q0 -8 3 -24t3 -22q0 -12 -46 -24q-39 -9 -58 -9q-10 0 -29 3t-29 3q-43 0 -51 2q-26 6 -29 35q-27 261 -51 451q-8 99 -41 290q-1 5 -8.5 13.5t-7.5 15.5z" />
    <glyph glyph-name="x" unicode="x" horiz-adv-x="741" 
d="M254 422q-52 96 -158 289q-14 25 -14 18q0 20 68 37q55 13 87 13q23 0 55 -84q40 -105 52 -122q58 86 199 279q30 7 56 7q7 0 60.5 -20.5t57.5 -25.5t4 -11q0 -13 -10 -18q-19 -10 -21 -12q-49 -45 -135 -170q-127 -185 -129 -188q152 -241 262 -330q29 -23 29 -29
q0 -31 -111 -39q-10 0 -31.5 -7.5t-32.5 -7.5q-21 0 -206 273q-86 -137 -133 -276q2 8 2 -35q0 -10 -23 -10q-4 0 -12 -3t-12 -3q-8 0 -16 11t-15 11q-5 0 -13 -5t-18 -5q-16 0 -40 9q-28 12 -28 24q0 17 99 202q89 166 127 228z" />
    <glyph glyph-name="y" unicode="y" horiz-adv-x="870" 
d="M101 619q0 99 -3 122q0 4 -2.5 11t-2.5 11q0 34 67 34q10 4 16 4q-12 0 27 -8h65q44 0 44 -55q0 -8 -12.5 -26.5t-14.5 -27.5q-9 -44 -9 -124q0 -231 17 -394q8 -81 101 -81q73 0 194 69q0 286 -15 483q-3 45 -20 135q-12 39 -12 35q0 25 21 25q5 0 15.5 -3.5t17.5 -3.5
q12 0 35.5 3t35.5 3q11 0 34 -2t35 -2q37 0 37 -36q0 -11 -12 -30t-12 -30q0 -196 8 -414q1 -30 8 -155q6 -95 6 -155q0 -368 -299 -368q-59 0 -179 19q-123 19 -177 37q-27 9 -27 36q0 21 19 37.5t40 16.5q11 0 93.5 -24.5t132.5 -24.5q79 0 138 29q75 37 75 108
q0 19 1 57.5t1 57.5q0 6 -1 19t-1 20q-98 -37 -171 -37q-116 0 -199 49q-97 57 -107 164q-8 78 -8 416z" />
    <glyph glyph-name="z" unicode="z" horiz-adv-x="743" 
d="M73 734q0 12 12.5 25t24.5 13q19 0 59.5 -5.5t60.5 -5.5q50 0 149.5 6.5t148.5 6.5q32 0 81 -22.5t67 -46.5q0 -1 15 -14q9 -9 9 -17q0 -2 -26 -35q-197 -245 -400 -549q309 33 351 33q25 0 45 -31q18 -27 18 -55q0 -33 -52 -33q-32 0 -97.5 5t-98.5 5q-53 0 -160 -10
t-160 -10q-26 0 -47.5 24.5t-21.5 50.5q0 16 8 27q141 194 424 557q-74 11 -120 11q-24 0 -62 -3q-49 -3 -61 -4q-21 0 -63 -15.5t-47 -15.5q-28 0 -45 42q-12 31 -12 66z" />
    <glyph glyph-name="braceleft" unicode="{" horiz-adv-x="909" 
d="M199 466q99 -36 137 -84.5t45 -150.5q7 -73 6 -141v-188q1 -180 39 -252q58 -109 215 -119q43 -3 124 -3v156l-57 4q-94 7 -118 65q-15 38 -16 144v193q0 116 -13 201q-8 62 -41 127q-26 54 -63 92l-36 33v0q115 102 141 267q13 70 12 170v180v110q5 66 28.5 95t89.5 38
l73 6v156q-169 -4 -241 -40q-111 -54 -129 -199q-8 -69 -8 -174v-171q-1 -140 -25 -222q-27 -95 -163 -137v-156v0z" />
    <glyph glyph-name="bar" unicode="|" horiz-adv-x="1024" 
d="M563 1536v-2048h-104v2048h104z" />
    <glyph glyph-name="braceright" unicode="}" horiz-adv-x="909" 
d="M711 466q-99 -36 -137 -84.5t-45 -150.5q-7 -73 -6 -141v-188q-1 -180 -39 -252q-58 -109 -215 -119q-43 -3 -124 -3v156l57 4q94 7 118 65q15 38 16 144v193q0 116 13 201q8 62 41 127q26 54 63 92l36 33v0q-115 102 -141 267q-13 70 -12 170v180v110q-5 66 -28.5 95
t-89.5 38l-73 6v156q169 -4 241 -40q111 -54 129 -199q8 -69 8 -174v-171q1 -140 25 -222q27 -95 163 -137v-156v0z" />
    <glyph glyph-name="asciitilde" unicode="~" horiz-adv-x="2048" 
d="M416 527q115 202 331 203q102 -2 276 -66l124 -45q103 -37 177 -36q100 1 195 90l22 21l107 -89q-142 -171 -336 -171q-90 -1 -166 32l-133 56q-148 59 -241 59q-162 1 -250 -160l-123 75z" />
    <glyph glyph-name="nonbreakingspace" unicode="&#xa0;" horiz-adv-x="492" 
 />
    <glyph glyph-name="exclamdown" unicode="&#xa1;" horiz-adv-x="547" 
d="M410 891q0 -332 -11 -619q-1 -33 -8 -155q-6 -97 -6 -156q0 -7 9.5 -18.5t9.5 -25.5q0 -54 -46 -54q-34 0 -143 27q-71 17 -73 18q-46 17 -46 51q0 16 16 32q22 22 25 28q24 41 33 151q17 195 33 484q12 217 12 208q0 17 -8 47t-8 45q0 31 67 31q-7 0 49 -14
q95 -24 95 -80zM409 1322q0 -138 -42 -165q-16 -2 -46 -10q-1 0 -29 -15q-13 -7 -36 -7q-29 0 -43 14q-19 19 -23 20q-11 3 -32 13l-21 39q-26 49 -26 92q0 44 69 94l23 23t29 12q9 0 30.5 -3t32.5 -3q26 0 70 -37t44 -67z" />
    <glyph glyph-name="cent" unicode="&#xa2;" horiz-adv-x="778" 
d="M348 416q-123 8 -196.5 86t-73.5 201q0 196 88 458q27 80 155 80q16 0 29 -2v238q0 61 46 60l18 -1q24 -1 24 -31v-276q148 -43 191 -96q46 -57 46 -207q0 -42 -5 -55q-10 -23 -46 -23q-5 0 -15.5 3t-16.5 3q-5 0 -15.5 -1.5t-15.5 -1.5q-43 0 -56 34q-6 18 -6 68
q0 91 -8 120q-18 68 -83 68q-76 0 -127 -166q-39 -129 -39 -225q0 -99 27 -167q39 -96 122 -96q65 0 146.5 69t93.5 69q78 0 78 -40q0 -4 -2 -10q-28 -64 -116 -112q-81 -44 -157 -47q-6 -108 -6 -287q0 -49 -27 -49q-43 0 -52 148q-1 10 -1 188z" />
    <glyph glyph-name="sterling" unicode="&#xa3;" 
d="M118 516q0 42 36 49q96 13 286 39q-13 84 -13 150q0 150 73 312q88 198 219 198q67 0 176 -45q124 -52 124 -108q0 -75 -71 -75q-21 0 -57.5 24.5t-61.5 24.5q-102 0 -170 -104q-60 -92 -61 -201v-170l41 1q209 2 209 -62q0 -6 -4 -15.5t-4 -15.5q0 -4 2 -12.5t2 -13.5
q0 -18 -71 -19q-45 2 -90 3l-85 -1q3 -55 3 -105q0 -74 -17 -173q73 -11 118 -25q14 -4 170 -67q112 -46 168 -46q40 0 71 36t40 36q27 0 27 -42q0 -47 -48 -113q-52 -70 -98 -70q-101 0 -273.5 63.5t-252.5 63.5q-39 -29 -79.5 -58.5t-121.5 -29.5q-75 0 -127 45
q-59 51 -59 71q0 15 14 25q60 43 149 62l158 26q23 76 23 145q0 58 -6 152q-198 -23 -278 -23q-21 0 -25 5q-2 1 -4 9.5t-7 8.5q-25 0 -25 45z" />
    <glyph glyph-name="currency" unicode="&#xa4;" horiz-adv-x="1063" 
d="M92 1219l136 -137v0l47 33q46 29 111 46.5t129 17.5q62 0 127 -17.5t112 -46.5l47 -33v0l136 137l65 -65l-138 -137v0l24 -33q71 -106 72 -247q-2 -155 -75 -259l-21 -28v0l137 -138l-63 -62l-137 136v0l-40 -27q-114 -70 -247 -71q-131 0 -245 71l-41 27v0l-137 -136
l-63 62l137 138v0l-21 28q-74 104 -75 260q0 135 73 246l23 33v0l-138 137zM168 732q1 -146 102 -245t244 -100q142 0 244 101t103 245q-1 143 -102.5 244.5t-244.5 102.5q-205 -2 -299 -174q-48 -85 -47 -174z" />
    <glyph glyph-name="yen" unicode="&#xa5;" horiz-adv-x="1245" 
d="M406 627h-10q-30 1 -83 -3q-58 -3 -83 -3q-29 0 -52 26.5t-23 57.5t61 35l86 -2l57 1q-94 196 -299 576q-2 3 -20 21q-15 15 -15 24q0 11 15.5 24t27.5 13q134 0 177 -82q177 -337 333 -676l7 2q174 338 442 772q13 21 30 21q13 0 82 -29.5t78 -38.5q13 -12 13 -31
q0 -9 -36 -35q-40 -30 -46 -40q-148 -227 -309 -517q22 0 67 -1t68 -1q16 0 28.5 -20t12.5 -37q0 -61 -43 -61q-121 0 -185 12q-24 -43 -75 -150q42 0 130 -1t132 -1q16 0 28.5 -20t12.5 -37q0 -61 -43 -61q-47 0 -141 6t-140 6q-4 -127 -4 -136q0 -92 10 -175
q13 -99 13 -78q0 -25 -126 -25q-90 0 -90 66q0 28 3.5 84t3.5 84q0 51 -9 172h-13q-45 1 -124 -3q-89 -4 -125 -4q-29 0 -52 27t-23 57q0 35 45 35l190 -1q53 0 88 1q-23 49 -72 146z" />
    <glyph glyph-name="brokenbar" unicode="&#xa6;" horiz-adv-x="1024" 
d="M563 1536v-2048h-104v2048h104zM563 1536v-2048h-104v2048h104z" />
    <glyph glyph-name="section" unicode="&#xa7;" horiz-adv-x="958" 
d="M885 586q0 -57 -27 -127q-29 -76 -70 -107q-29 -22 -151 -59q88 -52 119 -98q37 -53 37 -150q0 -141 -116 -222q-101 -71 -249 -71q-258 0 -379 144q-16 18 -16 32q0 19 14.5 35.5t32.5 16.5q36 0 108.5 -65t167.5 -65q99 0 166 47q76 53 76 148q0 128 -115 176l-184 66
q-113 42 -167 93q-73 68 -73 173q0 281 246 324q-172 68 -172 225q0 125 45 192q21 32 40.5 44.5t41.5 25.5q61 45 201 45q75 0 204 -44q154 -52 154 -112q0 -43 -39 -43q-51 0 -120 54.5t-136 54.5q-85 0 -139 -67q-51 -63 -51 -150q0 -126 143 -175q132 -42 265 -83
q143 -73 143 -258zM694 567q0 209 -286 271q-89 -39 -126 -84q-42 -53 -42 -142q0 -126 91 -194q55 -41 204 -86q159 52 159 235z" />
    <glyph glyph-name="dieresis" unicode="&#xa8;" horiz-adv-x="623" 
d="M12 1083q0 7 11.5 36t16.5 31.5l17 8.5q2 1 12 24q7 16 35 16q152 0 152 -136q0 -39 -11 -56q-9 -13 -44 -34q-47 -28 -55 -28q-1 0 -50 13q-45 13 -51.5 20.5t-17.5 53.5q-15 61 -15 51zM470 1185q10 0 21.5 6.5t18.5 6.5q-1 0 25 -16q71 -46 71 -125q0 -36 -44.5 -69
t-81.5 -33q-38 0 -79 36t-41 72q0 40 17 76q21 44 55 49q-16 -3 38 -3z" />
    <glyph glyph-name="copyright" unicode="&#xa9;" horiz-adv-x="1024" 
d="M79 1286q61 111 173.5 175.5t240.5 64.5t240 -64t176 -176t64 -240q0 -129 -64 -241t-175 -176t-239 -63q-198 -1 -339 138t-141 342q0 124 64 240zM86 1047q-1 -106 55 -205q52 -95 148 -150t205 -55q169 -1 288 120t120 290q-1 168 -120.5 287.5t-287.5 120.5
q-169 -1 -288 -119t-120 -289zM715 867l-18 -16q-82 -66 -179 -66q-113 0 -189.5 81t-76.5 194q-1 109 74.5 191t187.5 83q95 0 173 -59l21 -17l-61 -63l-24 23q-48 39 -108 41q-80 -1 -134.5 -60.5t-53.5 -140.5q-1 -80 52 -139t132 -59q66 -1 115 43l28 27z" />
    <glyph glyph-name="ordfeminine" unicode="&#xaa;" horiz-adv-x="614" 
d="M184 1193q-21 0 -39 13q-21 14 -21 33q0 73 27 130q34 74 99 74q15 0 45.5 -4.5t48 -4.5t30.5 -7q14 -10 23 -12q101 -20 101 -143q0 -38 -4.5 -114t-4.5 -114q0 -29 3.5 -87t3.5 -87q0 -30 -25 -30q-12 0 -42 1h-41l-11 5q-5 4 -5 9q0 2 9.5 22t9.5 41q-57 -5 -94 -5
q-130 0 -180 48q-27 25 -27 49q0 67 107 123q35 18 102 18q35 0 92 -14q-3 74 -5 149q-12 103 -72 103q-76 0 -76 -164q0 -32 -54 -32zM395 1085l-26 1q-57 1 -106 -18q-66 -25 -66 -75q0 -31 115 -31q45 0 83 7v116z" />
    <glyph glyph-name="guillemotleft" unicode="&#xab;" horiz-adv-x="696" 
d="M61 463q0 4 11 12q64 56 128 111q108 94 115 94q21 0 35 -34q11 -27 11 -51t-13 -34q-137 -108 -137 -119q0 -4 154 -163q10 -4 10 -11q0 -9 -31 -35t-41 -26q-26 0 -134 115t-108 141zM305 436q0 12 10 21q235 209 258 209q46 0 46 -95q0 -12 -7 -18q-11 -11 -77 -56
q-49 -34 -70 -65q3 -16 77 -67q67 -46 95 -58l6 -12l-6 -12q-2 -2 -29 -36q-22 -26 -30 -26q-30 0 -151.5 95t-121.5 120z" />
    <glyph glyph-name="logicalnot" unicode="&#xac;" 
d="M160 555v129h903v-510h-129v381h-774z" />
    <glyph glyph-name="sfthyphen" unicode="&#xad;" horiz-adv-x="547" 
d="M72 437q0 24 24 24q14 0 44 -4t46 -4q39 0 118 7t118 7q25 0 43 -57q15 -47 15 -81q0 -29 -19 -29q-7 0 -17.5 7.5t-17.5 7.5q-21 0 -133 -10q-19 -2 -85 -13q-56 -9 -81 -9t-42 66q-13 52 -13 88z" />
    <glyph glyph-name="registered" unicode="&#xae;" horiz-adv-x="1024" 
d="M79 1286q61 111 173.5 175.5t240.5 64.5t240 -64t176 -176t64 -240q0 -129 -64 -241t-175 -176t-239 -63q-198 -1 -339 138t-141 342q0 124 64 240zM86 1047q-1 -106 55 -205q52 -95 148 -150t205 -55q169 -1 288 120t120 290q-1 168 -120.5 287.5t-287.5 120.5
q-169 -1 -288 -119t-120 -289zM334 1311h170q160 -6 160 -146q-2 -82 -57 -118l-27 -15l90 -224h-96l-80 207h-85v-207h-75v503zM409 1236v-146h99q78 0 81 73q2 72 -81 73h-99z" />
    <glyph glyph-name="overscore" unicode="&#xaf;" horiz-adv-x="1024" 
d="M1024 1894v-102h-1024v102h1024z" />
    <glyph glyph-name="degree" unicode="&#xb0;" horiz-adv-x="614" 
d="M27 1175q0 129 65 209q70 87 197 87q121 0 198.5 -79t77.5 -200q0 -111 -71 -183.5t-182 -72.5q-108 0 -193 64q-92 70 -92 175zM307 1356q-66 0 -111.5 -50t-45.5 -116q0 -57 50 -100t107 -43q61 0 103.5 43.5t42.5 104.5t-43 111t-103 50z" />
    <glyph glyph-name="plusminus" unicode="&#xb1;" 
d="M686 -20h-135v385h-385v129h385v385h135v-385h383v-129h-383v-385zM686 -688h-135v385h-385v129h385v385h135v-385h383v-129h-383v-385z" />
    <glyph glyph-name="twosuperior" unicode="&#xb2;" horiz-adv-x="694" 
d="M639 1264q0 -107 -94 -224q-84 -102 -248 -309q-35 -40 -72 -102l8 -8q272 6 248 6q138 0 154 -43q-3 -6 -10 -6q-62 -9 -185 -25q-20 -2 -121 -20q-76 -14 -121 -14q-35 0 -77.5 35t-42.5 69q0 39 110 169q167 197 205 250q111 154 111 251q0 91 -90 91q-77 0 -140 -45
q-87 -63 -87 -182v0q0 -16 3 -55q2 -31 0 -44q-2 -20 -12 -28q-15 -12 -47 -12q-39 0 -48 46q-2 11 -2 78q0 46 3 91q7 92 98 154q82 57 180 57q277 0 277 -180z" />
    <glyph glyph-name="threesuperior" unicode="&#xb3;" horiz-adv-x="694" 
d="M627 1208q0 -212 -230 -321v-6q226 -69 226 -191q0 -170 -283 -170q-58 0 -137 21q-98 26 -117 63q-2 3 -2 9q0 42 33 42q8 0 69.5 -37.5t128.5 -37.5q172 0 172 108q0 61 -56 107q-52 42 -116 45q-42 -3 -109 8q-12 7 -12 27q0 14 47 32q32 12 64 23q183 85 183 305
q0 160 -101 160q-70 0 -116 -59q-42 -54 -42 -126q0 -26 7.5 -76t7.5 -75q0 -29 -35 -29q-7 0 -17.5 5.5t-15.5 6.5q-10 0 -31 5q-34 19 -34 170q0 90 73 163.5t164 73.5q7 0 27 -4q122 -25 178 -70q74 -58 74 -172z" />
    <glyph glyph-name="acute" unicode="&#xb4;" horiz-adv-x="506" 
d="M387 1317q28 0 65 -24t37 -50q0 -14 -177 -148q-181 -137 -212 -137q-23 0 -57.5 30t-34.5 52q0 7 15 7q51 27 174 117q130 95 161 132q17 21 29 21z" />
    <glyph glyph-name="mu" unicode="&#xb5;" horiz-adv-x="1138" 
d="M-107 -296q73 171 102 244q59 148 93 268l27 93l196 673h196l-175 -581q-9 -27 -16 -62q-12 -49 -11 -85q0 -65 47.5 -104t113.5 -38q127 -2 213 138q52 85 91 191q30 82 57 174l108 367h187l-148 -512q-32 -108 -57 -260q-17 -94 -17 -164v-46h-186v19q0 55 3 99l4 48
l-30 -46q-101 -149 -238 -148q-81 0 -128 42q-34 30 -65 119l-173 -471h-212z" />
    <glyph glyph-name="paragraph" unicode="&#xb6;" 
d="M1037 1442h-138v-1768h-79v1768h-99v-1768h-79v897l-63 13q-177 38 -279 156q-110 126 -109 299q-1 112 48 207q110 217 391 263q105 17 220 17h187v-84z" />
    <glyph glyph-name="periodcentered" unicode="&#xb7;" horiz-adv-x="492" 
d="M67 635q0 162 52 194q17 4 51 13q9 3 32 17q15 8 42 8q36 0 52 -14q26 -24 30 -26q13 -3 39 -14q7 -16 22 -47q32 -59 32 -83q0 -78 -81 -136l-26 -26q-15 -15 -31 -15q-8 0 -34 3.5t-43 3.5q-23 0 -73.5 37t-58.5 58q-5 13 -5 27z" />
    <glyph glyph-name="periodcentered" unicode="&#x2219;" horiz-adv-x="492" 
d="M67 635q0 162 52 194q17 4 51 13q9 3 32 17q15 8 42 8q36 0 52 -14q26 -24 30 -26q13 -3 39 -14q7 -16 22 -47q32 -59 32 -83q0 -78 -81 -136l-26 -26q-15 -15 -31 -15q-8 0 -34 3.5t-43 3.5q-23 0 -73.5 37t-58.5 58q-5 13 -5 27z" />
    <glyph glyph-name="cedilla" unicode="&#xb8;" horiz-adv-x="444" 
d="M184 63q54 0 54 -40q0 11 -62 -136l13 1q86 0 156 -29q93 -38 93 -113q0 -93 -131 -158q-110 -55 -213 -55q-31 0 -62 16q-36 19 -36 48q0 9 12 28q16 24 41 26q-19 -1 50 -1q107 0 210 90q-78 43 -133 43q-26 0 -56 -13.5l-30 -13.5q-9 0 -36.5 17t-27.5 25q0 -4 89 218
q19 47 69 47z" />
    <glyph glyph-name="onesuperior" unicode="&#xb9;" horiz-adv-x="610" 
d="M248 1255q-19 -24 -37 -48q-25 -30 -47 -30q-11 0 -29 19q15 22 37 57q26 42 52 107q40 101 44 110q6 13 14 13q-9 0 31 -10q72 -19 72 -54q0 -77 -6 -231.5t-6 -231.5q0 -360 18 -383q-24 -12 -29 -12q10 0 -24 10q-11 4 -28 4v0q-38 1 -46 4q-20 7 -20 40q0 375 4 636z
" />
    <glyph glyph-name="ordmasculine" unicode="&#xba;" horiz-adv-x="614" 
d="M92 1104q0 198 98 328q7 1 24 8q14 7 22 7q12 0 35.5 -7.5t33.5 -7.5q30 -1 92 -15q115 -47 115 -303q0 -95 -38 -159q-46 -76 -134 -76q-11 0 -30.5 5.5t-28.5 6.5q-104 7 -146.5 57t-42.5 156zM402 1205q0 163 -87 163q-58 0 -87 -103q-21 -71 -21 -149q0 -188 82 -188
q64 0 94 112q19 74 19 165z" />
    <glyph glyph-name="guillemotright" unicode="&#xbb;" horiz-adv-x="696" 
d="M637 418q0 -4 -11 -12q-64 -56 -128 -111q-108 -94 -115 -94q-21 0 -35 34q-11 27 -11 51t13 34q137 108 137 119q0 4 -154 163q-10 4 -10 11q0 9 31 35t41 26q26 0 134 -115t108 -141zM393 445q0 -12 -10 -21q-235 -209 -258 -209q-46 0 -46 95q0 12 7 18q11 11 77 56
q49 34 70 65q-3 16 -77 67q-67 46 -95 58l-6 12l6 12q2 2 29 36q22 26 30 26q30 0 151.5 -95t121.5 -120z" />
    <glyph glyph-name="onequarter" unicode="&#xbc;" horiz-adv-x="1659" 
d="M340 1255q-19 -24 -37 -48q-25 -30 -47 -30q-11 0 -29 19q15 22 37 57q26 42 52 107q40 101 44 110q6 13 14 13q-9 0 31 -10q72 -19 72 -54q0 -77 -6 -231.5t-6 -231.5q0 -360 18 -383q-24 -12 -29 -12q10 0 -24 10q-11 4 -28 4v0q-38 1 -46 4q-20 7 -20 40q0 375 4 636z
M1251 1458q0 -6 -11 -20q-14 -18 -16 -21q-57 -117 -173 -350q-89 -176 -312 -600q-84 -165 -260 -481q-20 -33 -60 -33q-17 0 -43.5 28.5t-26.5 45.5q0 13 13 28q20 24 21 25.5t157 289.5q180 332 326 607l134 248q76 145 116 256q1 11 12 30q15 12 35 12q30 0 57 -17
q31 -20 31 -48zM1617 145l-258 -12q1 -19 6 -77q4 -48 4 -76q0 -23 -47 -23q-10 0 -31.5 1t-31.5 1q-23 0 -23 27q2 93 2 141q-204 -14 -250 -14q-4 0 -54 19l-64 24l-7 12q1 7 9 20q102 186 239 465q33 69 101 205q10 19 47 19q139 0 139 -39q0 -3 -6.5 -6t-7.5 -7
q-33 -107 -33 -512q0 -56 4 -118h39q164 1 203 -15q15 -6 20 -35zM1253 709l-265 -519l256 5z" />
    <glyph glyph-name="onehalf" unicode="&#xbd;" horiz-adv-x="1659" 
d="M213 1255q-19 -24 -37 -48q-25 -30 -47 -30q-11 0 -29 19q15 22 37 57q26 42 52 107q40 101 44 110q6 13 14 13q-9 0 31 -10q72 -19 72 -54q0 -77 -6 -231.5t-6 -231.5q0 -360 18 -383q-24 -12 -29 -12q10 0 -24 10q-11 4 -28 4v0q-38 1 -46 4q-20 7 -20 40q0 375 4 636z
M1118 1458q0 -6 -11 -20q-14 -18 -16 -21q-57 -117 -173 -350q-89 -176 -312 -600q-84 -165 -260 -481q-20 -33 -60 -33q-17 0 -43.5 28.5t-26.5 45.5q0 13 13 28q20 24 21 25.5t157 289.5q180 332 326 607l134 248q76 145 116 256q1 11 12 30q15 12 35 12q30 0 57 -17
q31 -20 31 -48zM1466 711q0 -107 -94 -224q-84 -102 -248 -309q-35 -40 -72 -102l8 -8q272 6 248 6q138 0 154 -43q-3 -6 -10 -6q-62 -9 -185 -25q-20 -2 -121 -20q-76 -14 -121 -14q-35 0 -77.5 35t-42.5 69q0 39 110 169q167 197 205 250q111 154 111 251q0 91 -90 91
q-77 0 -140 -45q-87 -63 -87 -182v0q0 -16 3 -55q2 -31 0 -44q-2 -20 -12 -28q-15 -12 -47 -12q-39 0 -48 46q-2 11 -2 78q0 46 3 91q7 92 98 154q82 57 180 57q277 0 277 -180z" />
    <glyph glyph-name="threequarters" unicode="&#xbe;" horiz-adv-x="1659" 
d="M623 1208q0 -212 -230 -321v-6q226 -69 226 -191q0 -170 -283 -170q-58 0 -137 21q-98 26 -117 63q-2 3 -2 9q0 42 33 42q8 0 69.5 -37.5t128.5 -37.5q172 0 172 108q0 61 -56 107q-52 42 -116 45q-42 -3 -109 8q-12 7 -12 27q0 14 47 32q32 12 64 23q183 85 183 305
q0 160 -101 160q-70 0 -116 -59q-42 -54 -42 -126q0 -26 7.5 -76t7.5 -75q0 -29 -35 -29q-7 0 -17.5 5.5t-15.5 6.5q-10 0 -31 5q-34 19 -34 170q0 90 73 163.5t164 73.5q7 0 27 -4q122 -25 178 -70q74 -58 74 -172zM1300 1458q0 -6 -11 -20q-14 -18 -16 -21
q-57 -117 -173 -350q-89 -176 -312 -600q-84 -165 -260 -481q-20 -33 -60 -33q-17 0 -43.5 28.5t-26.5 45.5q0 13 13 28q20 24 21 25.5t157 289.5q180 332 326 607l134 248q76 145 116 256q1 11 12 30q15 12 35 12q30 0 57 -17q31 -20 31 -48zM1610 145l-258 -12
q1 -19 6 -77q4 -48 4 -76q0 -23 -47 -23q-10 0 -31.5 1t-31.5 1q-23 0 -23 27q2 93 2 141q-204 -14 -250 -14q-4 0 -54 19l-64 24l-7 12q1 7 9 20q102 186 239 465q33 69 101 205q10 19 47 19q139 0 139 -39q0 -3 -6.5 -6t-7.5 -7q-33 -107 -33 -512q0 -56 4 -118h39
q164 1 203 -15q15 -6 20 -35zM1246 709l-265 -519l256 5z" />
    <glyph glyph-name="questiondown" unicode="&#xbf;" horiz-adv-x="1516" 
d="M1303 713q178 0 178 -142q0 -230 -168 -418q-150 -168 -383 -250q-188 -65 -406 -65q-170 0 -318 69q-187 88 -187 238q0 119 147 232q70 55 250 149q304 160 338 180q254 150 254 224q0 32 -50.5 61.5t-50.5 48.5q0 27 59 27q76 0 137 -41q69 -46 69 -119
q0 -81 -103 -186q-80 -81 -174 -137l-400 -222q-296 -181 -296 -282q0 -119 228 -119q345 0 565 128q272 158 272 478q0 17 -3 51t-3 52q0 43 45 43zM1184 1291q0 -42 -35 -90.5t-75 -48.5l-85 -1q-48 0 -91.5 53.5t-43.5 102.5q0 54 54 102.5t108 48.5q60 0 114 -53.5
t54 -113.5z" />
    <glyph glyph-name="Agrave" unicode="&#xc0;" horiz-adv-x="1186" 
d="M524 1436q19 0 56.5 -6.5t56.5 -6.5q12 0 35.5 4.5t36.5 4.5q91 0 100 -60q7 -67 27 -203q122 -654 329 -1149q3 -5 3 -10q0 -18 -19 -18q-8 0 -24 3t-25 3l-44.5 -13.5t-76.5 -13.5q-57 0 -68 45q-44 194 -94 369l-477 -35q-49 -138 -104 -405q-7 -31 -33 -31
q-61 0 -85 13q-33 25 -65 50q-18 14 -18 44q0 34 128 386l156 424q78 219 96 272q52 159 77 277q2 19 4 37q6 19 28 19zM786 496l-157 647l-250 -672zM411 1875q0 38 111 38q17 0 22 -6q164 -188 301 -270q19 -11 19 -12q0 -10 -46.5 -36t-60.5 -26q-19 0 -28 6
q-74 51 -180 145q-138 122 -138 161z" />
    <glyph glyph-name="Aacute" unicode="&#xc1;" horiz-adv-x="1186" 
d="M524 1436q19 0 56.5 -6.5t56.5 -6.5q12 0 35.5 4.5t36.5 4.5q91 0 100 -60q7 -67 27 -203q122 -654 329 -1149q3 -5 3 -10q0 -18 -19 -18q-8 0 -24 3t-25 3l-44.5 -13.5t-76.5 -13.5q-57 0 -68 45q-44 194 -94 369l-477 -35q-49 -138 -104 -405q-7 -31 -33 -31
q-61 0 -85 13q-33 25 -65 50q-18 14 -18 44q0 34 128 386l156 424q78 219 96 272q52 159 77 277q2 19 4 37q6 19 28 19zM786 496l-157 647l-250 -672zM766 1925q28 0 65 -24t37 -50q0 -14 -177 -148q-181 -137 -212 -137q-23 0 -57.5 30t-34.5 52q0 7 15 7q51 27 174 117
q130 95 161 132q17 21 29 21z" />
    <glyph glyph-name="Acircumflex" unicode="&#xc2;" horiz-adv-x="1186" 
d="M524 1436q19 0 56.5 -6.5t56.5 -6.5q12 0 35.5 4.5t36.5 4.5q91 0 100 -60q7 -67 27 -203q122 -654 329 -1149q3 -5 3 -10q0 -18 -19 -18q-8 0 -24 3t-25 3l-44.5 -13.5t-76.5 -13.5q-57 0 -68 45q-44 194 -94 369l-477 -35q-49 -138 -104 -405q-7 -31 -33 -31
q-61 0 -85 13q-33 25 -65 50q-18 14 -18 44q0 34 128 386l156 424q78 219 96 272q52 159 77 277q2 19 4 37q6 19 28 19zM786 496l-157 647l-250 -672zM648 1689q-218 -120 -227 -120q-13 0 -31.5 24t-18.5 37q0 7 13 19q110 99 258 219q10 0 121 -99q124 -111 137 -120
q18 -25 18 -27q0 -6 -21 -24t-28 -18t-221 109z" />
    <glyph glyph-name="Atilde" unicode="&#xc3;" horiz-adv-x="1186" 
d="M524 1436q19 0 56.5 -6.5t56.5 -6.5q12 0 35.5 4.5t36.5 4.5q91 0 100 -60q7 -67 27 -203q122 -654 329 -1149q3 -5 3 -10q0 -18 -19 -18q-8 0 -24 3t-25 3l-44.5 -13.5t-76.5 -13.5q-57 0 -68 45q-44 194 -94 369l-477 -35q-49 -138 -104 -405q-7 -31 -33 -31
q-61 0 -85 13q-33 25 -65 50q-18 14 -18 44q0 34 128 386l156 424q78 219 96 272q52 159 77 277q2 19 4 37q6 19 28 19zM786 496l-157 647l-250 -672zM446 1595q-17 0 -35.5 16t-18.5 32q0 8 5 19q65 154 157 154q42 0 115.5 -30t114.5 -30q22 0 43 30t39 30q23 0 42 -19
t19 -43q0 -45 -54.5 -105t-101.5 -60q-49 0 -127 38.5t-98 38.5q-33 0 -59.5 -35.5t-40.5 -35.5z" />
    <glyph glyph-name="Adieresis" unicode="&#xc4;" horiz-adv-x="1186" 
d="M524 1436q19 0 56.5 -6.5t56.5 -6.5q12 0 35.5 4.5t36.5 4.5q91 0 100 -60q7 -67 27 -203q122 -654 329 -1149q3 -5 3 -10q0 -18 -19 -18q-8 0 -24 3t-25 3l-44.5 -13.5t-76.5 -13.5q-57 0 -68 45q-44 194 -94 369l-477 -35q-49 -138 -104 -405q-7 -31 -33 -31
q-61 0 -85 13q-33 25 -65 50q-18 14 -18 44q0 34 128 386l156 424q78 219 96 272q52 159 77 277q2 19 4 37q6 19 28 19zM786 496l-157 647l-250 -672zM336 1689q0 7 11.5 36t16.5 31.5l17 8.5q2 1 12 24q7 16 35 16q152 0 152 -136q0 -39 -11 -56q-9 -13 -44 -34
q-47 -28 -55 -28q-1 0 -50 13q-45 13 -51.5 20.5t-17.5 53.5q-15 61 -15 51zM794 1791q10 0 21.5 6.5t18.5 6.5q-1 0 25 -16q71 -46 71 -125q0 -36 -44.5 -69t-81.5 -33q-38 0 -79 36t-41 72q0 40 17 76q21 44 55 49q-16 -3 38 -3z" />
    <glyph glyph-name="Aring" unicode="&#xc5;" horiz-adv-x="1186" 
d="M524 1436q19 0 56.5 -6.5t56.5 -6.5q12 0 35.5 4.5t36.5 4.5q91 0 100 -60q7 -67 27 -203q122 -654 329 -1149q3 -5 3 -10q0 -18 -19 -18q-8 0 -24 3t-25 3l-44.5 -13.5t-76.5 -13.5q-57 0 -68 45q-44 194 -94 369l-477 -35q-49 -138 -104 -405q-7 -31 -33 -31
q-61 0 -85 13q-33 25 -65 50q-18 14 -18 44q0 34 128 386l156 424q78 219 96 272q52 159 77 277q2 19 4 37q6 19 28 19zM786 496l-157 647l-250 -672zM460 1715q0 88 44 141q47 58 134 58q78 0 131.5 -54.5t53.5 -133.5q0 -76 -49 -124.5t-125 -48.5q-74 0 -129 44
q-60 47 -60 118zM645 1816q-38 0 -61 -26.5t-23 -64.5q0 -31 25.5 -54t58.5 -23t55.5 23.5t22.5 57.5q0 32 -23 59.5t-55 27.5z" />
    <glyph glyph-name="AE" unicode="&#xc6;" horiz-adv-x="1642" 
d="M823 1442q185 0 291 -4q132 -4 391 -23q49 -6 49 -53q0 -36 -51 -43q-138 -10 -413 -35q-60 -6 -64 -43q-1 -6 -10 -208q-2 -46 -21 -484l330 -6q50 1 148 -2q38 -5 38 -49q0 -48 -39.5 -55.5t-353.5 -37.5q-41 -5 -123 -12q-4 -149 -4 -246q0 -63 58 -63q81 0 243.5 1
t243.5 1q68 0 68 -43q0 -35 -54 -47q-157 -36 -610 -80q-18 -2 -31 -2q-129 0 -129 121q0 51 7 157q6 103 6 156v39l-428 -31q-91 -189 -115 -319q-4 -30 -14 -86q-8 -31 -33 -31q-59 0 -84 13q-10 5 -66 50q-18 15 -18 44q0 15 4 26q82 261 334 780q65 135 131 269
q73 160 98 280q10 48 13.5 50.5t52.5 2.5q26 0 78 6.5t77 6.5zM791 496l2 778l-390 -803z" />
    <glyph glyph-name="Ccedilla" unicode="&#xc7;" horiz-adv-x="1032" 
d="M82 526q0 270 70 508q85 286 251 439q44 40 97 40q96 0 248 -47q106 -32 129 -114q49 -179 49 -432q0 -115 -19 -183q-9 -35 -49 -35q-129 0 -129 82q0 30 3 90.5t3 90.5q0 405 -117 405q-49 0 -98 -55q-235 -269 -235 -810q0 -179 56 -299q74 -161 232 -161
q105 0 246 76t142 76q32 0 32 -60q0 -27 -22 -53q-57 -67 -165 -112q-102 -42 -196 -42q-119 0 -235 66q-2 1 -81 37q-48 23 -73 49q-139 147 -139 444zM579 38q54 0 54 -40q0 11 -62 -136l13 1q86 0 156 -29q93 -38 93 -113q0 -93 -131 -158q-110 -55 -213 -55
q-31 0 -62 16q-36 19 -36 48q0 9 12 28q16 24 41 26q-19 -1 50 -1q107 0 210 90q-78 43 -133 43q-26 0 -56 -13.5l-30 -13.5q-9 0 -36.5 17t-27.5 25q0 -4 89 218q19 47 69 47z" />
    <glyph glyph-name="Egrave" unicode="&#xc8;" horiz-adv-x="1042" 
d="M152 1313q0 23 -12 56.5t-12 42.5q0 30 52 30q184 0 291 -4q141 -4 391 -23q49 -7 49 -53q0 -35 -51 -43q-74 -12 -206 -20q-151 -8 -208.5 -15t-62.5 -43q-1 -5 -11 -231l-20 -461l345 -6q46 2 132 -2q39 -6 39 -49q0 -48 -41 -56q-34 -7 -352 -37q-41 -5 -123 -12
q-4 -149 -4 -246q0 -63 58 -63q81 0 243.5 1t243.5 1q68 0 68 -43q0 -35 -54 -47q-100 -24 -322 -53q-227 -29 -320 -29q-130 0 -128 122v11q15 712 15 1272zM260 1863q0 38 111 38q17 0 22 -6q164 -188 301 -270q19 -11 19 -12q0 -10 -46.5 -36t-60.5 -26q-19 0 -28 6
q-74 51 -180 145q-138 122 -138 161z" />
    <glyph glyph-name="Eacute" unicode="&#xc9;" horiz-adv-x="1042" 
d="M152 1313q0 23 -12 56.5t-12 42.5q0 30 52 30q184 0 291 -4q141 -4 391 -23q49 -7 49 -53q0 -35 -51 -43q-74 -12 -206 -20q-151 -8 -208.5 -15t-62.5 -43q-1 -5 -11 -231l-20 -461l345 -6q46 2 132 -2q39 -6 39 -49q0 -48 -41 -56q-34 -7 -352 -37q-41 -5 -123 -12
q-4 -149 -4 -246q0 -63 58 -63q81 0 243.5 1t243.5 1q68 0 68 -43q0 -35 -54 -47q-100 -24 -322 -53q-227 -29 -320 -29q-130 0 -128 122v11q15 712 15 1272zM738 1921q28 0 65 -24t37 -50q0 -14 -177 -148q-181 -137 -212 -137q-23 0 -57.5 30t-34.5 52q0 7 15 7
q51 27 174 117q130 95 161 132q17 21 29 21z" />
    <glyph glyph-name="Ecircumflex" unicode="&#xca;" horiz-adv-x="1042" 
d="M152 1313q0 23 -12 56.5t-12 42.5q0 30 52 30q184 0 291 -4q141 -4 391 -23q49 -7 49 -53q0 -35 -51 -43q-74 -12 -206 -20q-151 -8 -208.5 -15t-62.5 -43q-1 -5 -11 -231l-20 -461l345 -6q46 2 132 -2q39 -6 39 -49q0 -48 -41 -56q-34 -7 -352 -37q-41 -5 -123 -12
q-4 -149 -4 -246q0 -63 58 -63q81 0 243.5 1t243.5 1q68 0 68 -43q0 -35 -54 -47q-100 -24 -322 -53q-227 -29 -320 -29q-130 0 -128 122v11q15 712 15 1272zM539 1690q-218 -120 -227 -120q-13 0 -31.5 24t-18.5 37q0 7 13 19q110 99 258 219q10 0 121 -99
q124 -111 137 -120q18 -25 18 -27q0 -6 -21 -24t-28 -18t-221 109z" />
    <glyph glyph-name="Edieresis" unicode="&#xcb;" horiz-adv-x="1042" 
d="M152 1313q0 23 -12 56.5t-12 42.5q0 30 52 30q184 0 291 -4q141 -4 391 -23q49 -7 49 -53q0 -35 -51 -43q-74 -12 -206 -20q-151 -8 -208.5 -15t-62.5 -43q-1 -5 -11 -231l-20 -461l345 -6q46 2 132 -2q39 -6 39 -49q0 -48 -41 -56q-34 -7 -352 -37q-41 -5 -123 -12
q-4 -149 -4 -246q0 -63 58 -63q81 0 243.5 1t243.5 1q68 0 68 -43q0 -35 -54 -47q-100 -24 -322 -53q-227 -29 -320 -29q-130 0 -128 122v11q15 712 15 1272zM229 1700q0 7 11.5 36t16.5 31.5l17 8.5q2 1 12 24q7 16 35 16q152 0 152 -136q0 -39 -11 -56q-9 -13 -44 -34
q-47 -28 -55 -28q-1 0 -50 13q-45 13 -51.5 20.5t-17.5 53.5q-15 61 -15 51zM687 1802q10 0 21.5 6.5t18.5 6.5q-1 0 25 -16q71 -46 71 -125q0 -36 -44.5 -69t-81.5 -33q-38 0 -79 36t-41 72q0 40 17 76q21 44 55 49q-16 -3 38 -3z" />
    <glyph glyph-name="Igrave" unicode="&#xcc;" horiz-adv-x="504" 
d="M147 1233v160q0 5 -5 15t-5 17q0 15 33 25q25 8 44 8q-20 0 75 -12q119 -16 119 -57q0 -9 -8 -19q-9 -14 -11 -18q-11 -34 -29 -240q-43 -521 -43 -645q0 -333 5 -393q0 -8 7 -22t7 -20q0 -47 -67 -47q-156 0 -156 87q0 31 4 84q5 67 6 84q24 486 24 993zM58 1881
q0 38 111 38q17 0 22 -6q164 -188 301 -270q19 -11 19 -12q0 -10 -46.5 -36t-60.5 -26q-19 0 -28 6q-74 51 -180 145q-138 122 -138 161z" />
    <glyph glyph-name="Iacute" unicode="&#xcd;" horiz-adv-x="504" 
d="M147 1233v160q0 5 -5 15t-5 17q0 15 33 25q25 8 44 8q-20 0 75 -12q119 -16 119 -57q0 -9 -8 -19q-9 -14 -11 -18q-11 -34 -29 -240q-43 -521 -43 -645q0 -333 5 -393q0 -8 7 -22t7 -20q0 -47 -67 -47q-156 0 -156 87q0 31 4 84q5 67 6 84q24 486 24 993zM448 1923
q28 0 65 -24t37 -50q0 -14 -177 -148q-181 -137 -212 -137q-23 0 -57.5 30t-34.5 52q0 7 15 7q51 27 174 117q130 95 161 132q17 21 29 21z" />
    <glyph glyph-name="Icircumflex" unicode="&#xce;" horiz-adv-x="504" 
d="M147 1233v160q0 5 -5 15t-5 17q0 15 33 25q25 8 44 8q-20 0 75 -12q119 -16 119 -57q0 -9 -8 -19q-9 -14 -11 -18q-11 -34 -29 -240q-43 -521 -43 -645q0 -333 5 -393q0 -8 7 -22t7 -20q0 -47 -67 -47q-156 0 -156 87q0 31 4 84q5 67 6 84q24 486 24 993zM286 1682
q-218 -120 -227 -120q-13 0 -31.5 24t-18.5 37q0 7 13 19q110 99 258 219q10 0 121 -99q124 -111 137 -120q18 -25 18 -27q0 -6 -21 -24t-28 -18t-221 109z" />
    <glyph glyph-name="Idieresis" unicode="&#xcf;" horiz-adv-x="504" 
d="M147 1233v160q0 5 -5 15t-5 17q0 15 33 25q25 8 44 8q-20 0 75 -12q119 -16 119 -57q0 -9 -8 -19q-9 -14 -11 -18q-11 -34 -29 -240q-43 -521 -43 -645q0 -333 5 -393q0 -8 7 -22t7 -20q0 -47 -67 -47q-156 0 -156 87q0 31 4 84q5 67 6 84q24 486 24 993zM-13 1699
q0 7 11.5 36t16.5 31.5l17 8.5q2 1 12 24q7 16 35 16q152 0 152 -136q0 -39 -11 -56q-9 -13 -44 -34q-47 -28 -55 -28q-1 0 -50 13q-45 13 -51.5 20.5t-17.5 53.5q-15 61 -15 51zM445 1801q10 0 21.5 6.5t18.5 6.5q-1 0 25 -16q71 -46 71 -125q0 -36 -44.5 -69t-81.5 -33
q-38 0 -79 36t-41 72q0 40 17 76q21 44 55 49q-16 -3 38 -3z" />
    <glyph glyph-name="Eth" unicode="&#xd0;" horiz-adv-x="1241" 
d="M350 592q258 4 230 4q32 0 39 -17q2 -6 2 -40q0 -10 6.5 -29t6.5 -29q-1 -5 -3 -12q-5 -6 -42 -6t-118 -1q-70 -1 -119 -1q-6 -217 -6 -367q110 0 242 72q193 105 308 289q118 189 118 405q0 270 -248 406q-49 27 -110 27q-143 0 -183 -7q-72 -11 -76 -94
q-17 -200 -47 -600zM8 547q0 32 55 38q41 2 82 3q30 364 30 606q0 104 -5 135q-2 15 -21 43q-18 25 -18 42q0 42 49 42q24 0 71.5 -4t71.5 -4q33 0 98.5 3t98.5 3q244 0 383 -150t195 -250q80 -141 80 -304q0 -221 -123 -392q-221 -307 -504 -411q-94 -35 -162 -35
q-20 0 -51 7q-39 10 -51 11q-105 14 -114 17q-54 21 -54 90q0 82 12 212q17 184 19 212q-16 0 -46.5 -1t-46.5 -1q-49 0 -49 88z" />
    <glyph glyph-name="Eth" unicode="&#x110;" horiz-adv-x="1241" 
d="M350 592q258 4 230 4q32 0 39 -17q2 -6 2 -40q0 -10 6.5 -29t6.5 -29q-1 -5 -3 -12q-5 -6 -42 -6t-118 -1q-70 -1 -119 -1q-6 -217 -6 -367q110 0 242 72q193 105 308 289q118 189 118 405q0 270 -248 406q-49 27 -110 27q-143 0 -183 -7q-72 -11 -76 -94
q-17 -200 -47 -600zM8 547q0 32 55 38q41 2 82 3q30 364 30 606q0 104 -5 135q-2 15 -21 43q-18 25 -18 42q0 42 49 42q24 0 71.5 -4t71.5 -4q33 0 98.5 3t98.5 3q244 0 383 -150t195 -250q80 -141 80 -304q0 -221 -123 -392q-221 -307 -504 -411q-94 -35 -162 -35
q-20 0 -51 7q-39 10 -51 11q-105 14 -114 17q-54 21 -54 90q0 82 12 212q17 184 19 212q-16 0 -46.5 -1t-46.5 -1q-49 0 -49 88z" />
    <glyph glyph-name="Ntilde" unicode="&#xd1;" horiz-adv-x="1202" 
d="M212 1402q14 0 40 -5.5t39 -5.5q5 0 13 4t13 4q4 0 39 -6q65 -12 66 -12q31 -12 31 -52q0 -7 -6.5 -17.5t-6.5 -17.5q0 -168 140 -630q95 -317 243 -492q12 -14 23 -14q16 0 16 30q0 603 -22 1086q0 47 -6 137q-1 7 -6 18t-5 21q0 23 76 23q16 0 44.5 -4.5t44.5 -4.5
q46 0 46 -41q0 -58 -4.5 -174.5t-4.5 -174.5q0 -133 8 -398t8 -398q0 -246 -89 -258q-18 -2 -55 -2q-162 0 -221 76q-232 300 -328 852h-14l-1 -214q0 -254 5 -408q4 -141 7 -178q8 -118 26 -171q1 -4 10 -17q6 -11 6 -19q0 -14 -14 -18q-11 -2 -31 0q-25 3 -27 3
q-11 0 -33 -3t-33 -3q-104 0 -104 86q0 226 7.5 677t7.5 677q0 44 52 44zM406 1551q-17 0 -35.5 16t-18.5 32q0 8 5 19q65 154 157 154q42 0 115.5 -30t114.5 -30q22 0 43 30t39 30q23 0 42 -19t19 -43q0 -45 -54.5 -105t-101.5 -60q-49 0 -127 38.5t-98 38.5
q-33 0 -59.5 -35.5t-40.5 -35.5z" />
    <glyph glyph-name="Ograve" unicode="&#xd2;" horiz-adv-x="1202" 
d="M421 1441q26 0 69 -12q52 -14 69 -16q45 -1 133 -10q211 -42 330 -285q100 -203 100 -444q0 -215 -80 -421q-93 -237 -254 -333q-61 -37 -126 -37q-4 0 -146 29q-60 7 -178 41q-269 120 -269 599q0 93 9 204q15 205 77 380q81 233 214 295q21 10 52 10zM602 1311
q-174 0 -265 -286q-67 -207 -67 -433q0 -210 50 -369q73 -235 233 -235q208 0 316 252q81 190 81 430q0 373 -155 534q-103 107 -193 107zM405 1868q0 38 111 38q17 0 22 -6q164 -188 301 -270q19 -11 19 -12q0 -10 -46.5 -36t-60.5 -26q-19 0 -28 6q-74 51 -180 145
q-138 122 -138 161z" />
    <glyph glyph-name="Oacute" unicode="&#xd3;" horiz-adv-x="1202" 
d="M421 1441q26 0 69 -12q52 -14 69 -16q45 -1 133 -10q211 -42 330 -285q100 -203 100 -444q0 -215 -80 -421q-93 -237 -254 -333q-61 -37 -126 -37q-4 0 -146 29q-60 7 -178 41q-269 120 -269 599q0 93 9 204q15 205 77 380q81 233 214 295q21 10 52 10zM602 1311
q-174 0 -265 -286q-67 -207 -67 -433q0 -210 50 -369q73 -235 233 -235q208 0 316 252q81 190 81 430q0 373 -155 534q-103 107 -193 107zM850 1926q28 0 65 -24t37 -50q0 -14 -177 -148q-181 -137 -212 -137q-23 0 -57.5 30t-34.5 52q0 7 15 7q51 27 174 117
q130 95 161 132q17 21 29 21z" />
    <glyph glyph-name="Ocircumflex" unicode="&#xd4;" horiz-adv-x="1202" 
d="M421 1441q26 0 69 -12q52 -14 69 -16q45 -1 133 -10q211 -42 330 -285q100 -203 100 -444q0 -215 -80 -421q-93 -237 -254 -333q-61 -37 -126 -37q-4 0 -146 29q-60 7 -178 41q-269 120 -269 599q0 93 9 204q15 205 77 380q81 233 214 295q21 10 52 10zM602 1311
q-174 0 -265 -286q-67 -207 -67 -433q0 -210 50 -369q73 -235 233 -235q208 0 316 252q81 190 81 430q0 373 -155 534q-103 107 -193 107zM641 1684q-218 -120 -227 -120q-13 0 -31.5 24t-18.5 37q0 7 13 19q110 99 258 219q10 0 121 -99q124 -111 137 -120q18 -25 18 -27
q0 -6 -21 -24t-28 -18t-221 109z" />
    <glyph glyph-name="Otilde" unicode="&#xd5;" horiz-adv-x="1202" 
d="M421 1441q26 0 69 -12q52 -14 69 -16q45 -1 133 -10q211 -42 330 -285q100 -203 100 -444q0 -215 -80 -421q-93 -237 -254 -333q-61 -37 -126 -37q-4 0 -146 29q-60 7 -178 41q-269 120 -269 599q0 93 9 204q15 205 77 380q81 233 214 295q21 10 52 10zM602 1311
q-174 0 -265 -286q-67 -207 -67 -433q0 -210 50 -369q73 -235 233 -235q208 0 316 252q81 190 81 430q0 373 -155 534q-103 107 -193 107zM414 1580q-17 0 -35.5 16t-18.5 32q0 8 5 19q65 154 157 154q42 0 115.5 -30t114.5 -30q22 0 43 30t39 30q23 0 42 -19t19 -43
q0 -45 -54.5 -105t-101.5 -60q-49 0 -127 38.5t-98 38.5q-33 0 -59.5 -35.5t-40.5 -35.5z" />
    <glyph glyph-name="Odieresis" unicode="&#xd6;" horiz-adv-x="1202" 
d="M421 1441q26 0 69 -12q52 -14 69 -16q45 -1 133 -10q211 -42 330 -285q100 -203 100 -444q0 -215 -80 -421q-93 -237 -254 -333q-61 -37 -126 -37q-4 0 -146 29q-60 7 -178 41q-269 120 -269 599q0 93 9 204q15 205 77 380q81 233 214 295q21 10 52 10zM602 1311
q-174 0 -265 -286q-67 -207 -67 -433q0 -210 50 -369q73 -235 233 -235q208 0 316 252q81 190 81 430q0 373 -155 534q-103 107 -193 107zM321 1683q0 7 11.5 36t16.5 31.5l17 8.5q2 1 12 24q7 16 35 16q152 0 152 -136q0 -39 -11 -56q-9 -13 -44 -34q-47 -28 -55 -28
q-1 0 -50 13q-45 13 -51.5 20.5t-17.5 53.5q-15 61 -15 51zM779 1785q10 0 21.5 6.5t18.5 6.5q-1 0 25 -16q71 -46 71 -125q0 -36 -44.5 -69t-81.5 -33q-38 0 -79 36t-41 72q0 40 17 76q21 44 55 49q-16 -3 38 -3z" />
    <glyph glyph-name="multiply" unicode="&#xd7;" 
d="M694 440l355 -360l-109 -100l-336 348q-123 -124 -336 -348l-108 100l354 360l-354 361l108 100q213 -225 336 -348l336 348l109 -100z" />
    <glyph glyph-name="Oslash" unicode="&#xd8;" horiz-adv-x="1202" 
d="M1010 1167q127 -225 127 -493q0 -217 -81 -420q-92 -235 -253 -334q-60 -37 -127 -37q-30 0 -73 11q-37 9 -73 18q-127 25 -139 29q-46 14 -131 65l-52 -76q-36 -45 -73 -45q-17 0 -56.5 31.5t-39.5 50.5q0 7 119 174q-76 172 -76 389q0 685 291 895q21 16 62 16
q26 0 69 -12q52 -14 69 -16q45 0 134 -10q113 -23 202 -105q7 10 72 127q15 11 37 11q33 0 70 -20q43 -23 43 -52q0 -7 -13 -21q-18 -19 -18 -20zM920 1014q-19 -33 -145 -235l-251 -398q-53 -76 -159 -229q0 -7 6 -21q63 -143 196 -143q208 0 316 252q82 190 82 430
q0 175 -45 344zM836 1176q-112 135 -220 135q-173 0 -265 -286q-66 -207 -66 -433q0 -146 20 -240q176 248 352 531q64 96 179 293z" />
    <glyph glyph-name="Ugrave" unicode="&#xd9;" horiz-adv-x="1178" 
d="M166 1296q0 7 -8 19t-8 22q0 13 34 24q29 9 45 9q10 0 27.5 -3.5t24.5 -4.5q64 -7 85 -15q47 -18 47 -64q0 -18 -10 -41q-12 -27 -14 -38q-39 -223 -39 -510q0 -216 37 -430q32 -184 251 -184q84 0 157 35q30 838 30 1233q0 5 -7 14t-7 18q0 23 18 23q4 0 10.5 -3
t12.5 -3q2 0 15.5 5t21.5 5q13 0 39 -13t41 -13q5 0 16.5 3t17.5 3q63 0 63 -52q0 -16 -9 -90q-61 -490 -61 -881q0 -255 16 -382q1 -9 7.5 -26.5t6.5 -29.5q0 -49 -125 -49q-5 0 -13.5 3t-13.5 3q-4 0 -14 -2t-14 -2q-41 0 -49 30q-2 5 -4 63v30q-115 -8 -172 -8
q-302 0 -399 168q-69 117 -69 434q0 117 6.5 350.5t6.5 349.5zM383 1875q0 38 111 38q17 0 22 -6q164 -188 301 -270q19 -11 19 -12q0 -10 -46.5 -36t-60.5 -26q-19 0 -28 6q-74 51 -180 145q-138 122 -138 161z" />
    <glyph glyph-name="Uacute" unicode="&#xda;" horiz-adv-x="1178" 
d="M166 1296q0 7 -8 19t-8 22q0 13 34 24q29 9 45 9q10 0 27.5 -3.5t24.5 -4.5q64 -7 85 -15q47 -18 47 -64q0 -18 -10 -41q-12 -27 -14 -38q-39 -223 -39 -510q0 -216 37 -430q32 -184 251 -184q84 0 157 35q30 838 30 1233q0 5 -7 14t-7 18q0 23 18 23q4 0 10.5 -3
t12.5 -3q2 0 15.5 5t21.5 5q13 0 39 -13t41 -13q5 0 16.5 3t17.5 3q63 0 63 -52q0 -16 -9 -90q-61 -490 -61 -881q0 -255 16 -382q1 -9 7.5 -26.5t6.5 -29.5q0 -49 -125 -49q-5 0 -13.5 3t-13.5 3q-4 0 -14 -2t-14 -2q-41 0 -49 30q-2 5 -4 63v30q-115 -8 -172 -8
q-302 0 -399 168q-69 117 -69 434q0 117 6.5 350.5t6.5 349.5zM839 1916q28 0 65 -24t37 -50q0 -14 -177 -148q-181 -137 -212 -137q-23 0 -57.5 30t-34.5 52q0 7 15 7q51 27 174 117q130 95 161 132q17 21 29 21z" />
    <glyph glyph-name="Ucircumflex" unicode="&#xdb;" horiz-adv-x="1178" 
d="M166 1296q0 7 -8 19t-8 22q0 13 34 24q29 9 45 9q10 0 27.5 -3.5t24.5 -4.5q64 -7 85 -15q47 -18 47 -64q0 -18 -10 -41q-12 -27 -14 -38q-39 -223 -39 -510q0 -216 37 -430q32 -184 251 -184q84 0 157 35q30 838 30 1233q0 5 -7 14t-7 18q0 23 18 23q4 0 10.5 -3
t12.5 -3q2 0 15.5 5t21.5 5q13 0 39 -13t41 -13q5 0 16.5 3t17.5 3q63 0 63 -52q0 -16 -9 -90q-61 -490 -61 -881q0 -255 16 -382q1 -9 7.5 -26.5t6.5 -29.5q0 -49 -125 -49q-5 0 -13.5 3t-13.5 3q-4 0 -14 -2t-14 -2q-41 0 -49 30q-2 5 -4 63v30q-115 -8 -172 -8
q-302 0 -399 168q-69 117 -69 434q0 117 6.5 350.5t6.5 349.5zM638 1688q-218 -120 -227 -120q-13 0 -31.5 24t-18.5 37q0 7 13 19q110 99 258 219q10 0 121 -99q124 -111 137 -120q18 -25 18 -27q0 -6 -21 -24t-28 -18t-221 109z" />
    <glyph glyph-name="Udieresis" unicode="&#xdc;" horiz-adv-x="1178" 
d="M166 1296q0 7 -8 19t-8 22q0 13 34 24q29 9 45 9q10 0 27.5 -3.5t24.5 -4.5q64 -7 85 -15q47 -18 47 -64q0 -18 -10 -41q-12 -27 -14 -38q-39 -223 -39 -510q0 -216 37 -430q32 -184 251 -184q84 0 157 35q30 838 30 1233q0 5 -7 14t-7 18q0 23 18 23q4 0 10.5 -3
t12.5 -3q2 0 15.5 5t21.5 5q13 0 39 -13t41 -13q5 0 16.5 3t17.5 3q63 0 63 -52q0 -16 -9 -90q-61 -490 -61 -881q0 -255 16 -382q1 -9 7.5 -26.5t6.5 -29.5q0 -49 -125 -49q-5 0 -13.5 3t-13.5 3q-4 0 -14 -2t-14 -2q-41 0 -49 30q-2 5 -4 63v30q-115 -8 -172 -8
q-302 0 -399 168q-69 117 -69 434q0 117 6.5 350.5t6.5 349.5zM323 1689q0 7 11.5 36t16.5 31.5l17 8.5q2 1 12 24q7 16 35 16q152 0 152 -136q0 -39 -11 -56q-9 -13 -44 -34q-47 -28 -55 -28q-1 0 -50 13q-45 13 -51.5 20.5t-17.5 53.5q-15 61 -15 51zM781 1791
q10 0 21.5 6.5t18.5 6.5q-1 0 25 -16q71 -46 71 -125q0 -36 -44.5 -69t-81.5 -33q-38 0 -79 36t-41 72q0 40 17 76q21 44 55 49q-16 -3 38 -3z" />
    <glyph glyph-name="Yacute" unicode="&#xdd;" horiz-adv-x="1227" 
d="M14 1360q0 11 15.5 24t27.5 13q132 0 176 -82q152 -283 334 -676l6 2q80 153 288 509q50 89 155 263q13 21 41 21q7 0 74.5 -31t74.5 -37q13 -11 13 -31q0 -9 -36 -36q-40 -29 -46 -39q-267 -397 -457 -828q-3 -59 -3 -139q0 -123 9 -216q1 -10 7 -45q5 -29 5 -44
q0 -25 -114 -25q-101 0 -101 66q0 28 3.5 84t3.5 84q0 222 -39 311q-135 302 -286 591q-36 74 -116 216q-2 3 -20 22q-15 14 -15 23zM835 1891q28 0 65 -24t37 -50q0 -14 -177 -148q-181 -137 -212 -137q-23 0 -57.5 30t-34.5 52q0 7 15 7q51 27 174 117q130 95 161 132
q17 21 29 21z" />
    <glyph glyph-name="Thorn" unicode="&#xde;" horiz-adv-x="1077" 
d="M561 1083q-103 0 -133 -4q-42 -5 -53.5 -17t-14.5 -54q-14 -224 -14 -635q0 -35 31 -35q49 0 133 39q133 64 218 173q93 120 93 257q0 128 -65 201q-68 75 -195 75zM369 1192q68 8 127 8q272 0 393 -125q117 -121 117 -282q0 -231 -212 -403q-200 -163 -438 -163v-115
q0 -18 8.5 -55.5t8.5 -54.5q0 -33 -44 -33q-13 0 -30 7.5t-25 7.5q-6 0 -18 -3.5t-18 -3.5q-24 0 -70 23q-51 25 -51 46q0 7 5 20.5t5 19.5q12 172 23 719q6 333 6 588q0 5 -5.5 15t-5.5 17q0 15 33 25q25 8 45 8q44 0 102 -16q74 -22 74 -53q0 -10 -11 -20.5t-13 -16.5
q-7 -23 -7 -132z" />
    <glyph glyph-name="germandbls" unicode="&#xdf;" horiz-adv-x="918" 
d="M856 315q0 -162 -69 -257q-79 -107 -234 -107q-13 0 -34 6q-25 7 -34 8q-82 12 -82 49q0 35 27 35q10 0 29.5 -5t29.5 -5q183 0 183 307q0 318 -178 318q-12 0 -34 -4t-34 -4q-54 0 -54 48q0 33 101 33q139 0 139 205q0 221 -139 221q-62 0 -91 -59q-17 -33 -30 -115
q-24 -150 -30 -362q-2 -183 -5 -365q-2 -103 -2 -246q0 -11 5.5 -32.5t5.5 -32.5q0 -18 -34 -18q-11 0 -33.5 5t-33.5 5q-13 0 -38.5 -7.5t-36.5 -7.5q-9 0 -15 6q-24 8 -24 23q0 10 5.5 29.5t6.5 27.5q27 234 27 607q-64 -3 -103 -3q-18 0 -32.5 19t-14.5 37q0 28 20 28
q64 0 132 7q-2 40 -2 97q0 323 90 415q30 30 139 30q23 0 59 -8q45 -10 58 -12q142 -19 207 -80q71 -68 71 -209q0 -109 -60 -165q-49 -46 -161 -72v-5q176 -20 219 -79q84 -115 84 -306z" />
    <glyph glyph-name="agrave" unicode="&#xe0;" horiz-adv-x="807" 
d="M206 493q-34 0 -64 22q-33 25 -33 56q0 157 55 242q62 97 140 97q17 0 49 -7.5t48 -7.5q10 0 29 1t26 1q28 0 49 -14q26 -16 40 -19q157 -34 157 -239q0 -61 -6 -182.5t-6 -182.5v-136q0 -28 5.5 -84t5.5 -83q0 -51 -42 -51q-17 0 -51 1h-50q-54 0 -54 24q0 9 15.5 31.5
t15.5 41.5q0 18 -3 29q-80 -6 -138 -6q-116 0 -158 7q-82 15 -138 70q-10 3 -28 23q-15 31 -15 61q0 114 168 205q57 31 164 31q52 0 145 -25q-3 123 -7 247q-21 173 -113 173q-86 0 -111 -109q-12 -50 -12 -175q0 -18 -33 -32q-26 -10 -50 -10zM539 315l-42 1
q-125 3 -200 -46q-24 -15 -47 -47q-25 -36 -25 -61q0 -55 183 -55q73 0 133 14zM217 1262q0 38 111 38q17 0 22 -6q164 -188 301 -270q19 -11 19 -12q0 -10 -46.5 -36t-60.5 -26q-19 0 -28 6q-74 51 -180 145q-138 122 -138 161z" />
    <glyph glyph-name="aacute" unicode="&#xe1;" horiz-adv-x="807" 
d="M206 493q-34 0 -64 22q-33 25 -33 56q0 157 55 242q62 97 140 97q17 0 49 -7.5t48 -7.5q10 0 29 1t26 1q28 0 49 -14q26 -16 40 -19q157 -34 157 -239q0 -61 -6 -182.5t-6 -182.5v-136q0 -28 5.5 -84t5.5 -83q0 -51 -42 -51q-17 0 -51 1h-50q-54 0 -54 24q0 9 15.5 31.5
t15.5 41.5q0 18 -3 29q-80 -6 -138 -6q-116 0 -158 7q-82 15 -138 70q-10 3 -28 23q-15 31 -15 61q0 114 168 205q57 31 164 31q52 0 145 -25q-3 123 -7 247q-21 173 -113 173q-86 0 -111 -109q-12 -50 -12 -175q0 -18 -33 -32q-26 -10 -50 -10zM539 315l-42 1
q-125 3 -200 -46q-24 -15 -47 -47q-25 -36 -25 -61q0 -55 183 -55q73 0 133 14zM645 1317q28 0 65 -24t37 -50q0 -14 -177 -148q-181 -137 -212 -137q-23 0 -57.5 30t-34.5 52q0 7 15 7q51 27 174 117q130 95 161 132q17 21 29 21z" />
    <glyph glyph-name="acircumflex" unicode="&#xe2;" horiz-adv-x="807" 
d="M206 493q-34 0 -64 22q-33 25 -33 56q0 157 55 242q62 97 140 97q17 0 49 -7.5t48 -7.5q10 0 29 1t26 1q28 0 49 -14q26 -16 40 -19q157 -34 157 -239q0 -61 -6 -182.5t-6 -182.5v-136q0 -28 5.5 -84t5.5 -83q0 -51 -42 -51q-17 0 -51 1h-50q-54 0 -54 24q0 9 15.5 31.5
t15.5 41.5q0 18 -3 29q-80 -6 -138 -6q-116 0 -158 7q-82 15 -138 70q-10 3 -28 23q-15 31 -15 61q0 114 168 205q57 31 164 31q52 0 145 -25q-3 123 -7 247q-21 173 -113 173q-86 0 -111 -109q-12 -50 -12 -175q0 -18 -33 -32q-26 -10 -50 -10zM539 315l-42 1
q-125 3 -200 -46q-24 -15 -47 -47q-25 -36 -25 -61q0 -55 183 -55q73 0 133 14zM447 1087q-218 -120 -227 -120q-13 0 -31.5 24t-18.5 37q0 7 13 19q110 99 258 219q10 0 121 -99q124 -111 137 -120q18 -25 18 -27q0 -6 -21 -24t-28 -18t-221 109z" />
    <glyph glyph-name="atilde" unicode="&#xe3;" horiz-adv-x="807" 
d="M206 493q-34 0 -64 22q-33 25 -33 56q0 157 55 242q62 97 140 97q17 0 49 -7.5t48 -7.5q10 0 29 1t26 1q28 0 49 -14q26 -16 40 -19q157 -34 157 -239q0 -61 -6 -182.5t-6 -182.5v-136q0 -28 5.5 -84t5.5 -83q0 -51 -42 -51q-17 0 -51 1h-50q-54 0 -54 24q0 9 15.5 31.5
t15.5 41.5q0 18 -3 29q-80 -6 -138 -6q-116 0 -158 7q-82 15 -138 70q-10 3 -28 23q-15 31 -15 61q0 114 168 205q57 31 164 31q52 0 145 -25q-3 123 -7 247q-21 173 -113 173q-86 0 -111 -109q-12 -50 -12 -175q0 -18 -33 -32q-26 -10 -50 -10zM539 315l-42 1
q-125 3 -200 -46q-24 -15 -47 -47q-25 -36 -25 -61q0 -55 183 -55q73 0 133 14zM217 969q-17 0 -35.5 16t-18.5 32q0 8 5 19q65 154 157 154q42 0 115.5 -30t114.5 -30q22 0 43 30t39 30q23 0 42 -19t19 -43q0 -45 -54.5 -105t-101.5 -60q-49 0 -127 38.5t-98 38.5
q-33 0 -59.5 -35.5t-40.5 -35.5z" />
    <glyph glyph-name="adieresis" unicode="&#xe4;" horiz-adv-x="807" 
d="M206 493q-34 0 -64 22q-33 25 -33 56q0 157 55 242q62 97 140 97q17 0 49 -7.5t48 -7.5q10 0 29 1t26 1q28 0 49 -14q26 -16 40 -19q157 -34 157 -239q0 -61 -6 -182.5t-6 -182.5v-136q0 -28 5.5 -84t5.5 -83q0 -51 -42 -51q-17 0 -51 1h-50q-54 0 -54 24q0 9 15.5 31.5
t15.5 41.5q0 18 -3 29q-80 -6 -138 -6q-116 0 -158 7q-82 15 -138 70q-10 3 -28 23q-15 31 -15 61q0 114 168 205q57 31 164 31q52 0 145 -25q-3 123 -7 247q-21 173 -113 173q-86 0 -111 -109q-12 -50 -12 -175q0 -18 -33 -32q-26 -10 -50 -10zM539 315l-42 1
q-125 3 -200 -46q-24 -15 -47 -47q-25 -36 -25 -61q0 -55 183 -55q73 0 133 14zM137 1083q0 7 11.5 36t16.5 31.5l17 8.5q2 1 12 24q7 16 35 16q152 0 152 -136q0 -39 -11 -56q-9 -13 -44 -34q-47 -28 -55 -28q-1 0 -50 13q-45 13 -51.5 20.5t-17.5 53.5q-15 61 -15 51z
M595 1185q10 0 21.5 6.5t18.5 6.5q-1 0 25 -16q71 -46 71 -125q0 -36 -44.5 -69t-81.5 -33q-38 0 -79 36t-41 72q0 40 17 76q21 44 55 49q-16 -3 38 -3z" />
    <glyph glyph-name="aring" unicode="&#xe5;" horiz-adv-x="807" 
d="M206 493q-34 0 -64 22q-33 25 -33 56q0 157 55 242q62 97 140 97q17 0 49 -7.5t48 -7.5q10 0 29 1t26 1q28 0 49 -14q26 -16 40 -19q157 -34 157 -239q0 -61 -6 -182.5t-6 -182.5v-136q0 -28 5.5 -84t5.5 -83q0 -51 -42 -51q-17 0 -51 1h-50q-54 0 -54 24q0 9 15.5 31.5
t15.5 41.5q0 18 -3 29q-80 -6 -138 -6q-116 0 -158 7q-82 15 -138 70q-10 3 -28 23q-15 31 -15 61q0 114 168 205q57 31 164 31q52 0 145 -25q-3 123 -7 247q-21 173 -113 173q-86 0 -111 -109q-12 -50 -12 -175q0 -18 -33 -32q-26 -10 -50 -10zM539 315l-42 1
q-125 3 -200 -46q-24 -15 -47 -47q-25 -36 -25 -61q0 -55 183 -55q73 0 133 14zM262 1120q0 88 44 141q47 58 134 58q78 0 131.5 -54.5t53.5 -133.5q0 -76 -49 -124.5t-125 -48.5q-74 0 -129 44q-60 47 -60 118zM447 1221q-38 0 -61 -26.5t-23 -64.5q0 -31 25.5 -54
t58.5 -23t55.5 23.5t22.5 57.5q0 32 -23 59.5t-55 27.5z" />
    <glyph glyph-name="ae" unicode="&#xe6;" 
d="M698 -53l-14 -30q-9 -11 -29 -11q-17 0 -51 1h-50q-54 0 -54 24q0 9 15 31.5t15 41.5q0 18 -2 29q-80 -6 -138 -6q-116 0 -158 7q-84 15 -138 70q-10 3 -28 23q-15 32 -15 61q0 114 168 205q57 31 164 31q52 0 145 -25q0 13 -1 38v68q-1 314 -118 314q-86 0 -112 -108
q-12 -50 -12 -174q0 -20 -32 -33q-27 -11 -51 -11q-34 0 -64 22q-33 25 -33 56q0 115 39 209q50 124 145 129l11 1q17 1 49.5 -7t47.5 -8q11 0 30 1t27 1q25 0 47 -14q26 -16 40 -19q57 -12 121 -76q5 7 50.5 24.5t55.5 17.5q12 0 33.5 -5t29.5 -6q55 -3 109 -7
q68 -8 96 -38q94 -96 94 -372q0 -102 -1 -106q-8 -71 -54 -71q-264 0 -383 -4q-1 -94 38 -156q46 -73 134 -73q61 0 153.5 55t115.5 55q18 0 44 -9q31 -12 31 -27q0 -25 -89 -75q-72 -41 -111 -54q-28 -10 -67 -10q-173 0 -243 20zM535 315l-42 1q-125 3 -200 -46
q-24 -15 -47 -47q-25 -36 -25 -61q0 -55 183 -55q72 0 133 14zM690 295l38 -1q101 -1 241 15q14 80 14 154q0 270 -92 270q-66 0 -126 -117q-42 -84 -63 -176q-12 -56 -12 -145z" />
    <glyph glyph-name="ccedilla" unicode="&#xe7;" horiz-adv-x="752" 
d="M69 355q0 244 83 466q26 72 158 72q105 0 203 -41q123 -52 134 -139q19 -151 19 -201q0 -52 -9.5 -60t-60.5 -8q-7 0 -19.5 -2t-19.5 -2q-75 0 -75 116q0 14 1 38.5t1 33.5q0 165 -70 165q-41 0 -101 -93q-30 -46 -54 -182q-21 -120 -21 -192q0 -94 28 -164
q39 -94 119 -94q71 0 155.5 64.5t100.5 64.5q17 0 43 -13q31 -14 31 -28q0 -16 -49 -62q-105 -96 -256 -96q-182 0 -263 89q-78 85 -78 268zM378 63q54 0 54 -40q0 11 -62 -136l13 1q86 0 156 -29q93 -38 93 -113q0 -93 -131 -158q-110 -55 -213 -55q-31 0 -62 16
q-36 19 -36 48q0 9 12 28q16 24 41 26q-19 -1 50 -1q107 0 210 90q-78 43 -133 43q-26 0 -56 -13.5l-30 -13.5q-9 0 -36.5 17t-27.5 25q0 -4 89 218q19 47 69 47z" />
    <glyph glyph-name="egrave" unicode="&#xe8;" horiz-adv-x="748" 
d="M63 303q0 193 119 453q3 11 13 32q6 8 50.5 25t55.5 17q12 0 32.5 -5t28.5 -6q54 -3 108 -7q68 -8 97 -38q94 -96 94 -372q0 -102 -1 -106q-8 -71 -54 -71q-264 0 -383 -4q-1 -94 38 -156q46 -73 134 -73q61 0 153.5 55t115.5 55q18 0 44 -9q31 -12 31 -27q0 -25 -89 -75
q-73 -42 -111 -54q-28 -10 -67 -10q-20 0 -53 2q-40 3 -52 3q-126 5 -174 26q-72 34 -101 138.5t-29 206.5zM225 295l38 -1q101 -1 241 15q14 80 14 154q0 270 -92 270q-66 0 -126 -117q-42 -84 -62 -176q-13 -56 -13 -145zM160 1262q0 38 111 38q17 0 22 -6
q164 -188 301 -270q19 -11 19 -12q0 -10 -46.5 -36t-60.5 -26q-19 0 -28 6q-74 51 -180 145q-138 122 -138 161z" />
    <glyph glyph-name="eacute" unicode="&#xe9;" horiz-adv-x="748" 
d="M63 303q0 193 119 453q3 11 13 32q6 8 50.5 25t55.5 17q12 0 32.5 -5t28.5 -6q54 -3 108 -7q68 -8 97 -38q94 -96 94 -372q0 -102 -1 -106q-8 -71 -54 -71q-264 0 -383 -4q-1 -94 38 -156q46 -73 134 -73q61 0 153.5 55t115.5 55q18 0 44 -9q31 -12 31 -27q0 -25 -89 -75
q-73 -42 -111 -54q-28 -10 -67 -10q-20 0 -53 2q-40 3 -52 3q-126 5 -174 26q-72 34 -101 138.5t-29 206.5zM225 295l38 -1q101 -1 241 15q14 80 14 154q0 270 -92 270q-66 0 -126 -117q-42 -84 -62 -176q-13 -56 -13 -145zM592 1317q28 0 65 -24t37 -50q0 -14 -177 -148
q-181 -137 -212 -137q-23 0 -57.5 30t-34.5 52q0 7 15 7q51 27 174 117q130 95 161 132q17 21 29 21z" />
    <glyph glyph-name="ecircumflex" unicode="&#xea;" horiz-adv-x="748" 
d="M63 303q0 193 119 453q3 11 13 32q6 8 50.5 25t55.5 17q12 0 32.5 -5t28.5 -6q54 -3 108 -7q68 -8 97 -38q94 -96 94 -372q0 -102 -1 -106q-8 -71 -54 -71q-264 0 -383 -4q-1 -94 38 -156q46 -73 134 -73q61 0 153.5 55t115.5 55q18 0 44 -9q31 -12 31 -27q0 -25 -89 -75
q-73 -42 -111 -54q-28 -10 -67 -10q-20 0 -53 2q-40 3 -52 3q-126 5 -174 26q-72 34 -101 138.5t-29 206.5zM225 295l38 -1q101 -1 241 15q14 80 14 154q0 270 -92 270q-66 0 -126 -117q-42 -84 -62 -176q-13 -56 -13 -145zM397 1087q-218 -120 -227 -120q-13 0 -31.5 24
t-18.5 37q0 7 13 19q110 99 258 219q10 0 121 -99q124 -111 137 -120q18 -25 18 -27q0 -6 -21 -24t-28 -18t-221 109z" />
    <glyph glyph-name="edieresis" unicode="&#xeb;" horiz-adv-x="748" 
d="M63 303q0 193 119 453q3 11 13 32q6 8 50.5 25t55.5 17q12 0 32.5 -5t28.5 -6q54 -3 108 -7q68 -8 97 -38q94 -96 94 -372q0 -102 -1 -106q-8 -71 -54 -71q-264 0 -383 -4q-1 -94 38 -156q46 -73 134 -73q61 0 153.5 55t115.5 55q18 0 44 -9q31 -12 31 -27q0 -25 -89 -75
q-73 -42 -111 -54q-28 -10 -67 -10q-20 0 -53 2q-40 3 -52 3q-126 5 -174 26q-72 34 -101 138.5t-29 206.5zM225 295l38 -1q101 -1 241 15q14 80 14 154q0 270 -92 270q-66 0 -126 -117q-42 -84 -62 -176q-13 -56 -13 -145zM102 1083q0 7 11.5 36t16.5 31.5l17 8.5
q2 1 12 24q7 16 35 16q152 0 152 -136q0 -39 -11 -56q-9 -13 -44 -34q-47 -28 -55 -28q-1 0 -50 13q-45 13 -51.5 20.5t-17.5 53.5q-15 61 -15 51zM560 1185q10 0 21.5 6.5t18.5 6.5q-1 0 25 -16q71 -46 71 -125q0 -36 -44.5 -69t-81.5 -33q-38 0 -79 36t-41 72q0 40 17 76
q21 44 55 49q-16 -3 38 -3z" />
    <glyph glyph-name="igrave" unicode="&#xec;" horiz-adv-x="522" 
d="M183 557q0 136 -15 221q-4 23 -4 27q0 15 20 26t36 11q14 0 34 -5q24 -5 33 -6q35 -3 71 -6q52 -9 52 -34q0 -11 -12.5 -22.5t-14.5 -18.5q-11 -38 -23 -170q-30 -351 -30 -493q0 -30 9 -56t9 -25q0 -32 -92 -32q-123 0 -123 38q0 8 5 22.5t5 20.5q40 275 40 502z
M41 1262q0 38 111 38q17 0 22 -6q164 -188 301 -270q19 -11 19 -12q0 -10 -46.5 -36t-60.5 -26q-19 0 -28 6q-74 51 -180 145q-138 122 -138 161z" />
    <glyph glyph-name="iacute" unicode="&#xed;" horiz-adv-x="522" 
d="M183 557q0 136 -15 221q-4 23 -4 27q0 15 20 26t36 11q14 0 34 -5q24 -5 33 -6q35 -3 71 -6q52 -9 52 -34q0 -11 -12.5 -22.5t-14.5 -18.5q-11 -38 -23 -170q-30 -351 -30 -493q0 -30 9 -56t9 -25q0 -32 -92 -32q-123 0 -123 38q0 8 5 22.5t5 20.5q40 275 40 502z
M428 1317q28 0 65 -24t37 -50q0 -14 -177 -148q-181 -137 -212 -137q-23 0 -57.5 30t-34.5 52q0 7 15 7q51 27 174 117q130 95 161 132q17 21 29 21z" />
    <glyph glyph-name="icircumflex" unicode="&#xee;" horiz-adv-x="522" 
d="M183 557q0 136 -15 221q-4 23 -4 27q0 15 20 26t36 11q14 0 34 -5q24 -5 33 -6q35 -3 71 -6q52 -9 52 -34q0 -11 -12.5 -22.5t-14.5 -18.5q-11 -38 -23 -170q-30 -351 -30 -493q0 -30 9 -56t9 -25q0 -32 -92 -32q-123 0 -123 38q0 8 5 22.5t5 20.5q40 275 40 502z
M285 1087q-218 -120 -227 -120q-13 0 -31.5 24t-18.5 37q0 7 13 19q110 99 258 219q10 0 121 -99q124 -111 137 -120q18 -25 18 -27q0 -6 -21 -24t-28 -18t-221 109z" />
    <glyph glyph-name="idieresis" unicode="&#xef;" horiz-adv-x="522" 
d="M183 557q0 136 -15 221q-4 23 -4 27q0 15 20 26t36 11q14 0 34 -5q24 -5 33 -6q35 -3 71 -6q52 -9 52 -34q0 -11 -12.5 -22.5t-14.5 -18.5q-11 -38 -23 -170q-30 -351 -30 -493q0 -30 9 -56t9 -25q0 -32 -92 -32q-123 0 -123 38q0 8 5 22.5t5 20.5q40 275 40 502z
M-8 1083q0 7 11.5 36t16.5 31.5l17 8.5q2 1 12 24q7 16 35 16q152 0 152 -136q0 -39 -11 -56q-9 -13 -44 -34q-47 -28 -55 -28q-1 0 -50 13q-45 13 -51.5 20.5t-17.5 53.5q-15 61 -15 51zM450 1185q10 0 21.5 6.5t18.5 6.5q-1 0 25 -16q71 -46 71 -125q0 -36 -44.5 -69
t-81.5 -33q-38 0 -79 36t-41 72q0 40 17 76q21 44 55 49q-16 -3 38 -3z" />
    <glyph glyph-name="eth" unicode="&#xf0;" horiz-adv-x="795" 
d="M733 375q0 -115 -28 -218q-35 -134 -105 -188q-50 -39 -143 -39q-18 0 -48.5 11t-46.5 12q-37 1 -110 14q-112 36 -156 133q-33 73 -33 207q0 265 95 416q22 35 78 53q8 3 60 29q30 14 75 14q98 0 135 -37q-24 105 -88 219q-93 -44 -187 -88q-8 0 -29.5 22t-21.5 30
q0 19 87 56l112 46q-4 6 -59 69q-48 55 -48 60q0 11 10.5 26t20.5 15q48 0 176 -123q172 80 189 80q6 0 12 -13q8 -17 9 -18.5t14 -9.5q10 -7 10 -14q0 -15 -17 -23q-55 -22 -164 -65q201 -304 201 -676zM553 453q0 282 -129 282q-102 0 -148 -174q-30 -113 -30 -256
q0 -291 129 -291q104 0 149 178q29 113 29 261z" />
    <glyph glyph-name="ntilde" unicode="&#xf1;" horiz-adv-x="897" 
d="M122 657q0 174 -3 201q-1 4 -4.5 11t-3.5 12q0 10 6 13t16 1l14 -2q6 0 17 3t16 3q158 0 158 -47q0 -6 -21 -37t-21 -55q0 -6 3 -17q98 46 261 46q227 0 227 -272q0 -80 -4.5 -241t-4.5 -241q0 -9 7.5 -26.5t7.5 -23.5q0 -14 -23 -14q-13 0 -40.5 -6t-41.5 -6q-4 0 -12 2
t-12 2q-38 0 -46 3q-19 7 -19 39l1 11q23 264 23 308q0 92 -15 292q-8 105 -99 105q-121 0 -183 -120q-49 -94 -49 -227q0 -271 12 -327q1 -4 4.5 -9.5t3.5 -10.5q0 -17 -64 -17q-7 0 -22 5t-23 5q-7 0 -21 -3t-22 -3q-13 0 -32 9q-23 9 -23 20q0 3 5 8.5t5 9.5
q22 146 22 596zM279 969q-17 0 -35.5 16t-18.5 32q0 8 5 19q65 154 157 154q42 0 115.5 -30t114.5 -30q22 0 43 30t39 30q23 0 42 -19t19 -43q0 -45 -54.5 -105t-101.5 -60q-49 0 -127 38.5t-98 38.5q-33 0 -59.5 -35.5t-40.5 -35.5z" />
    <glyph glyph-name="ograve" unicode="&#xf2;" horiz-adv-x="795" 
d="M63 307q0 295 123 496q10 19 31 49q62 25 73 25q20 0 56.5 -10.5t52.5 -12.5q49 -3 148 -27q117 -50 157 -218q23 -97 23 -285q0 -100 -35 -203q-42 -126 -112 -164q-50 -27 -123 -27q-18 0 -48.5 11t-46.5 12q-37 1 -110 14q-113 37 -156 133q-33 72 -33 207zM554 474
q0 274 -146 274q-87 0 -132 -181q-30 -123 -30 -248q0 -305 129 -305q103 0 149 189q30 122 30 271zM172 1262q0 38 111 38q17 0 22 -6q164 -188 301 -270q19 -11 19 -12q0 -10 -46.5 -36t-60.5 -26q-19 0 -28 6q-74 51 -180 145q-138 122 -138 161z" />
    <glyph glyph-name="oacute" unicode="&#xf3;" horiz-adv-x="795" 
d="M63 307q0 295 123 496q10 19 31 49q62 25 73 25q20 0 56.5 -10.5t52.5 -12.5q49 -3 148 -27q117 -50 157 -218q23 -97 23 -285q0 -100 -35 -203q-42 -126 -112 -164q-50 -27 -123 -27q-18 0 -48.5 11t-46.5 12q-37 1 -110 14q-113 37 -156 133q-33 72 -33 207zM554 474
q0 274 -146 274q-87 0 -132 -181q-30 -123 -30 -248q0 -305 129 -305q103 0 149 189q30 122 30 271zM633 1317q28 0 65 -24t37 -50q0 -14 -177 -148q-181 -137 -212 -137q-23 0 -57.5 30t-34.5 52q0 7 15 7q51 27 174 117q130 95 161 132q17 21 29 21z" />
    <glyph glyph-name="ocircumflex" unicode="&#xf4;" horiz-adv-x="795" 
d="M63 307q0 295 123 496q10 19 31 49q62 25 73 25q20 0 56.5 -10.5t52.5 -12.5q49 -3 148 -27q117 -50 157 -218q23 -97 23 -285q0 -100 -35 -203q-42 -126 -112 -164q-50 -27 -123 -27q-18 0 -48.5 11t-46.5 12q-37 1 -110 14q-113 37 -156 133q-33 72 -33 207zM554 474
q0 274 -146 274q-87 0 -132 -181q-30 -123 -30 -248q0 -305 129 -305q103 0 149 189q30 122 30 271zM418 1087q-218 -120 -227 -120q-13 0 -31.5 24t-18.5 37q0 7 13 19q110 99 258 219q10 0 121 -99q124 -111 137 -120q18 -25 18 -27q0 -6 -21 -24t-28 -18t-221 109z" />
    <glyph glyph-name="otilde" unicode="&#xf5;" horiz-adv-x="795" 
d="M63 307q0 295 123 496q10 19 31 49q62 25 73 25q20 0 56.5 -10.5t52.5 -12.5q49 -3 148 -27q117 -50 157 -218q23 -97 23 -285q0 -100 -35 -203q-42 -126 -112 -164q-50 -27 -123 -27q-18 0 -48.5 11t-46.5 12q-37 1 -110 14q-113 37 -156 133q-33 72 -33 207zM554 474
q0 274 -146 274q-87 0 -132 -181q-30 -123 -30 -248q0 -305 129 -305q103 0 149 189q30 122 30 271zM205 969q-17 0 -35.5 16t-18.5 32q0 8 5 19q65 154 157 154q42 0 115.5 -30t114.5 -30q22 0 43 30t39 30q23 0 42 -19t19 -43q0 -45 -54.5 -105t-101.5 -60
q-49 0 -127 38.5t-98 38.5q-33 0 -59.5 -35.5t-40.5 -35.5z" />
    <glyph glyph-name="odieresis" unicode="&#xf6;" horiz-adv-x="795" 
d="M63 307q0 295 123 496q10 19 31 49q62 25 73 25q20 0 56.5 -10.5t52.5 -12.5q49 -3 148 -27q117 -50 157 -218q23 -97 23 -285q0 -100 -35 -203q-42 -126 -112 -164q-50 -27 -123 -27q-18 0 -48.5 11t-46.5 12q-37 1 -110 14q-113 37 -156 133q-33 72 -33 207zM554 474
q0 274 -146 274q-87 0 -132 -181q-30 -123 -30 -248q0 -305 129 -305q103 0 149 189q30 122 30 271zM114 1083q0 7 11.5 36t16.5 31.5l17 8.5q2 1 12 24q7 16 35 16q152 0 152 -136q0 -39 -11 -56q-9 -13 -44 -34q-47 -28 -55 -28q-1 0 -50 13q-45 13 -51.5 20.5t-17.5 53.5
q-15 61 -15 51zM572 1185q10 0 21.5 6.5t18.5 6.5q-1 0 25 -16q71 -46 71 -125q0 -36 -44.5 -69t-81.5 -33q-38 0 -79 36t-41 72q0 40 17 76q21 44 55 49q-16 -3 38 -3z" />
    <glyph glyph-name="divide" unicode="&#xf7;" 
d="M1069 365h-903v129h903v-129zM508 137q0 46 34 87.5t79 41.5q31 0 66 -24q39 -27 39 -57q0 -56 -27 -100q-32 -51 -85 -51q-39 0 -72.5 32t-33.5 71zM504 698q0 47 34 88t78 41q33 0 68 -23q39 -26 39 -57q0 -59 -28 -101q-31 -49 -87 -49q-39 0 -71.5 31.5t-32.5 69.5z
" />
    <glyph glyph-name="oslash" unicode="&#xf8;" horiz-adv-x="764" 
d="M100 78q-47 60 -47 229q0 138 37 284q43 169 117 261q10 2 31 8q4 2 17 11q8 6 25 6q19 0 54 -10q39 -11 55 -13q84 -8 107 -13q58 -13 96 -46q34 60 74 127q13 5 24 5q22 0 49 -14q32 -15 32 -33q0 3 -21 -26q-28 -50 -88 -145q55 -142 55 -385q0 -100 -35 -203
q-42 -125 -113 -164q-47 -27 -123 -27q-18 0 -48 11t-46 12q-90 6 -176 45q-20 -30 -41 -59q-29 -37 -55 -37q-20 12 -40 23q-27 17 -27 33zM235 320l1 -54q90 137 276 402q-35 80 -114 80q-87 0 -132 -181q-31 -122 -31 -247zM260 109q33 -95 105 -95q103 0 149 190
q31 127 29 273v45q-68 -106 -135 -211q-80 -122 -148 -202z" />
    <glyph glyph-name="ugrave" unicode="&#xf9;" horiz-adv-x="883" 
d="M104 231q0 87 3.5 261.5t3.5 261.5q0 5 -5.5 15.5t-5.5 14.5q0 35 64 35q16 0 49 -3t50 -3q9 0 25 4.5t24 4.5q2 0 11 -12t9 -15q0 -12 -7.5 -24t-9.5 -19q-45 -220 -45 -495q0 -169 112 -169q94 0 206 76v244q0 288 -4 340q-1 6 -6.5 17.5t-5.5 17.5q0 30 55 30
q38 0 107 -18q85 -22 85 -47q0 -11 -22.5 -36.5t-24.5 -45.5q-8 -98 -8 -311v-121q0 -43 3 -126.5t3 -125.5q0 -20 15.5 -44l15.5 -24q0 -31 -68 -31q-164 0 -164 47q0 16 4.5 47.5t4.5 47.5q-98 -37 -168 -37q-133 0 -213 54q-93 64 -93 189zM192 1267q0 38 111 38
q17 0 22 -6q164 -188 301 -270q19 -11 19 -12q0 -10 -46.5 -36t-60.5 -26q-19 0 -28 6q-74 51 -180 145q-138 122 -138 161z" />
    <glyph glyph-name="uacute" unicode="&#xfa;" horiz-adv-x="883" 
d="M104 231q0 87 3.5 261.5t3.5 261.5q0 5 -5.5 15.5t-5.5 14.5q0 35 64 35q16 0 49 -3t50 -3q9 0 25 4.5t24 4.5q2 0 11 -12t9 -15q0 -12 -7.5 -24t-9.5 -19q-45 -220 -45 -495q0 -169 112 -169q94 0 206 76v244q0 288 -4 340q-1 6 -6.5 17.5t-5.5 17.5q0 30 55 30
q38 0 107 -18q85 -22 85 -47q0 -11 -22.5 -36.5t-24.5 -45.5q-8 -98 -8 -311v-121q0 -43 3 -126.5t3 -125.5q0 -20 15.5 -44l15.5 -24q0 -31 -68 -31q-164 0 -164 47q0 16 4.5 47.5t4.5 47.5q-98 -37 -168 -37q-133 0 -213 54q-93 64 -93 189zM686 1317q28 0 65 -24t37 -50
q0 -14 -177 -148q-181 -137 -212 -137q-23 0 -57.5 30t-34.5 52q0 7 15 7q51 27 174 117q130 95 161 132q17 21 29 21z" />
    <glyph glyph-name="ucircumflex" unicode="&#xfb;" horiz-adv-x="883" 
d="M104 231q0 87 3.5 261.5t3.5 261.5q0 5 -5.5 15.5t-5.5 14.5q0 35 64 35q16 0 49 -3t50 -3q9 0 25 4.5t24 4.5q2 0 11 -12t9 -15q0 -12 -7.5 -24t-9.5 -19q-45 -220 -45 -495q0 -169 112 -169q94 0 206 76v244q0 288 -4 340q-1 6 -6.5 17.5t-5.5 17.5q0 30 55 30
q38 0 107 -18q85 -22 85 -47q0 -11 -22.5 -36.5t-24.5 -45.5q-8 -98 -8 -311v-121q0 -43 3 -126.5t3 -125.5q0 -20 15.5 -44l15.5 -24q0 -31 -68 -31q-164 0 -164 47q0 16 4.5 47.5t4.5 47.5q-98 -37 -168 -37q-133 0 -213 54q-93 64 -93 189zM463 1087q-218 -120 -227 -120
q-13 0 -31.5 24t-18.5 37q0 7 13 19q110 99 258 219q10 0 121 -99q124 -111 137 -120q18 -25 18 -27q0 -6 -21 -24t-28 -18t-221 109z" />
    <glyph glyph-name="udieresis" unicode="&#xfc;" horiz-adv-x="883" 
d="M104 231q0 87 3.5 261.5t3.5 261.5q0 5 -5.5 15.5t-5.5 14.5q0 35 64 35q16 0 49 -3t50 -3q9 0 25 4.5t24 4.5q2 0 11 -12t9 -15q0 -12 -7.5 -24t-9.5 -19q-45 -220 -45 -495q0 -169 112 -169q94 0 206 76v244q0 288 -4 340q-1 6 -6.5 17.5t-5.5 17.5q0 30 55 30
q38 0 107 -18q85 -22 85 -47q0 -11 -22.5 -36.5t-24.5 -45.5q-8 -98 -8 -311v-121q0 -43 3 -126.5t3 -125.5q0 -20 15.5 -44l15.5 -24q0 -31 -68 -31q-164 0 -164 47q0 16 4.5 47.5t4.5 47.5q-98 -37 -168 -37q-133 0 -213 54q-93 64 -93 189zM168 1083q0 7 11.5 36
t16.5 31.5l17 8.5q2 1 12 24q7 16 35 16q152 0 152 -136q0 -39 -11 -56q-9 -13 -44 -34q-47 -28 -55 -28q-1 0 -50 13q-45 13 -51.5 20.5t-17.5 53.5q-15 61 -15 51zM626 1185q10 0 21.5 6.5t18.5 6.5q-1 0 25 -16q71 -46 71 -125q0 -36 -44.5 -69t-81.5 -33q-38 0 -79 36
t-41 72q0 40 17 76q21 44 55 49q-16 -3 38 -3z" />
    <glyph glyph-name="yacute" unicode="&#xfd;" horiz-adv-x="870" 
d="M101 619q0 99 -3 122q0 4 -2.5 11t-2.5 11q0 34 67 34q10 4 16 4q-12 0 27 -8h65q44 0 44 -55q0 -8 -12.5 -26.5t-14.5 -27.5q-9 -44 -9 -124q0 -231 17 -394q8 -81 101 -81q73 0 194 69q0 286 -15 483q-3 45 -20 135q-12 39 -12 35q0 25 21 25q5 0 15.5 -3.5t17.5 -3.5
q12 0 35.5 3t35.5 3q11 0 34 -2t35 -2q37 0 37 -36q0 -11 -12 -30t-12 -30q0 -196 8 -414q1 -30 8 -155q6 -95 6 -155q0 -368 -299 -368q-59 0 -179 19q-123 19 -177 37q-27 9 -27 36q0 21 19 37.5t40 16.5q11 0 93.5 -24.5t132.5 -24.5q79 0 138 29q75 37 75 108
q0 19 1 57.5t1 57.5q0 6 -1 19t-1 20q-98 -37 -171 -37q-116 0 -199 49q-97 57 -107 164q-8 78 -8 416zM684 1317q28 0 65 -24t37 -50q0 -14 -177 -148q-181 -137 -212 -137q-23 0 -57.5 30t-34.5 52q0 7 15 7q51 27 174 117q130 95 161 132q17 21 29 21z" />
    <glyph glyph-name="thorn" unicode="&#xfe;" horiz-adv-x="782" 
d="M412 725q-92 0 -117 -196q-7 -62 -7 -264q0 -114 -1 -88q2 -62 22.5 -72.5t45.5 -10.5q192 0 192 342q0 289 -135 289zM395 799q11 0 111 -23q31 -5 92 -26q66 -35 101 -158q26 -93 26 -195q0 -151 -65 -261q-78 -132 -220 -132q-55 0 -151 39q4 -229 16 -348
q0 -30 4 -90q1 -7 8 -20.5t7 -22.5q0 -35 -41 -35q-9 0 -21.5 9.5t-27.5 9.5q-8 0 -24 -2.5t-24 -2.5q-82 0 -82 70q0 46 6 124q7 94 8 125q7 197 7 494v361q0 196 -5 360q1 48 -5 142q-1 4 -7 13t-6 17q0 25 78 25q7 0 19 -4t18 -4h58q40 0 40 -41q0 -251 -10 -443z" />
    <glyph glyph-name="ydieresis" unicode="&#xff;" horiz-adv-x="893" 
d="M101 619q0 99 -3 122q0 4 -2.5 11t-2.5 11q0 34 67 34q10 4 16 4q-12 0 27 -8h65q44 0 44 -55q0 -8 -12.5 -26.5t-14.5 -27.5q-9 -44 -9 -124q0 -231 17 -394q8 -81 101 -81q73 0 194 69q0 286 -15 483q-3 45 -20 135q-12 39 -12 35q0 25 21 25q5 0 15.5 -3.5t17.5 -3.5
q12 0 35.5 3t35.5 3q11 0 34 -2t35 -2q37 0 37 -36q0 -11 -12 -30t-12 -30q0 -196 8 -414q1 -30 8 -155q6 -95 6 -155q0 -368 -299 -368q-59 0 -179 19q-123 19 -177 37q-27 9 -27 36q0 21 19 37.5t40 16.5q11 0 93.5 -24.5t132.5 -24.5q79 0 138 29q75 37 75 108
q0 19 1 57.5t1 57.5q0 6 -1 19t-1 20q-98 -37 -171 -37q-116 0 -199 49q-97 57 -107 164q-8 78 -8 416zM137 1083q0 7 11.5 36t16.5 31.5l17 8.5q2 1 12 24q7 16 35 16q152 0 152 -136q0 -39 -11 -56q-9 -13 -44 -34q-47 -28 -55 -28q-1 0 -50 13q-45 13 -51.5 20.5
t-17.5 53.5q-15 61 -15 51zM595 1185q10 0 21.5 6.5t18.5 6.5q-1 0 25 -16q71 -46 71 -125q0 -36 -44.5 -69t-81.5 -33q-38 0 -79 36t-41 72q0 40 17 76q21 44 55 49q-16 -3 38 -3z" />
    <glyph glyph-name="Abreve" unicode="&#x102;" horiz-adv-x="1186" 
d="M524 1436q19 0 56.5 -6.5t56.5 -6.5q12 0 35.5 4.5t36.5 4.5q91 0 100 -60q7 -67 27 -203q122 -654 329 -1149q3 -5 3 -10q0 -18 -19 -18q-8 0 -24 3t-25 3l-44.5 -13.5t-76.5 -13.5q-57 0 -68 45q-44 194 -94 369l-477 -35q-49 -138 -104 -405q-7 -31 -33 -31
q-61 0 -85 13q-33 25 -65 50q-18 14 -18 44q0 34 128 386l156 424q78 219 96 272q52 159 77 277q2 19 4 37q6 19 28 19zM786 496l-157 647l-250 -672zM646 1708q51 0 95 42q26 26 57 78q25 42 31 42t15 -5t14 -5t13.5 2.5t12.5 2.5q32 0 32 -36q0 -44 -71 -129
q-66 -80 -110.5 -103t-95.5 -23q-155 0 -233 199q-19 49 -19 58q0 26 42 26q6 0 18.5 5t18.5 5q23 0 45 -41q33 -63 45 -77q34 -41 90 -41z" />
    <glyph glyph-name="abreve" unicode="&#x103;" horiz-adv-x="807" 
d="M206 493q-34 0 -64 22q-33 25 -33 56q0 157 55 242q62 97 140 97q17 0 49 -7.5t48 -7.5q10 0 29 1t26 1q28 0 49 -14q26 -16 40 -19q157 -34 157 -239q0 -61 -6 -182.5t-6 -182.5v-136q0 -28 5.5 -84t5.5 -83q0 -51 -42 -51q-17 0 -51 1h-50q-54 0 -54 24q0 9 15.5 31.5
t15.5 41.5q0 18 -3 29q-80 -6 -138 -6q-116 0 -158 7q-82 15 -138 70q-10 3 -28 23q-15 31 -15 61q0 114 168 205q57 31 164 31q52 0 145 -25q-3 123 -7 247q-21 173 -113 173q-86 0 -111 -109q-12 -50 -12 -175q0 -18 -33 -32q-26 -10 -50 -10zM539 315l-42 1
q-125 3 -200 -46q-24 -15 -47 -47q-25 -36 -25 -61q0 -55 183 -55q73 0 133 14zM453 1076q51 0 95 42q26 26 57 78q25 42 31 42t15 -5t14 -5t13.5 2.5t12.5 2.5q32 0 32 -36q0 -44 -71 -129q-66 -80 -110.5 -103t-95.5 -23q-155 0 -233 199q-19 49 -19 58q0 26 42 26
q6 0 18.5 5t18.5 5q23 0 45 -41q33 -63 45 -77q34 -41 90 -41z" />
    <glyph glyph-name="Aogonek" unicode="&#x104;" horiz-adv-x="1186" 
d="M524 1436q19 0 56.5 -6.5t56.5 -6.5q12 0 35.5 4.5t36.5 4.5q91 0 100 -60q7 -67 27 -203q122 -654 329 -1149q3 -5 3 -10q0 -18 -19 -18q-8 0 -24 3t-25 3l-44.5 -13.5t-76.5 -13.5q-57 0 -68 45q-44 194 -94 369l-477 -35q-49 -138 -104 -405q-7 -31 -33 -31
q-61 0 -85 13q-33 25 -65 50q-18 14 -18 44q0 34 128 386l156 424q78 219 96 272q52 159 77 277q2 19 4 37q6 19 28 19zM786 496l-157 647l-250 -672zM1288 -331q0 -3 -13 -15q-120 -120 -219 -120q-174 0 -174 176q0 149 246 346l40 -37q-150 -150 -150 -260q0 -93 81 -93
q35 0 79.5 32.5t47.5 32.5q11 0 36.5 -25.5t25.5 -36.5z" />
    <glyph glyph-name="aogonek" unicode="&#x105;" horiz-adv-x="807" 
d="M206 493q-34 0 -64 22q-33 25 -33 56q0 157 55 242q62 97 140 97q17 0 49 -7.5t48 -7.5q10 0 29 1t26 1q28 0 49 -14q26 -16 40 -19q157 -34 157 -239q0 -61 -6 -182.5t-6 -182.5v-136q0 -28 5.5 -84t5.5 -83q0 -51 -42 -51q-17 0 -51 1h-50q-54 0 -54 24q0 9 15.5 31.5
t15.5 41.5q0 18 -3 29q-80 -6 -138 -6q-116 0 -158 7q-82 15 -138 70q-10 3 -28 23q-15 31 -15 61q0 114 168 205q57 31 164 31q52 0 145 -25q-3 123 -7 247q-21 173 -113 173q-86 0 -111 -109q-12 -50 -12 -175q0 -18 -33 -32q-26 -10 -50 -10zM539 315l-42 1
q-125 3 -200 -46q-24 -15 -47 -47q-25 -36 -25 -61q0 -55 183 -55q73 0 133 14zM823 -331q0 -3 -13 -15q-120 -120 -219 -120q-174 0 -174 176q0 149 246 346l40 -37q-150 -150 -150 -260q0 -93 81 -93q35 0 79.5 32.5t47.5 32.5q11 0 36.5 -25.5t25.5 -36.5z" />
    <glyph glyph-name="Cacute" unicode="&#x106;" horiz-adv-x="1032" 
d="M82 526q0 270 70 508q85 286 251 439q44 40 97 40q96 0 248 -47q106 -32 129 -114q49 -179 49 -432q0 -115 -19 -183q-9 -35 -49 -35q-129 0 -129 82q0 30 3 90.5t3 90.5q0 405 -117 405q-49 0 -98 -55q-235 -269 -235 -810q0 -179 56 -299q74 -161 232 -161
q105 0 246 76t142 76q32 0 32 -60q0 -27 -22 -53q-57 -67 -165 -112q-102 -42 -196 -42q-119 0 -235 66q-2 1 -81 37q-48 23 -73 49q-139 147 -139 444zM815 1917q28 0 65 -24t37 -50q0 -14 -177 -148q-181 -137 -212 -137q-23 0 -57.5 30t-34.5 52q0 7 15 7q51 27 174 117
q130 95 161 132q17 21 29 21z" />
    <glyph glyph-name="cacute" unicode="&#x107;" horiz-adv-x="752" 
d="M69 355q0 244 83 466q26 72 158 72q105 0 203 -41q123 -52 134 -139q19 -151 19 -201q0 -52 -9.5 -60t-60.5 -8q-7 0 -19.5 -2t-19.5 -2q-75 0 -75 116q0 14 1 38.5t1 33.5q0 165 -70 165q-41 0 -101 -93q-30 -46 -54 -182q-21 -120 -21 -192q0 -94 28 -164
q39 -94 119 -94q71 0 155.5 64.5t100.5 64.5q17 0 43 -13q31 -14 31 -28q0 -16 -49 -62q-105 -96 -256 -96q-182 0 -263 89q-78 85 -78 268zM646 1317q28 0 65 -24t37 -50q0 -14 -177 -148q-181 -137 -212 -137q-23 0 -57.5 30t-34.5 52q0 7 15 7q51 27 174 117
q130 95 161 132q17 21 29 21z" />
    <glyph glyph-name="Ccaron" unicode="&#x10c;" horiz-adv-x="1032" 
d="M82 526q0 270 70 508q85 286 251 439q44 40 97 40q96 0 248 -47q106 -32 129 -114q49 -179 49 -432q0 -115 -19 -183q-9 -35 -49 -35q-129 0 -129 82q0 30 3 90.5t3 90.5q0 405 -117 405q-49 0 -98 -55q-235 -269 -235 -810q0 -179 56 -299q74 -161 232 -161
q105 0 246 76t142 76q32 0 32 -60q0 -27 -22 -53q-57 -67 -165 -112q-102 -42 -196 -42q-119 0 -235 66q-2 1 -81 37q-48 23 -73 49q-139 147 -139 444zM610 1691q197 111 207 111q12 0 28.5 -22t16.5 -33q0 -10 -117.5 -97.5t-132.5 -87.5q-12 0 -130 91t-118 100
q0 6 19 22.5t26 16.5q15 0 201 -101z" />
    <glyph glyph-name="ccaron" unicode="&#x10d;" horiz-adv-x="752" 
d="M69 355q0 244 83 466q26 72 158 72q105 0 203 -41q123 -52 134 -139q19 -151 19 -201q0 -52 -9.5 -60t-60.5 -8q-7 0 -19.5 -2t-19.5 -2q-75 0 -75 116q0 14 1 38.5t1 33.5q0 165 -70 165q-41 0 -101 -93q-30 -46 -54 -182q-21 -120 -21 -192q0 -94 28 -164
q39 -94 119 -94q71 0 155.5 64.5t100.5 64.5q17 0 43 -13q31 -14 31 -28q0 -16 -49 -62q-105 -96 -256 -96q-182 0 -263 89q-78 85 -78 268zM419 1077q197 111 207 111q12 0 28.5 -22t16.5 -33q0 -10 -117.5 -97.5t-132.5 -87.5q-12 0 -130 91t-118 100q0 6 19 22.5t26 16.5
q15 0 201 -101z" />
    <glyph glyph-name="Dcaron" unicode="&#x10e;" horiz-adv-x="1241" 
d="M131 1414q0 42 49 42q24 0 71.5 -4t71.5 -4q33 0 98.5 3t98.5 3q244 0 383 -149.5t195 -250.5q80 -141 80 -304q0 -221 -123 -392q-221 -307 -504 -411q-95 -35 -162 -35q-20 0 -51 7q-40 10 -51 11q-104 14 -112 17q-59 19 -57 81l1 9q5 110 35 532q23 328 23 533
q0 174 -7 227q-2 15 -20.5 41.5t-18.5 43.5zM346 222v-128q110 0 242 72q193 105 308 289q118 189 118 405q0 276 -248 406q-51 27 -110 27q-149 0 -183 -7q-44 -8 -59 -30q-13 -17 -17 -64q-13 -239 -43 -715q-8 -123 -8 -255zM534 1704q197 111 207 111q12 0 28.5 -22
t16.5 -33q0 -10 -117.5 -97.5t-132.5 -87.5q-12 0 -130 91t-118 100q0 6 19 22.5t26 16.5q15 0 201 -101z" />
    <glyph glyph-name="dcaron" unicode="&#x10f;" horiz-adv-x="1047" 
d="M63 259q0 149 49 304q58 183 156 260q29 23 41 23q68 0 248 -41q1 90 0 235q-2 183 -2 236q0 35 61 35q13 0 34 -10.5t30 -12.5q36 -4 71 -8q44 -11 44 -48q0 -6 -8.5 -20t-10.5 -18q-10 -31 -14 -96q-47 -688 -47 -900q0 -163 6 -270q0 -10 6.5 -30.5t6.5 -30.5
q0 -12 -38 -25q-32 -10 -49 -10q-7 0 -19.5 4t-19.5 4q-4 0 -13.5 -1.5t-13.5 -1.5q-35 0 -38 59q-1 6 4 86q-124 -16 -223 -16q-3 0 -99 18q-162 30 -162 275zM551 576q0 54 -22 94q-27 49 -76 49q-112 0 -177 -204q-49 -153 -49 -298q0 -174 131 -174q75 0 189 57v167
q0 51 2 154.5t2 154.5zM1031 1460q29 0 77.5 -41.5t48.5 -67.5q0 -3 -13 -20q-136 -182 -215 -346q-8 -16 -23 -16q-22 0 -60.5 28.5t-38.5 49.5q0 43 94 194q100 164 108 195q7 24 22 24z" />
    <glyph glyph-name="dcroat" unicode="&#x111;" horiz-adv-x="817" 
d="M715 198q0 -145 6 -270q0 -10 6.5 -30.5t6.5 -31.5t-38 -23q-33 -11 -49 -11q-7 0 -19.5 4t-19.5 4q-4 0 -13.5 -1.5t-13.5 -1.5q-35 0 -38 59q-1 6 4 86q-124 -16 -223 -16q-1 0 -99 18q-162 29 -162 275q0 149 49 304q58 183 156 260q29 23 41 23q68 0 248 -41l1 180
q-149 -18 -161 -18q-47 0 -47 70q0 17 17 22q56 17 192 31q0 29 -2 93q-2 60 -2 93q0 35 61 35q13 0 34 -10.5t30 -12.5q35 -4 71 -8q44 -11 44 -48q0 -6 -8.5 -19.5t-10.5 -18.5q-10 -31 -14 -96q7 6 100 6q43 0 43 -57q0 -5 2.5 -13.5t2.5 -12.5l-5 -9q-21 -15 -151 -15
q-39 -542 -39 -799zM551 576q0 54 -22 94q-27 49 -76 49q-112 0 -177 -204q-49 -154 -49 -298q0 -174 131 -174q75 0 189 57v167q0 51 2 154t2 155z" />
    <glyph glyph-name="Eogonek" unicode="&#x118;" horiz-adv-x="1042" 
d="M152 1313q0 23 -12 56.5t-12 42.5q0 30 52 30q184 0 291 -4q141 -4 391 -23q49 -7 49 -53q0 -35 -51 -43q-74 -12 -206 -20q-151 -8 -208.5 -15t-62.5 -43q-1 -5 -11 -231l-20 -461l345 -6q46 2 132 -2q39 -6 39 -49q0 -48 -41 -56q-34 -7 -352 -37q-41 -5 -123 -12
q-4 -149 -4 -246q0 -63 58 -63q81 0 243.5 1t243.5 1q68 0 68 -43q0 -35 -54 -47q-100 -24 -322 -53q-227 -29 -320 -29q-130 0 -128 122v11q15 712 15 1272zM1074 -331q0 -3 -13 -15q-120 -120 -219 -120q-174 0 -174 176q0 149 246 346l40 -37q-150 -150 -150 -260
q0 -93 81 -93q35 0 79.5 32.5t47.5 32.5q11 0 36.5 -25.5t25.5 -36.5z" />
    <glyph glyph-name="eogonek" unicode="&#x119;" horiz-adv-x="748" 
d="M63 303q0 193 119 453q3 11 13 32q6 8 50.5 25t55.5 17q12 0 32.5 -5t28.5 -6q54 -3 108 -7q68 -8 97 -38q94 -96 94 -372q0 -102 -1 -106q-8 -71 -54 -71q-264 0 -383 -4q-1 -94 38 -156q46 -73 134 -73q61 0 153.5 55t115.5 55q18 0 44 -9q31 -12 31 -27q0 -25 -89 -75
q-73 -42 -111 -54q-28 -10 -67 -10q-20 0 -53 2q-40 3 -52 3q-126 5 -174 26q-72 34 -101 138.5t-29 206.5zM225 295l38 -1q101 -1 241 15q14 80 14 154q0 270 -92 270q-66 0 -126 -117q-42 -84 -62 -176q-13 -56 -13 -145zM802 -331q0 -3 -13 -15q-120 -120 -219 -120
q-174 0 -174 176q0 149 246 346l40 -37q-150 -150 -150 -260q0 -93 81 -93q35 0 79.5 32.5t47.5 32.5q11 0 36.5 -25.5t25.5 -36.5z" />
    <glyph glyph-name="Ecaron" unicode="&#x11a;" horiz-adv-x="1042" 
d="M152 1313q0 23 -12 56.5t-12 42.5q0 30 52 30q184 0 291 -4q141 -4 391 -23q49 -7 49 -53q0 -35 -51 -43q-74 -12 -206 -20q-151 -8 -208.5 -15t-62.5 -43q-1 -5 -11 -231l-20 -461l345 -6q46 2 132 -2q39 -6 39 -49q0 -48 -41 -56q-34 -7 -352 -37q-41 -5 -123 -12
q-4 -149 -4 -246q0 -63 58 -63q81 0 243.5 1t243.5 1q68 0 68 -43q0 -35 -54 -47q-100 -24 -322 -53q-227 -29 -320 -29q-130 0 -128 122v11q15 712 15 1272zM519 1704q197 111 207 111q12 0 28.5 -22t16.5 -33q0 -10 -117.5 -97.5t-132.5 -87.5q-12 0 -130 91t-118 100
q0 6 19 22.5t26 16.5q15 0 201 -101z" />
    <glyph glyph-name="ecaron" unicode="&#x11b;" horiz-adv-x="748" 
d="M63 303q0 193 119 453q3 11 13 32q6 8 50.5 25t55.5 17q12 0 32.5 -5t28.5 -6q54 -3 108 -7q68 -8 97 -38q94 -96 94 -372q0 -102 -1 -106q-8 -71 -54 -71q-264 0 -383 -4q-1 -94 38 -156q46 -73 134 -73q61 0 153.5 55t115.5 55q18 0 44 -9q31 -12 31 -27q0 -25 -89 -75
q-73 -42 -111 -54q-28 -10 -67 -10q-20 0 -53 2q-40 3 -52 3q-126 5 -174 26q-72 34 -101 138.5t-29 206.5zM225 295l38 -1q101 -1 241 15q14 80 14 154q0 270 -92 270q-66 0 -126 -117q-42 -84 -62 -176q-13 -56 -13 -145zM404 1077q197 111 207 111q12 0 28.5 -22
t16.5 -33q0 -10 -117.5 -97.5t-132.5 -87.5q-12 0 -130 91t-118 100q0 6 19 22.5t26 16.5q15 0 201 -101z" />
    <glyph glyph-name="Gbreve" unicode="&#x11e;" horiz-adv-x="1182" 
d="M690 -117q-612 0 -612 570q0 243 97 511q106 292 271 439q35 31 146 31q55 0 100 -25q36 -11 109 -37q12 -9 41 -24q11 0 32 -7q81 -45 129 -242q36 -151 36 -284q0 -60 -19 -72q-34 -20 -92 -20q-10 0 -56 12q-31 9 -36 72q-20 226 -22 241q-23 138 -91 220
q-27 32 -68 32q-27 0 -69 -25.5t-60 -49.5q-248 -332 -248 -799q0 -175 80 -306q94 -155 258 -155q111 0 201 74q80 66 125 176q7 16 6 36v21q-30 -1 -177 -8q-109 -6 -177 -6q-30 0 -61 22.5t-31 51.5q0 43 39 53q167 41 480 41q17 0 36 -16q41 -37 50 -56q11 -22 11 -75
q0 -161 -135 -281q-130 -115 -293 -115zM634 1703q51 0 95 42q26 26 57 78q25 42 31 42t15 -5t14 -5t13.5 2.5t12.5 2.5q32 0 32 -36q0 -44 -71 -129q-66 -80 -110.5 -103t-95.5 -23q-155 0 -233 199q-19 49 -19 58q0 26 42 26q6 0 18.5 5t18.5 5q23 0 45 -41q33 -63 45 -77
q34 -41 90 -41z" />
    <glyph glyph-name="gbreve" unicode="&#x11f;" horiz-adv-x="889" 
d="M299 195q-180 22 -180 215q0 283 143 442q21 23 53 23q40 0 111 -17q78 -18 113 -20q11 4 136 58q116 50 120 50q19 0 54.5 -24t35.5 -41q0 -34 -211 -133q67 -123 67 -230q0 -249 -176 -325q-56 -19 -166 -68q-106 -60 -106 -82q0 -19 67 -29l232 -28q173 -26 267 -71
q128 -62 128 -163q0 -86 -151 -139q-117 -41 -226 -41q-276 0 -450 43q-87 21 -116 36q-61 32 -62 91l-1 11q-2 97 240 208q-100 28 -100 90q0 111 178 144zM586 547q0 75 -21 135q-29 84 -90 84q-82 0 -148 -133q-57 -115 -57 -207q0 -80 32 -132q38 -65 112 -65
q172 0 172 318zM811 -240q0 44 -185 104q-167 54 -233 54q-50 0 -145 -60q-101 -63 -101 -108q0 -106 279 -106q90 0 215 25q170 35 170 91zM494 1076q51 0 95 42q26 26 57 78q25 42 31 42t15 -5t14 -5t13.5 2.5t12.5 2.5q32 0 32 -36q0 -44 -71 -129q-66 -80 -110.5 -103
t-95.5 -23q-155 0 -233 199q-19 49 -19 58q0 26 42 26q6 0 18.5 5t18.5 5q23 0 45 -41q33 -63 45 -77q34 -41 90 -41z" />
    <glyph glyph-name="Idotaccent" unicode="&#x130;" horiz-adv-x="504" 
d="M147 1233v160q0 5 -5 15t-5 17q0 15 33 25q25 8 44 8q-20 0 75 -12q119 -16 119 -57q0 -9 -8 -19q-9 -14 -11 -18q-11 -34 -29 -240q-43 -521 -43 -645q0 -333 5 -393q0 -8 7 -22t7 -20q0 -47 -67 -47q-156 0 -156 87q0 31 4 84q5 67 6 84q24 486 24 993zM164 1686
q0 52 37.5 97.5t87.5 45.5q37 0 75 -26q42 -29 42 -63q0 -63 -29 -111q-35 -56 -95 -56q-43 0 -80.5 34.5t-37.5 78.5z" />
    <glyph glyph-name="dotlessi" unicode="&#x131;" horiz-adv-x="522" 
d="M183 557q0 136 -15 221q-4 23 -4 27q0 15 20 26t36 11q14 0 34 -5q24 -5 33 -6q35 -3 71 -6q52 -9 52 -34q0 -11 -12.5 -22.5t-14.5 -18.5q-11 -38 -23 -170q-30 -351 -30 -493q0 -30 9 -56t9 -25q0 -32 -92 -32q-123 0 -123 38q0 8 5 22.5t5 20.5q40 275 40 502z" />
    <glyph glyph-name="Lacute" unicode="&#x139;" horiz-adv-x="879" 
d="M146 1006q0 250 -7 327q-1 10 -7.5 29t-6.5 31q0 49 65 49q13 0 34 -6q25 -7 34 -9q9 -1 24 1q19 2 24 2q26 0 50.5 -15t24.5 -39q0 -11 -7 -29q-8 -21 -9 -28q-17 -83 -19 -150q-8 -330 -8 -567q0 -244 10 -514q283 -9 434 -25q81 -8 81 -68q0 -22 -25 -26
q-88 -2 -263 -12q-180 -15 -309 -51q-134 112 -134 208q0 149 7 446t7 446zM477 1918q28 0 65 -24t37 -50q0 -14 -177 -148q-181 -137 -212 -137q-23 0 -57.5 30t-34.5 52q0 7 15 7q51 27 174 117q130 95 161 132q17 21 29 21z" />
    <glyph glyph-name="lacute" unicode="&#x13a;" horiz-adv-x="438" 
d="M147 805q0 63 -7 189.5t-7 189.5q0 48 30 48q11 0 60.5 -15.5t89.5 -15.5q57 0 57 -40q0 -10 -17.5 -42.5t-18.5 -47.5q-30 -317 -30 -655q0 -60 1.5 -178t1.5 -177q0 -9 7.5 -26t7.5 -27q0 -39 -42 -39q-180 0 -180 47q0 8 6 21.5t6 19.5q35 268 35 748zM397 1775
q28 0 65 -24t37 -50q0 -14 -177 -148q-181 -137 -212 -137q-23 0 -57.5 30t-34.5 52q0 7 15 7q51 27 174 117q130 95 161 132q17 21 29 21z" />
    <glyph glyph-name="Lcaron" unicode="&#x13d;" horiz-adv-x="879" 
d="M146 1006q0 250 -7 327q-1 10 -7.5 29t-6.5 31q0 49 65 49q13 0 34 -6q25 -7 34 -9q9 -1 24 1q19 2 24 2q26 0 50.5 -15t24.5 -39q0 -11 -7 -29q-8 -21 -9 -28q-17 -83 -19 -150q-8 -330 -8 -567q0 -244 10 -514q283 -9 434 -25q81 -8 81 -68q0 -22 -25 -26
q-88 -2 -263 -12q-180 -15 -309 -51q-134 112 -134 208q0 149 7 446t7 446zM664 1460q29 0 77.5 -41.5t48.5 -67.5q0 -3 -13 -20q-136 -182 -215 -346q-8 -16 -23 -16q-22 0 -60.5 28.5t-38.5 49.5q0 43 94 194q100 164 108 195q7 24 22 24z" />
    <glyph glyph-name="lcaron" unicode="&#x13e;" horiz-adv-x="639" 
d="M147 805q0 63 -7 189.5t-7 189.5q0 48 30 48q11 0 60.5 -15.5t89.5 -15.5q57 0 57 -40q0 -10 -17.5 -42.5t-18.5 -47.5q-30 -317 -30 -655q0 -60 1.5 -178t1.5 -177q0 -9 7.5 -26t7.5 -27q0 -39 -42 -39q-180 0 -180 47q0 8 6 21.5t6 19.5q35 268 35 748zM619 1460
q29 0 77.5 -41.5t48.5 -67.5q0 -3 -13 -20q-136 -182 -215 -346q-8 -16 -23 -16q-22 0 -60.5 28.5t-38.5 49.5q0 43 94 194q100 164 108 195q7 24 22 24z" />
    <glyph glyph-name="Lslash" unicode="&#x141;" horiz-adv-x="952" 
d="M385 604q24 16 147 88q127 76 132 76q24 0 24 -58q0 -45 -16 -59q-48 -38 -144 -87q-112 -58 -149 -83q0 -41 6 -393q279 -9 434 -25q54 -5 70 -34q11 -20 11 -34q0 -22 -26 -26q-47 -7 -130 -8q-100 -1 -132 -4q-180 -15 -309 -51q-134 112 -134 208q0 227 5 263
q-52 -34 -174 -96q-25 0 -25 57q0 40 17 53q31 25 92 58q73 39 96 55l-4 829q0 10 -7 29.5t-7 30.5q0 49 65 49q13 0 35.5 -6.5t32.5 -8.5q9 -1 25.5 1t22.5 2q26 0 48 -14q27 -15 27 -39q0 -11 -8 -29.5t-9 -28.5q-16 -218 -16 -715z" />
    <glyph glyph-name="lslash" unicode="&#x142;" horiz-adv-x="494" 
d="M178 498l-133 -86q-25 0 -25 55q0 32 16 45q43 33 148 102v52q0 86 -6 259t-6 259q0 48 27 48q14 0 63.5 -15.5t88.5 -15.5q58 0 58 -40q0 -10 -17.5 -42.5t-19.5 -47.5q-20 -234 -20 -336q132 86 133 86q25 0 25 -55q0 -32 -17 -45q-43 -33 -147 -103q-3 -76 -3 -239
q0 -51 1.5 -153.5t1.5 -153.5q0 -10 7.5 -27t7.5 -26q0 -40 -42 -40q-24 0 -85 8q-70 8 -79 15q-16 14 -16 33q0 4 8.5 21.5t9.5 27.5q21 183 21 414z" />
    <glyph glyph-name="Nacute" unicode="&#x143;" horiz-adv-x="1202" 
d="M212 1402q14 0 40 -5.5t39 -5.5q5 0 13 4t13 4q4 0 39 -6q65 -12 66 -12q31 -12 31 -52q0 -7 -6.5 -17.5t-6.5 -17.5q0 -168 140 -630q95 -317 243 -492q12 -14 23 -14q16 0 16 30q0 603 -22 1086q0 47 -6 137q-1 7 -6 18t-5 21q0 23 76 23q16 0 44.5 -4.5t44.5 -4.5
q46 0 46 -41q0 -58 -4.5 -174.5t-4.5 -174.5q0 -133 8 -398t8 -398q0 -246 -89 -258q-18 -2 -55 -2q-162 0 -221 76q-232 300 -328 852h-14l-1 -214q0 -254 5 -408q4 -141 7 -178q8 -118 26 -171q1 -4 10 -17q6 -11 6 -19q0 -14 -14 -18q-11 -2 -31 0q-25 3 -27 3
q-11 0 -33 -3t-33 -3q-104 0 -104 86q0 226 7.5 677t7.5 677q0 44 52 44zM874 1915q28 0 65 -24t37 -50q0 -14 -177 -148q-181 -137 -212 -137q-23 0 -57.5 30t-34.5 52q0 7 15 7q51 27 174 117q130 95 161 132q17 21 29 21z" />
    <glyph glyph-name="nacute" unicode="&#x144;" horiz-adv-x="897" 
d="M122 657q0 174 -3 201q-1 4 -4.5 11t-3.5 12q0 10 6 13t16 1l14 -2q6 0 17 3t16 3q158 0 158 -47q0 -6 -21 -37t-21 -55q0 -6 3 -17q98 46 261 46q227 0 227 -272q0 -80 -4.5 -241t-4.5 -241q0 -9 7.5 -26.5t7.5 -23.5q0 -14 -23 -14q-13 0 -40.5 -6t-41.5 -6q-4 0 -12 2
t-12 2q-38 0 -46 3q-19 7 -19 39l1 11q23 264 23 308q0 92 -15 292q-8 105 -99 105q-121 0 -183 -120q-49 -94 -49 -227q0 -271 12 -327q1 -4 4.5 -9.5t3.5 -10.5q0 -17 -64 -17q-7 0 -22 5t-23 5q-7 0 -21 -3t-22 -3q-13 0 -32 9q-23 9 -23 20q0 3 5 8.5t5 9.5
q22 146 22 596zM711 1317q28 0 65 -24t37 -50q0 -14 -177 -148q-181 -137 -212 -137q-23 0 -57.5 30t-34.5 52q0 7 15 7q51 27 174 117q130 95 161 132q17 21 29 21z" />
    <glyph glyph-name="Ncaron" unicode="&#x147;" horiz-adv-x="1202" 
d="M212 1402q14 0 40 -5.5t39 -5.5q5 0 13 4t13 4q4 0 39 -6q65 -12 66 -12q31 -12 31 -52q0 -7 -6.5 -17.5t-6.5 -17.5q0 -168 140 -630q95 -317 243 -492q12 -14 23 -14q16 0 16 30q0 603 -22 1086q0 47 -6 137q-1 7 -6 18t-5 21q0 23 76 23q16 0 44.5 -4.5t44.5 -4.5
q46 0 46 -41q0 -58 -4.5 -174.5t-4.5 -174.5q0 -133 8 -398t8 -398q0 -246 -89 -258q-18 -2 -55 -2q-162 0 -221 76q-232 300 -328 852h-14l-1 -214q0 -254 5 -408q4 -141 7 -178q8 -118 26 -171q1 -4 10 -17q6 -11 6 -19q0 -14 -14 -18q-11 -2 -31 0q-25 3 -27 3
q-11 0 -33 -3t-33 -3q-104 0 -104 86q0 226 7.5 677t7.5 677q0 44 52 44zM630 1686q197 111 207 111q12 0 28.5 -22t16.5 -33q0 -10 -117.5 -97.5t-132.5 -87.5q-12 0 -130 91t-118 100q0 6 19 22.5t26 16.5q15 0 201 -101z" />
    <glyph glyph-name="ncaron" unicode="&#x148;" horiz-adv-x="897" 
d="M122 657q0 174 -3 201q-1 4 -4.5 11t-3.5 12q0 10 6 13t16 1l14 -2q6 0 17 3t16 3q158 0 158 -47q0 -6 -21 -37t-21 -55q0 -6 3 -17q98 46 261 46q227 0 227 -272q0 -80 -4.5 -241t-4.5 -241q0 -9 7.5 -26.5t7.5 -23.5q0 -14 -23 -14q-13 0 -40.5 -6t-41.5 -6q-4 0 -12 2
t-12 2q-38 0 -46 3q-19 7 -19 39l1 11q23 264 23 308q0 92 -15 292q-8 105 -99 105q-121 0 -183 -120q-49 -94 -49 -227q0 -271 12 -327q1 -4 4.5 -9.5t3.5 -10.5q0 -17 -64 -17q-7 0 -22 5t-23 5q-7 0 -21 -3t-22 -3q-13 0 -32 9q-23 9 -23 20q0 3 5 8.5t5 9.5
q22 146 22 596zM475 1077q197 111 207 111q12 0 28.5 -22t16.5 -33q0 -10 -117.5 -97.5t-132.5 -87.5q-12 0 -130 91t-118 100q0 6 19 22.5t26 16.5q15 0 201 -101z" />
    <glyph glyph-name="Odblacute" unicode="&#x150;" horiz-adv-x="1202" 
d="M421 1441q26 0 69 -12q52 -14 69 -16q45 -1 133 -10q211 -42 330 -285q100 -203 100 -444q0 -215 -80 -421q-93 -237 -254 -333q-61 -37 -126 -37q-4 0 -146 29q-60 7 -178 41q-269 120 -269 599q0 93 9 204q15 205 77 380q81 233 214 295q21 10 52 10zM602 1311
q-174 0 -265 -286q-67 -207 -67 -433q0 -210 50 -369q73 -235 233 -235q208 0 316 252q81 190 81 430q0 373 -155 534q-103 107 -193 107zM1045 1903q28 0 65 -24t37 -50q0 -14 -177 -148q-181 -137 -212 -137q-23 0 -57.5 30t-34.5 52q0 7 14 7q52 27 174 117
q131 95 162 132q17 21 29 21zM750 1903q28 0 65 -24t37 -50q0 -14 -177 -148q-181 -137 -212 -137q-23 0 -57.5 30t-34.5 52q0 7 15 7q51 27 174 117q130 95 161 132q17 21 29 21z" />
    <glyph glyph-name="odblacute" unicode="&#x151;" horiz-adv-x="795" 
d="M63 307q0 295 123 496q10 19 31 49q62 25 73 25q20 0 56.5 -10.5t52.5 -12.5q49 -3 148 -27q117 -50 157 -218q23 -97 23 -285q0 -100 -35 -203q-42 -126 -112 -164q-50 -27 -123 -27q-18 0 -48.5 11t-46.5 12q-37 1 -110 14q-113 37 -156 133q-33 72 -33 207zM554 474
q0 274 -146 274q-87 0 -132 -181q-30 -123 -30 -248q0 -305 129 -305q103 0 149 189q30 122 30 271zM788 1317q28 0 65 -24t37 -50q0 -14 -177 -148q-181 -137 -212 -137q-23 0 -57.5 30t-34.5 52q0 7 14 7q52 27 174 117q131 95 162 132q17 21 29 21zM493 1317q28 0 65 -24
t37 -50q0 -14 -177 -148q-181 -137 -212 -137q-23 0 -57.5 30t-34.5 52q0 7 15 7q51 27 174 117q130 95 161 132q17 21 29 21z" />
    <glyph glyph-name="OE" unicode="&#x152;" horiz-adv-x="1634" 
d="M836 -59q-79 -58 -160 -58q-30 0 -73 11q-37 9 -73 18q-60 7 -178 41q-268 121 -268 599q0 263 55 476q74 289 234 397q22 16 62 16q26 0 69 -12q52 -14 69 -16q63 -6 125 -11q65 -9 119 -42q-16 36 -16 56q0 26 51 26q184 0 291 -4q144 -4 391 -23q49 -7 49 -53
q0 -36 -51 -43q-138 -10 -414 -35q-59 -6 -63 -43q-1 -6 -10 -208q-2 -46 -21 -484l329 -6q51 1 148 -2q39 -5 39 -49q0 -47 -41 -56q-35 -7 -352 -37q-41 -5 -123 -12q-4 -149 -4 -246q0 -63 57 -63q81 0 243.5 1t244.5 1q67 0 67 -43q0 -35 -53 -47q-100 -24 -322 -52
q-227 -30 -320 -30q-60 0 -101 33zM569 -12q122 0 242 123q2 41 12 1075q-111 125 -207 125q-174 0 -265 -286q-66 -207 -66 -433q0 -212 49 -369q73 -235 235 -235z" />
    <glyph glyph-name="oe" unicode="&#x153;" horiz-adv-x="1235" 
d="M616 -4q-53 -66 -170 -66q-18 0 -48 11t-46 12q-171 13 -238 99q-61 78 -61 255q0 139 37 284q43 167 117 261q11 2 31 8q4 2 17 11q8 6 25 6q19 0 54 -10q39 -11 55 -13q98 -10 145 -27q78 -27 113 -92q12 43 21 53q5 8 49.5 25t56.5 17q11 0 32 -5t30 -6q54 -3 108 -7
q67 -8 96 -38q94 -96 94 -372q0 -103 -1 -106q-8 -71 -54 -71q-264 0 -383 -4q0 -94 38 -156q46 -73 134 -73q61 0 153.5 55t115.5 55q18 0 44 -9q31 -12 31 -27q0 -25 -89 -75q-73 -42 -111 -54q-28 -10 -67 -10q-271 0 -329 69zM543 479q0 125 -25 180q-38 81 -145 81
q-68 0 -108 -186q-30 -134 -30 -235q0 -305 130 -305q103 0 149 192q29 121 29 273zM698 356v-61l38 -1q101 -1 241 15q14 80 14 154q0 270 -92 270q-84 0 -148 -151q-55 -128 -53 -226z" />
    <glyph glyph-name="Racute" unicode="&#x154;" horiz-adv-x="1167" 
d="M161 1399q0 5 -8 12.5t-8 13.5q0 21 4 27q9 15 79 26q57 9 91 9q120 0 272 -23q37 -11 111 -32q28 -7 84 -25q107 -48 206 -164q107 -127 107 -233q0 -133 -89 -233q-53 -60 -166 -129q-89 -55 -89 -76t126 -185q117 -151 155 -190q13 -14 49 -23q-76 -84 -125 -84
q-28 0 -55 27q-131 131 -400 387q-85 -25 -166 -31q2 -162 5 -308q-1 -42 3 -120q1 -6 6 -12.5t5 -18.5t-55 -25q-47 -12 -68 -12q-25 0 -66 14q-49 18 -49 38q0 -36 14 246q11 212 17 468q10 441 10 656zM433 1325q-50 0 -63 -70q-35 -193 -31 -596v-53q198 15 387 144
q215 146 215 327q0 164 -187 219q-101 29 -321 29zM807 1935q28 0 65 -24t37 -50q0 -14 -177 -148q-181 -137 -212 -137q-23 0 -57.5 30t-34.5 52q0 7 15 7q51 27 174 117q130 95 161 132q17 21 29 21z" />
    <glyph glyph-name="racute" unicode="&#x155;" horiz-adv-x="559" 
d="M130 626q0 112 -11 173q-1 4 -7 13t-6 15q0 28 32 28q8 0 23.5 -2.5t22.5 -2.5q11 0 32 1.5t31 1.5q111 0 111 -48l-28.5 -34t-28.5 -71q27 6 44 5h11q68 -4 160 -89q57 -52 57 -71q0 -16 -38.5 -34.5t-57.5 -18.5q-48 0 -63 24q-1 1 -23 68q-106 -24 -106 -142v-387
q0 -10 7 -29.5t7 -29.5q0 -49 -46 -49q-171 0 -171 54q0 7 3.5 21t4.5 19q40 308 40 585zM466 1317q28 0 65 -24t37 -50q0 -14 -177 -148q-181 -137 -212 -137q-23 0 -57.5 30t-34.5 52q0 7 15 7q51 27 174 117q130 95 161 132q17 21 29 21z" />
    <glyph glyph-name="Rcaron" unicode="&#x158;" horiz-adv-x="1167" 
d="M161 1399q0 5 -8 12.5t-8 13.5q0 21 4 27q9 15 79 26q57 9 91 9q120 0 272 -23q37 -11 111 -32q28 -7 84 -25q107 -48 206 -164q107 -127 107 -233q0 -133 -89 -233q-53 -60 -166 -129q-89 -55 -89 -76t126 -185q117 -151 155 -190q13 -14 49 -23q-76 -84 -125 -84
q-28 0 -55 27q-131 131 -400 387q-85 -25 -166 -31q2 -162 5 -308q-1 -42 3 -120q1 -6 6 -12.5t5 -18.5t-55 -25q-47 -12 -68 -12q-25 0 -66 14q-49 18 -49 38q0 -36 14 246q11 212 17 468q10 441 10 656zM433 1325q-50 0 -63 -70q-35 -193 -31 -596v-53q198 15 387 144
q215 146 215 327q0 164 -187 219q-101 29 -321 29zM570 1704q197 111 207 111q12 0 28.5 -22t16.5 -33q0 -10 -117.5 -97.5t-132.5 -87.5q-12 0 -130 91t-118 100q0 6 19 22.5t26 16.5q15 0 201 -101z" />
    <glyph glyph-name="rcaron" unicode="&#x159;" horiz-adv-x="559" 
d="M130 626q0 112 -11 173q-1 4 -7 13t-6 15q0 28 32 28q8 0 23.5 -2.5t22.5 -2.5q11 0 32 1.5t31 1.5q111 0 111 -48l-28.5 -34t-28.5 -71q27 6 44 5h11q68 -4 160 -89q57 -52 57 -71q0 -16 -38.5 -34.5t-57.5 -18.5q-48 0 -63 24q-1 1 -23 68q-106 -24 -106 -142v-387
q0 -10 7 -29.5t7 -29.5q0 -49 -46 -49q-171 0 -171 54q0 7 3.5 21t4.5 19q40 308 40 585zM276 1077q197 111 207 111q12 0 28.5 -22t16.5 -33q0 -10 -117.5 -97.5t-132.5 -87.5q-12 0 -130 91t-118 100q0 6 19 22.5t26 16.5q15 0 201 -101z" />
    <glyph glyph-name="Sacute" unicode="&#x15a;" horiz-adv-x="1079" 
d="M67 971q0 257 219 467q64 61 160 61q51 0 164 -37q99 -33 157 -63q172 -88 172 -533q0 -36 -8.5 -47.5t-42.5 -19.5l-41 -11q-37 0 -69 26q-35 27 -35 63q0 200 -16 287q-36 195 -152 195q-126 0 -222 -144q-86 -130 -86 -263q0 -129 101 -286q56 -88 137 -157
q41 -36 166 -124l184 -124q115 -91 115 -173q0 -103 -114 -156q-88 -41 -205 -41q-124 0 -341 46q-189 39 -335 88q-25 8 -25 26q0 28 39 51q35 20 65 19h13q33 -1 86 -18l84 -28q200 -57 330 -57q198 0 198 93q0 67 -181 193q-251 174 -336 261q-181 187 -181 406z
M825 1935q28 0 65 -24t37 -50q0 -14 -177 -148q-181 -137 -212 -137q-23 0 -57.5 30t-34.5 52q0 7 15 7q51 27 174 117q130 95 161 132q17 21 29 21z" />
    <glyph glyph-name="sacute" unicode="&#x15b;" horiz-adv-x="715" 
d="M86 493q0 100 23 192q31 120 90 167q11 2 34 8q6 2 13 12q5 7 21 7q27 0 71 -12q52 -13 72 -15q8 -1 24.5 0.5t21.5 1.5q10 0 21 -2q162 -35 162 -190q0 -179 -47 -197q-13 -5 -31 -5q-30 0 -64 19q-39 22 -39 50q0 14 3 43.5t3 44.5q0 153 -54 153q-58 0 -106 -89
q-44 -79 -43 -146l1 -62q2 -100 101 -152l184 -70q99 -42 99 -119q0 -150 -302 -150q-132 0 -250 20q-49 9 -49 57q0 64 56 64q22 0 96 -32t129 -32q145 0 145 66q0 37 -100 71q-135 46 -185 84q-100 75 -100 213zM592 1317q28 0 65 -24t37 -50q0 -14 -177 -148
q-181 -137 -212 -137q-23 0 -57.5 30t-34.5 52q0 7 15 7q51 27 174 117q130 95 161 132q17 21 29 21z" />
    <glyph glyph-name="Scedilla" unicode="&#x15e;" horiz-adv-x="1079" 
d="M67 971q0 257 219 467q64 61 160 61q51 0 164 -37q99 -33 157 -63q172 -88 172 -533q0 -36 -8.5 -47.5t-42.5 -19.5l-41 -11q-37 0 -69 26q-35 27 -35 63q0 200 -16 287q-36 195 -152 195q-126 0 -222 -144q-86 -130 -86 -263q0 -129 101 -286q56 -88 137 -157
q41 -36 166 -124l184 -124q115 -91 115 -173q0 -103 -114 -156q-88 -41 -205 -41q-124 0 -341 46q-189 39 -335 88q-25 8 -25 26q0 28 39 51q35 20 65 19h13q33 -1 86 -18l84 -28q200 -57 330 -57q198 0 198 93q0 67 -181 193q-251 174 -336 261q-181 187 -181 406zM550 -37
q54 0 54 -40q0 11 -62 -136l13 1q86 0 156 -29q93 -38 93 -113q0 -93 -131 -158q-110 -55 -213 -55q-31 0 -62 16q-36 19 -36 48q0 9 12 28q16 24 41 26q-19 -1 50 -1q107 0 210 90q-78 43 -133 43q-26 0 -56 -13.5l-30 -13.5q-9 0 -36.5 17t-27.5 25q0 -4 89 218
q19 47 69 47z" />
    <glyph glyph-name="scedilla" unicode="&#x15f;" horiz-adv-x="715" 
d="M86 493q0 100 23 192q31 120 90 167q11 2 34 8q6 2 13 12q5 7 21 7q27 0 71 -12q52 -13 72 -15q8 -1 24.5 0.5t21.5 1.5q10 0 21 -2q162 -35 162 -190q0 -179 -47 -197q-13 -5 -31 -5q-30 0 -64 19q-39 22 -39 50q0 14 3 43.5t3 44.5q0 153 -54 153q-58 0 -106 -89
q-44 -79 -43 -146l1 -62q2 -100 101 -152l184 -70q99 -42 99 -119q0 -150 -302 -150q-132 0 -250 20q-49 9 -49 57q0 64 56 64q22 0 96 -32t129 -32q145 0 145 66q0 37 -100 71q-135 46 -185 84q-100 75 -100 213zM343 63q54 0 54 -40q0 11 -62 -136l13 1q86 0 156 -29
q93 -38 93 -113q0 -93 -131 -158q-110 -55 -213 -55q-31 0 -62 16q-36 19 -36 48q0 9 12 28q16 24 41 26q-19 -1 50 -1q107 0 210 90q-78 43 -133 43q-26 0 -56 -13.5l-30 -13.5q-9 0 -36.5 17t-27.5 25q0 -4 89 218q19 47 69 47z" />
    <glyph glyph-name="Scaron" unicode="&#x160;" horiz-adv-x="1079" 
d="M67 971q0 257 219 467q64 61 160 61q51 0 164 -37q99 -33 157 -63q172 -88 172 -533q0 -36 -8.5 -47.5t-42.5 -19.5l-41 -11q-37 0 -69 26q-35 27 -35 63q0 200 -16 287q-36 195 -152 195q-126 0 -222 -144q-86 -130 -86 -263q0 -129 101 -286q56 -88 137 -157
q41 -36 166 -124l184 -124q115 -91 115 -173q0 -103 -114 -156q-88 -41 -205 -41q-124 0 -341 46q-189 39 -335 88q-25 8 -25 26q0 28 39 51q35 20 65 19h13q33 -1 86 -18l84 -28q200 -57 330 -57q198 0 198 93q0 67 -181 193q-251 174 -336 261q-181 187 -181 406z
M606 1697q197 111 207 111q12 0 28.5 -22t16.5 -33q0 -10 -117.5 -97.5t-132.5 -87.5q-12 0 -130 91t-118 100q0 6 19 22.5t26 16.5q15 0 201 -101z" />
    <glyph glyph-name="scaron" unicode="&#x161;" horiz-adv-x="715" 
d="M86 493q0 100 23 192q31 120 90 167q11 2 34 8q6 2 13 12q5 7 21 7q27 0 71 -12q52 -13 72 -15q8 -1 24.5 0.5t21.5 1.5q10 0 21 -2q162 -35 162 -190q0 -179 -47 -197q-13 -5 -31 -5q-30 0 -64 19q-39 22 -39 50q0 14 3 43.5t3 44.5q0 153 -54 153q-58 0 -106 -89
q-44 -79 -43 -146l1 -62q2 -100 101 -152l184 -70q99 -42 99 -119q0 -150 -302 -150q-132 0 -250 20q-49 9 -49 57q0 64 56 64q22 0 96 -32t129 -32q145 0 145 66q0 37 -100 71q-135 46 -185 84q-100 75 -100 213zM383 1077q197 111 207 111q12 0 28.5 -22t16.5 -33
q0 -10 -117.5 -97.5t-132.5 -87.5q-12 0 -130 91t-118 100q0 6 19 22.5t26 16.5q15 0 201 -101z" />
    <glyph glyph-name="Tcedilla" unicode="&#x162;" horiz-adv-x="1126" 
d="M12 1403q0 16 29 29q24 11 43 12q541 12 684 12q88 0 200 -11q165 -16 165 -44q0 -23 -29 -31q-2 -1 -57 -6q-266 -27 -336 -59q-26 -12 -29 -52q-2 -24 -6 -188q-20 -796 -20 -831q0 -171 1 -193q1 -12 13 -30t12 -26q0 -32 -103 -32q-84 0 -107 6q-61 15 -61 73
q0 13 5 33q7 24 8 33q13 110 16 226q25 755 25 921q0 44 -27 51q-184 24 -393 62q-33 18 -33 45zM560 63q54 0 54 -40q0 11 -62 -136l13 1q86 0 156 -29q93 -38 93 -113q0 -93 -131 -158q-110 -55 -213 -55q-31 0 -62 16q-36 19 -36 48q0 9 12 28q16 24 41 26q-19 -1 50 -1
q107 0 210 90q-78 43 -133 43q-26 0 -56 -13.5l-30 -13.5q-9 0 -36.5 17t-27.5 25q0 -4 89 218q19 47 69 47z" />
    <glyph glyph-name="tcedilla" unicode="&#x163;" horiz-adv-x="535" 
d="M168 748q-90 -11 -94 -11q-19 0 -35 28q-13 24 -13 45q0 20 65 29q41 3 83 7v207q0 13 -12.5 39t-12.5 29q0 30 21 30q3 0 9 -3t9 -3q4 0 10.5 2t10.5 2q14 0 42 -8t42 -8q5 0 16 1t17 1q53 0 53 -29q0 -12 -9.5 -32.5t-11.5 -31.5q-7 -69 -14 -180q131 4 162 4
q43 0 43 -57q0 -5 2 -13t2 -12l-4 -10q-19 -14 -211 -14q-13 -317 -13 -564q0 -121 11 -151q12 -34 12 -27q0 -26 -160 -26q-17 0 -39 11t-22 27q7 26 16 70q25 354 25 648zM252 63q54 0 54 -40q0 11 -62 -136l13 1q86 0 156 -29q93 -38 93 -113q0 -93 -131 -158
q-110 -55 -213 -55q-31 0 -62 16q-36 19 -36 48q0 9 12 28q16 24 41 26q-19 -1 50 -1q107 0 210 90q-78 43 -133 43q-26 0 -56 -13.5l-30 -13.5q-9 0 -36.5 17t-27.5 25q0 -4 89 218q19 47 69 47z" />
    <glyph glyph-name="Tcaron" unicode="&#x164;" horiz-adv-x="1126" 
d="M12 1403q0 16 29 29q24 11 43 12q541 12 684 12q88 0 200 -11q165 -16 165 -44q0 -23 -29 -31q-2 -1 -57 -6q-266 -27 -336 -59q-26 -12 -29 -52q-2 -24 -6 -188q-20 -796 -20 -831q0 -171 1 -193q1 -12 13 -30t12 -26q0 -32 -103 -32q-84 0 -107 6q-61 15 -61 73
q0 13 5 33q7 24 8 33q13 110 16 226q25 755 25 921q0 44 -27 51q-184 24 -393 62q-33 18 -33 45zM566 1704q197 111 207 111q12 0 28.5 -22t16.5 -33q0 -10 -117.5 -97.5t-132.5 -87.5q-12 0 -130 91t-118 100q0 6 19 22.5t26 16.5q15 0 201 -101z" />
    <glyph glyph-name="tcaron" unicode="&#x165;" horiz-adv-x="678" 
d="M167 749q-90 -11 -94 -11q-19 0 -35 28q-13 24 -13 45q0 20 65 29q41 3 83 7v207q0 13 -12.5 39t-12.5 29q0 30 21 30q3 0 9 -3t9 -3q4 0 10.5 2t10.5 2q14 0 42 -8t42 -8q5 0 16 1t17 1q53 0 53 -29q0 -12 -9.5 -32.5t-11.5 -31.5q-7 -69 -14 -180q131 4 162 4
q43 0 43 -57q0 -5 2 -13t2 -12l-4 -10q-19 -14 -211 -14q-13 -317 -13 -564q0 -121 11 -151q12 -34 12 -27q0 -26 -160 -26q-17 0 -39 11t-22 27q7 26 16 70q25 354 25 648zM692 1460q29 0 77.5 -41.5t48.5 -67.5q0 -3 -13 -20q-136 -182 -215 -346q-8 -16 -23 -16
q-22 0 -60.5 28.5t-38.5 49.5q0 43 94 194q100 164 108 195q7 24 22 24z" />
    <glyph glyph-name="Uring" unicode="&#x16e;" horiz-adv-x="1178" 
d="M166 1296q0 7 -8 19t-8 22q0 13 34 24q29 9 45 9q10 0 27.5 -3.5t24.5 -4.5q64 -7 85 -15q47 -18 47 -64q0 -18 -10 -41q-12 -27 -14 -38q-39 -223 -39 -510q0 -216 37 -430q32 -184 251 -184q84 0 157 35q30 838 30 1233q0 5 -7 14t-7 18q0 23 18 23q4 0 10.5 -3
t12.5 -3q2 0 15.5 5t21.5 5q13 0 39 -13t41 -13q5 0 16.5 3t17.5 3q63 0 63 -52q0 -16 -9 -90q-61 -490 -61 -881q0 -255 16 -382q1 -9 7.5 -26.5t6.5 -29.5q0 -49 -125 -49q-5 0 -13.5 3t-13.5 3q-4 0 -14 -2t-14 -2q-41 0 -49 30q-2 5 -4 63v30q-115 -8 -172 -8
q-302 0 -399 168q-69 117 -69 434q0 117 6.5 350.5t6.5 349.5zM456 1665q0 88 44 141q47 58 134 58q78 0 131.5 -54.5t53.5 -133.5q0 -76 -49 -124.5t-125 -48.5q-74 0 -129 44q-60 47 -60 118zM641 1766q-38 0 -61 -26.5t-23 -64.5q0 -31 25.5 -54t58.5 -23t55.5 23.5
t22.5 57.5q0 32 -23 59.5t-55 27.5z" />
    <glyph glyph-name="uring" unicode="&#x16f;" horiz-adv-x="883" 
d="M104 231q0 87 3.5 261.5t3.5 261.5q0 5 -5.5 15.5t-5.5 14.5q0 35 64 35q16 0 49 -3t50 -3q9 0 25 4.5t24 4.5q2 0 11 -12t9 -15q0 -12 -7.5 -24t-9.5 -19q-45 -220 -45 -495q0 -169 112 -169q94 0 206 76v244q0 288 -4 340q-1 6 -6.5 17.5t-5.5 17.5q0 30 55 30
q38 0 107 -18q85 -22 85 -47q0 -11 -22.5 -36.5t-24.5 -45.5q-8 -98 -8 -311v-121q0 -43 3 -126.5t3 -125.5q0 -20 15.5 -44l15.5 -24q0 -31 -68 -31q-164 0 -164 47q0 16 4.5 47.5t4.5 47.5q-98 -37 -168 -37q-133 0 -213 54q-93 64 -93 189zM294 1120q0 88 44 141
q47 58 134 58q78 0 131.5 -54.5t53.5 -133.5q0 -76 -49 -124.5t-125 -48.5q-74 0 -129 44q-60 47 -60 118zM479 1221q-38 0 -61 -26.5t-23 -64.5q0 -31 25.5 -54t58.5 -23t55.5 23.5t22.5 57.5q0 32 -23 59.5t-55 27.5z" />
    <glyph glyph-name="Udblacute" unicode="&#x170;" horiz-adv-x="1178" 
d="M166 1296q0 7 -8 19t-8 22q0 13 34 24q29 9 45 9q10 0 27.5 -3.5t24.5 -4.5q64 -7 85 -15q47 -18 47 -64q0 -18 -10 -41q-12 -27 -14 -38q-39 -223 -39 -510q0 -216 37 -430q32 -184 251 -184q84 0 157 35q30 838 30 1233q0 5 -7 14t-7 18q0 23 18 23q4 0 10.5 -3
t12.5 -3q2 0 15.5 5t21.5 5q13 0 39 -13t41 -13q5 0 16.5 3t17.5 3q63 0 63 -52q0 -16 -9 -90q-61 -490 -61 -881q0 -255 16 -382q1 -9 7.5 -26.5t6.5 -29.5q0 -49 -125 -49q-5 0 -13.5 3t-13.5 3q-4 0 -14 -2t-14 -2q-41 0 -49 30q-2 5 -4 63v30q-115 -8 -172 -8
q-302 0 -399 168q-69 117 -69 434q0 117 6.5 350.5t6.5 349.5zM1029 1903q28 0 65 -24t37 -50q0 -14 -177 -148q-181 -137 -212 -137q-23 0 -57.5 30t-34.5 52q0 7 14 7q52 27 174 117q131 95 162 132q17 21 29 21zM734 1903q28 0 65 -24t37 -50q0 -14 -177 -148
q-181 -137 -212 -137q-23 0 -57.5 30t-34.5 52q0 7 15 7q51 27 174 117q130 95 161 132q17 21 29 21z" />
    <glyph glyph-name="udblacute" unicode="&#x171;" horiz-adv-x="883" 
d="M104 231q0 87 3.5 261.5t3.5 261.5q0 5 -5.5 15.5t-5.5 14.5q0 35 64 35q16 0 49 -3t50 -3q9 0 25 4.5t24 4.5q2 0 11 -12t9 -15q0 -12 -7.5 -24t-9.5 -19q-45 -220 -45 -495q0 -169 112 -169q94 0 206 76v244q0 288 -4 340q-1 6 -6.5 17.5t-5.5 17.5q0 30 55 30
q38 0 107 -18q85 -22 85 -47q0 -11 -22.5 -36.5t-24.5 -45.5q-8 -98 -8 -311v-121q0 -43 3 -126.5t3 -125.5q0 -20 15.5 -44l15.5 -24q0 -31 -68 -31q-164 0 -164 47q0 16 4.5 47.5t4.5 47.5q-98 -37 -168 -37q-133 0 -213 54q-93 64 -93 189zM857 1317q28 0 65 -24t37 -50
q0 -14 -177 -148q-181 -137 -212 -137q-23 0 -57.5 30t-34.5 52q0 7 14 7q52 27 174 117q131 95 162 132q17 21 29 21zM562 1317q28 0 65 -24t37 -50q0 -14 -177 -148q-181 -137 -212 -137q-23 0 -57.5 30t-34.5 52q0 7 15 7q51 27 174 117q130 95 161 132q17 21 29 21z" />
    <glyph glyph-name="Ydieresis" unicode="&#x178;" horiz-adv-x="1270" 
d="M14 1360q0 11 15.5 24t27.5 13q132 0 176 -82q152 -283 334 -676l6 2q80 153 288 509q50 89 155 263q13 21 41 21q7 0 74.5 -31t74.5 -37q13 -11 13 -31q0 -9 -36 -36q-40 -29 -46 -39q-267 -397 -457 -828q-3 -59 -3 -139q0 -123 9 -216q1 -10 7 -45q5 -29 5 -44
q0 -25 -114 -25q-101 0 -101 66q0 28 3.5 84t3.5 84q0 222 -39 311q-135 302 -286 591q-36 74 -116 216q-2 3 -20 22q-15 14 -15 23zM331 1672q0 7 11.5 36t16.5 31.5l17 8.5q2 1 12 24q7 16 35 16q152 0 152 -136q0 -39 -11 -56q-9 -13 -44 -34q-47 -28 -55 -28
q-1 0 -50 13q-45 13 -51.5 20.5t-17.5 53.5q-15 61 -15 51zM789 1774q10 0 21.5 6.5t18.5 6.5q-1 0 25 -16q71 -46 71 -125q0 -36 -44.5 -69t-81.5 -33q-38 0 -79 36t-41 72q0 40 17 76q21 44 55 49q-16 -3 38 -3z" />
    <glyph glyph-name="Zacute" unicode="&#x179;" horiz-adv-x="981" 
d="M33 1386q0 10 67 15q336 22 456 22q184 0 275 -12q66 -9 66 -67q0 -47 -29 -103q-18 -35 -305 -575q-268 -502 -268 -506q0 -10 18 -13q13 -2 37 -1q34 2 30 2q24 0 269 -5q72 2 211 -8q60 -9 60 -55q0 -27 -31 -35q-7 -2 -171 -19q-210 -22 -362 -42q-49 -7 -103 -7
q-79 0 -95 4q-38 10 -74 56q-29 37 -29 78q0 33 305.5 583.5t305.5 570.5q0 16 -39 19q-57 5 -150 5v0q-129 -1 -358 12q-54 8 -68 19q-18 15 -18 62zM734 1895q28 0 65 -24t37 -50q0 -14 -177 -148q-181 -137 -212 -137q-23 0 -57.5 30t-34.5 52q0 7 15 7q51 27 174 117
q130 95 161 132q17 21 29 21z" />
    <glyph glyph-name="zacute" unicode="&#x17a;" horiz-adv-x="743" 
d="M73 734q0 12 12.5 25t24.5 13q19 0 59.5 -5.5t60.5 -5.5q50 0 149.5 6.5t148.5 6.5q32 0 81 -22.5t67 -46.5q0 -1 15 -14q9 -9 9 -17q0 -2 -26 -35q-197 -245 -400 -549q309 33 351 33q25 0 45 -31q18 -27 18 -55q0 -33 -52 -33q-32 0 -97.5 5t-98.5 5q-53 0 -160 -10
t-160 -10q-26 0 -47.5 24.5t-21.5 50.5q0 16 8 27q141 194 424 557q-74 11 -120 11q-24 0 -62 -3q-49 -3 -61 -4q-21 0 -63 -15.5t-47 -15.5q-28 0 -45 42q-12 31 -12 66zM617 1297q28 0 65 -24t37 -50q0 -14 -177 -148q-181 -137 -212 -137q-23 0 -57.5 30t-34.5 52
q0 7 15 7q51 27 174 117q130 95 161 132q17 21 29 21z" />
    <glyph glyph-name="Zdot" unicode="&#x17b;" horiz-adv-x="981" 
d="M33 1386q0 10 67 15q336 22 456 22q184 0 275 -12q66 -9 66 -67q0 -47 -29 -103q-18 -35 -305 -575q-268 -502 -268 -506q0 -10 18 -13q13 -2 37 -1q34 2 30 2q24 0 269 -5q72 2 211 -8q60 -9 60 -55q0 -27 -31 -35q-7 -2 -171 -19q-210 -22 -362 -42q-49 -7 -103 -7
q-79 0 -95 4q-38 10 -74 56q-29 37 -29 78q0 33 305.5 583.5t305.5 570.5q0 16 -39 19q-57 5 -150 5v0q-129 -1 -358 12q-54 8 -68 19q-18 15 -18 62zM410 1667q0 52 37.5 97.5t87.5 45.5q37 0 75 -26q42 -29 42 -63q0 -63 -29 -111q-35 -56 -95 -56q-43 0 -80.5 34.5
t-37.5 78.5z" />
    <glyph glyph-name="zdot" unicode="&#x17c;" horiz-adv-x="743" 
d="M73 734q0 12 12.5 25t24.5 13q19 0 59.5 -5.5t60.5 -5.5q50 0 149.5 6.5t148.5 6.5q32 0 81 -22.5t67 -46.5q0 -1 15 -14q9 -9 9 -17q0 -2 -26 -35q-197 -245 -400 -549q309 33 351 33q25 0 45 -31q18 -27 18 -55q0 -33 -52 -33q-32 0 -97.5 5t-98.5 5q-53 0 -160 -10
t-160 -10q-26 0 -47.5 24.5t-21.5 50.5q0 16 8 27q141 194 424 557q-74 11 -120 11q-24 0 -62 -3q-49 -3 -61 -4q-21 0 -63 -15.5t-47 -15.5q-28 0 -45 42q-12 31 -12 66zM287 1061q0 52 37.5 97.5t87.5 45.5q37 0 75 -26q42 -29 42 -63q0 -63 -29 -111q-35 -56 -95 -56
q-43 0 -80.5 34.5t-37.5 78.5z" />
    <glyph glyph-name="Zcaron" unicode="&#x17d;" horiz-adv-x="981" 
d="M33 1386q0 10 67 15q336 22 456 22q184 0 275 -12q66 -9 66 -67q0 -47 -29 -103q-18 -35 -305 -575q-268 -502 -268 -506q0 -10 18 -13q13 -2 37 -1q34 2 30 2q24 0 269 -5q72 2 211 -8q60 -9 60 -55q0 -27 -31 -35q-7 -2 -171 -19q-210 -22 -362 -42q-49 -7 -103 -7
q-79 0 -95 4q-38 10 -74 56q-29 37 -29 78q0 33 305.5 583.5t305.5 570.5q0 16 -39 19q-57 5 -150 5v0q-129 -1 -358 12q-54 8 -68 19q-18 15 -18 62zM568 1707q197 111 207 111q12 0 28.5 -22t16.5 -33q0 -10 -117.5 -97.5t-132.5 -87.5q-12 0 -130 91t-118 100
q0 6 19 22.5t26 16.5q15 0 201 -101z" />
    <glyph glyph-name="zcaron" unicode="&#x17e;" horiz-adv-x="743" 
d="M73 734q0 12 12.5 25t24.5 13q19 0 59.5 -5.5t60.5 -5.5q50 0 149.5 6.5t148.5 6.5q32 0 81 -22.5t67 -46.5q0 -1 15 -14q9 -9 9 -17q0 -2 -26 -35q-197 -245 -400 -549q309 33 351 33q25 0 45 -31q18 -27 18 -55q0 -33 -52 -33q-32 0 -97.5 5t-98.5 5q-53 0 -160 -10
t-160 -10q-26 0 -47.5 24.5t-21.5 50.5q0 16 8 27q141 194 424 557q-74 11 -120 11q-24 0 -62 -3q-49 -3 -61 -4q-21 0 -63 -15.5t-47 -15.5q-28 0 -45 42q-12 31 -12 66zM399 1077q197 111 207 111q12 0 28.5 -22t16.5 -33q0 -10 -117.5 -97.5t-132.5 -87.5q-12 0 -130 91
t-118 100q0 6 19 22.5t26 16.5q15 0 201 -101z" />
    <glyph glyph-name="florin" unicode="&#x192;" horiz-adv-x="969" 
d="M352 637q-98 -8 -137 -8q-49 0 -49 76q0 16 20 16q108 0 176 6l37 293q12 89 70 156q89 102 180 102q40 0 130 -37q81 -33 122 -61q37 -26 37 -54q0 -33 -40 -33q-38 0 -85 37t-72 37q-89 0 -143 -73q-41 -56 -84 -357q63 4 111 4q161 0 161 -71q0 -33 -168 -33
q-53 0 -120 6l-76 -534q-67 -469 -342 -469q-58 0 -161 40q-116 46 -116 89q0 31 60 31q6 0 66 -39.5t102 -39.5q179 0 254 469q24 149 67 447z" />
    <glyph glyph-name="circumflex" unicode="&#x2c6;" horiz-adv-x="610" 
d="M295 1087q-218 -120 -227 -120q-13 0 -31.5 24t-18.5 37q0 7 13 19q110 99 258 219q10 0 121 -99q124 -111 137 -120q18 -25 18 -27q0 -6 -21 -24t-28 -18t-221 109z" />
    <glyph glyph-name="caron" unicode="&#x2c7;" horiz-adv-x="518" 
d="M262 1077q197 111 207 111q12 0 28.5 -22t16.5 -33q0 -10 -117.5 -97.5t-132.5 -87.5q-12 0 -130 91t-118 100q0 6 19 22.5t26 16.5q15 0 201 -101z" />
    <glyph glyph-name="macron" unicode="&#x2c9;" horiz-adv-x="492" 
d="M84 1121q0 21 21 21q13 0 40.5 -3.5t40.5 -3.5q36 0 107 6t106 6q22 0 38 -40q14 -33 14 -60q0 -28 -16 -28q-6 0 -15.5 7.5t-16.5 7.5q-18 0 -120 -10q-15 -1 -77 -12q-51 -8 -73 -8q-18 0 -35 50q-14 42 -14 67z" />
    <glyph glyph-name="breve" unicode="&#x2d8;" horiz-adv-x="548" 
d="M279 1076q51 0 95 42q26 26 57 78q25 42 31 42t15 -5t14 -5t13.5 2.5t12.5 2.5q32 0 32 -36q0 -44 -71 -129q-66 -80 -110.5 -103t-95.5 -23q-155 0 -233 199q-19 49 -19 58q0 26 42 26q6 0 18.5 5t18.5 5q23 0 45 -41q33 -63 45 -77q34 -41 90 -41z" />
    <glyph glyph-name="dotaccent" unicode="&#x2d9;" horiz-adv-x="434" 
d="M98 1061q0 52 37.5 97.5t87.5 45.5q37 0 75 -26q42 -29 42 -63q0 -63 -29 -111q-35 -56 -95 -56q-43 0 -80.5 34.5t-37.5 78.5z" />
    <glyph glyph-name="ring" unicode="&#x2da;" horiz-adv-x="383" 
d="M14 1120q0 88 44 141q47 58 134 58q78 0 131.5 -54.5t53.5 -133.5q0 -76 -49 -124.5t-125 -48.5q-74 0 -129 44q-60 47 -60 118zM199 1221q-38 0 -61 -26.5t-23 -64.5q0 -31 25.5 -54t58.5 -23t55.5 23.5t22.5 57.5q0 32 -23 59.5t-55 27.5z" />
    <glyph glyph-name="ogonek" unicode="&#x2db;" horiz-adv-x="444" 
d="M455 -331q0 -3 -13 -15q-120 -120 -219 -120q-174 0 -174 176q0 149 246 346l40 -37q-150 -150 -150 -260q0 -93 81 -93q35 0 79.5 32.5t47.5 32.5q11 0 36.5 -25.5t25.5 -36.5z" />
    <glyph glyph-name="tilde" unicode="&#x2dc;" horiz-adv-x="557" 
d="M74 969q-17 0 -35.5 16t-18.5 32q0 8 5 19q65 154 157 154q42 0 115.5 -30t114.5 -30q22 0 43 30t39 30q23 0 42 -19t19 -43q0 -45 -54.5 -105t-101.5 -60q-49 0 -127 38.5t-98 38.5q-33 0 -59.5 -35.5t-40.5 -35.5z" />
    <glyph glyph-name="hungarumlaut" unicode="&#x2dd;" horiz-adv-x="819" 
d="M682 1317q28 0 65 -24t37 -50q0 -14 -177 -148q-181 -137 -212 -137q-23 0 -57.5 30t-34.5 52q0 7 14 7q52 27 174 117q131 95 162 132q17 21 29 21zM387 1317q28 0 65 -24t37 -50q0 -14 -177 -148q-181 -137 -212 -137q-23 0 -57.5 30t-34.5 52q0 7 15 7q51 27 174 117
q130 95 161 132q17 21 29 21z" />
    <glyph glyph-name="endash" unicode="&#x2013;" 
d="M109 383q0 10 -2.5 31t-2.5 32q0 29 34 29q9 0 24 -5t22 -5q127 -10 415 -10h104q126 0 232 6q11 1 61 6q38 4 61 4q28 0 49 -48q17 -39 17 -72q0 -52 -41 -52q-7 0 -17 2q-90 22 -222 24q78 -1 -225 -1q-285 0 -395 -15q-9 -1 -26.5 -11t-28.5 -10q-20 0 -41 38
q-18 34 -18 57z" />
    <glyph glyph-name="emdash" unicode="&#x2014;" horiz-adv-x="1843" 
d="M126 383q0 10 -2.5 31t-2.5 32q0 29 34 29q9 0 24 -5t22 -5q127 -10 415 -10h104q126 0 232 6q11 1 61 6q38 4 61 4q28 0 49 -48q17 -39 17 -72q0 -52 -41 -52q-7 0 -17 2q-90 22 -222 24q78 -1 -225 -1q-285 0 -395 -15q-9 -1 -26.5 -11t-28.5 -10q-20 0 -41 38
q-18 34 -18 57z" />
    <glyph glyph-name="quoteleft" unicode="&#x2018;" horiz-adv-x="459" 
d="M173 1460q-29 0 -77.5 -41.5t-48.5 -67.5q0 -3 13 -20q136 -182 215 -346q8 -16 23 -16q22 0 60.5 28.5t38.5 49.5q0 43 -94 194q-100 164 -108 195q-7 24 -22 24z" />
    <glyph glyph-name="quoteright" unicode="&#x2019;" horiz-adv-x="459" 
d="M282 1460q29 0 77.5 -41.5t48.5 -67.5q0 -3 -13 -20q-136 -182 -215 -346q-8 -16 -23 -16q-22 0 -60.5 28.5t-38.5 49.5q0 43 94 194q100 164 108 195q7 24 22 24z" />
    <glyph glyph-name="quotesinglbase" unicode="&#x201a;" horiz-adv-x="459" 
d="M214 272q29 0 77.5 -41.5t48.5 -67.5q0 -3 -13 -20q-136 -182 -215 -346q-8 -16 -23 -16q-22 0 -60.5 28.5t-38.5 49.5q0 43 94 194q100 164 108 195q7 24 22 24z" />
    <glyph glyph-name="quotedblleft" unicode="&#x201c;" horiz-adv-x="696" 
d="M39 1397q0 -8 8 -17q11 -10 12 -14q53 -131 177 -385q19 -33 65 -33q23 0 49 10q32 13 32 32q0 10 -72 165.5t-72 188.5q0 3 7 12.5t7 15.5q0 58 -172 58q-41 0 -41 -33zM537 985q23 0 53 16q34 17 34 39q-1 5 -3 11q-12 21 -34 63q-12 26 -52 131q-60 155 -60 168
q0 6 5 14t5 13q0 38 -127 38q-7 0 -20.5 3t-20.5 3q-33 0 -33 -29q0 1 93 -236q49 -125 115 -213q15 -21 45 -21z" />
    <glyph glyph-name="quotedblright" unicode="&#x201d;" horiz-adv-x="696" 
d="M641 1397q0 -8 -8 -17q-11 -10 -12 -14q-53 -131 -177 -385q-19 -33 -65 -33q-23 0 -49 10q-32 13 -32 32q0 10 72 165.5t72 188.5q0 3 -7 12.5t-7 15.5q0 58 172 58q41 0 41 -33zM143 985q-23 0 -53 16q-34 17 -34 39q1 5 3 11q12 21 34 63q12 26 52 131q60 155 60 168
q0 6 -5 14t-5 13q0 38 127 38q7 0 20.5 3t20.5 3q33 0 33 -29q0 1 -93 -236q-49 -125 -115 -213q-15 -21 -45 -21z" />
    <glyph glyph-name="quotedblbase" unicode="&#x201e;" horiz-adv-x="696" 
d="M615 172q0 -8 -8 -17q-11 -10 -12 -14q-53 -131 -177 -385q-19 -33 -65 -33q-23 0 -49 10q-32 13 -32 32q0 10 72 165.5t72 188.5q0 3 -7 12.5t-7 15.5q0 58 172 58q41 0 41 -33zM117 -240q-23 0 -53 16q-34 17 -34 39q1 5 3 11q12 21 34 63q12 26 52 131q60 155 60 168
q0 6 -5 14t-5 13q0 38 127 38q7 0 20.5 3t20.5 3q33 0 33 -29q0 1 -93 -236q-49 -125 -115 -213q-15 -21 -45 -21z" />
    <glyph glyph-name="dagger" unicode="&#x2020;" horiz-adv-x="827" 
d="M766 901q-10 -9 -69 -11q-42 -1 -113 1q-85 2 -82 2q-3 -102 -3 -244q0 -101 1.5 -304.5t1.5 -305.5q0 -10 7.5 -27t7.5 -26q0 -39 -42 -39q-199 0 -199 47q0 8 6 21t7 20q20 174 27 428l10 430q-36 0 -107 1t-106 1q-26 0 -41 25q-11 16 -11 55q0 22 21 22q22 0 66.5 -2
t66.5 -2q45 0 111 2q0 260 -7 322q0 5 -6 13.5t-6 17.5q0 24 78 24q6 0 18 -4t19 -4h54q40 1 40 -41q0 -54 -7 -163.5t-7 -164.5h239q25 0 25 -57q0 -5 2 -14t3 -13z" />
    <glyph glyph-name="daggerdbl" unicode="&#x2021;" horiz-adv-x="827" 
d="M768 545q-9 -8 -70 -9q-43 -1 -116 0q-84 3 -82 3q4 -234 4 -500q0 -10 7.5 -27t7.5 -26q0 -39 -42 -39q-198 0 -198 47q0 8 5.5 21t6.5 20q18 164 26 504l-173 -1q-47 -1 -64 15t-17 63q0 23 21 23q20 0 60 -1t60 -1h118q0 43 2 129.5t2 126.5q-36 0 -107 1t-106 1
q-26 0 -41 25q-11 16 -11 55q0 22 21 22q22 0 66.5 -2t66.5 -2q90 0 111 2q2 39 2 77q0 156 -9 245q0 5 -6 13.5t-6 17.5q0 24 78 24q6 0 18 -4t19 -4h54q40 1 40 -41q0 -48 -8 -149q-7 -97 -7 -148l1 -31h239q25 0 25 -57q0 -5 2 -14t3 -13l-5 -10q-11 -9 -70 -11
q-42 -1 -113 1q-84 2 -81 2q0 -43 -1 -128t-1 -128h243q25 0 25 -57q0 -5 2 -13.5t3 -12.5z" />
    <glyph glyph-name="bullet" unicode="&#x2022;" 
d="M275.5 1096q150.5 149 359.5 149q207 1 360 -151q150 -149 150 -359q0 -137 -68.5 -255.5t-187 -187t-254.5 -67.5q-211 -1 -360.5 147.5t-149.5 362.5q0 212 150.5 361z" />
    <glyph glyph-name="ellipsis" unicode="&#x2026;" horiz-adv-x="1843" 
d="M170 95q0 139 43 165q15 3 45 10l30 15q13 7 36 7q29 0 43 -13q18 -19 22 -21q12 -3 33 -12q7 -14 21 -39q26 -50 26 -92q0 -44 -69 -95q-12 -11 -24 -23t-28 -12q-10 0 -31 3t-32 3q-26 0 -69 37q-46 38 -46 67zM785 95q0 139 43 165q15 3 45 10l30 15q13 7 36 7
q29 0 43 -13q18 -19 22 -21q12 -3 33 -12q7 -14 21 -39q26 -50 26 -92q0 -44 -69 -95q-12 -11 -24 -23t-28 -12q-10 0 -31 3t-32 3q-26 0 -69 37q-46 38 -46 67zM1403 95q0 139 43 165q15 3 45 10l30 15q13 7 36 7q29 0 43 -13q18 -19 22 -21q12 -3 33 -12q7 -14 21 -39
q26 -50 26 -92q0 -44 -69 -95q-12 -11 -24 -23t-28 -12q-10 0 -31 3t-32 3q-26 0 -69 37q-46 38 -46 67z" />
    <glyph glyph-name="perthousand" unicode="&#x2030;" horiz-adv-x="1806" 
d="M1673 232q0 -98 -40 -173q-49 -91 -139 -91q-21 0 -77 9q-25 3 -74 13q-77 25 -115 73q-63 83 -61 175v8q8 358 213 358q-20 0 65 -14q19 -2 54 -8q174 -60 174 -350zM1552 268q0 79 -24 142q-33 86 -99 86q-61 0 -93 -86q-24 -63 -24 -136q0 -223 117 -223
q123 0 123 217zM1015 1458q0 -6 -11 -20q-14 -18 -16 -21q-57 -117 -173 -350q-89 -176 -312 -600q-84 -165 -260 -481q-20 -33 -60 -33q-17 0 -43.5 28.5t-26.5 45.5q0 13 13 28q20 24 21 25.5t157 289.5q180 332 326 607l134 248q76 145 116 256q1 11 12 30q15 12 35 12
q30 0 57 -17q31 -20 31 -48zM584 1153q0 -98 -40 -173q-49 -91 -139 -91q-21 0 -77 9q-25 3 -74 13q-77 25 -115 73q-63 83 -61 175v8q8 358 213 358q-20 0 65 -14q19 -2 54 -8q174 -60 174 -350zM463 1189q0 79 -24 142q-33 86 -99 86q-61 0 -93 -86q-24 -63 -24 -136
q0 -223 117 -223q123 0 123 217zM1075 232q0 -98 -40 -173q-49 -91 -139 -91q-21 0 -77 9q-25 3 -74 13q-77 25 -115 73q-63 83 -61 175v8q8 358 213 358q-20 0 65 -14q19 -2 54 -8q174 -60 174 -350zM954 268q0 79 -24 142q-33 86 -99 86q-61 0 -93 -86q-24 -63 -24 -136
q0 -223 117 -223q123 0 123 217z" />
    <glyph glyph-name="guilsinglleft" unicode="&#x2039;" horiz-adv-x="459" 
d="M74 463q0 4 10 12q64 56 128 111q109 94 116 94q20 0 34 -34q11 -27 11 -51t-13 -34q-137 -108 -137 -119q0 -4 154 -163q10 -4 10 -11q0 -9 -31 -35t-41 -26q-25 0 -133 115t-108 141z" />
    <glyph glyph-name="guilsinglright" unicode="&#x203a;" horiz-adv-x="459" 
d="M376 432q0 -4 -10 -12q-64 -56 -128 -111q-109 -94 -116 -94q-20 0 -34 34q-11 27 -11 51t13 34q137 108 137 119q0 4 -154 163q-10 4 -10 11q0 9 31 35t41 26q25 0 133 -115t108 -141z" />
    <glyph glyph-name="trademark" unicode="&#x2122;" horiz-adv-x="1253" 
d="M483 1388v-89h-152v-518h-89v518h-152v89h393zM551 1388h163l111 -479v0l107 479h163v-607h-89v547h-7l-122 -547h-108l-122 547h-7v-547h-89v607z" />
    <glyph glyph-name="minus" unicode="&#x2212;" 
d="M678 -20h-135v385h-385v129h385v385h135v-385h383v-129h-383v-385z" />
    <glyph glyph-name="shade" unicode="&#x2592;" horiz-adv-x="2039" 
d="M677 -179v-331h-332v331h332zM1358 -179v-331h-331v331h331zM2039 -179v-331h-331v331h331zM1022 166v-340h-340v340h340zM1703 166v-340h-340v340h340zM340 166v-340h-340v340h340zM1358 503v-331h-331v331h331zM677 503v-331h-332v331h332zM2039 503v-331h-331v331h331
zM340 848v-340h-340v340h340zM1703 848v-340h-340v340h340zM1022 848v-340h-340v340h340zM1358 1183v-330h-331v330h331zM2039 1183v-330h-331v330h331zM677 1183v-330h-332v330h332zM1022 1529v-340h-340v340h340zM1703 1529v-340h-340v340h340zM340 1529v-340h-340v340
h340z" />
    <glyph glyph-name="hacek" unicode="&#xf004;" horiz-adv-x="459" 
d="M282 1460q29 0 77.5 -41.5t48.5 -67.5q0 -3 -13 -20q-136 -182 -215 -346q-8 -16 -23 -16q-22 0 -60.5 28.5t-38.5 49.5q0 43 94 194q100 164 108 195q7 24 22 24z" />
    <glyph glyph-name="percentpermilslash" horiz-adv-x="1024" 
d="M128 0v1638h768v-1638h-768zM256 128h512v1382h-512v-1382z" />
    <glyph glyph-name="inferior0" 
d="M592 232q0 -98 -40 -173q-49 -91 -139 -91q-21 0 -77 9q-25 3 -74 13q-77 25 -115 73q-63 83 -61 175v8q8 358 213 358q-20 0 65 -14q19 -2 54 -8q174 -60 174 -350zM471 268q0 79 -24 142q-33 86 -99 86q-61 0 -93 -86q-24 -63 -24 -136q0 -223 117 -223q123 0 123 217z
" />
    <glyph glyph-name="dotlessj" horiz-adv-x="424" 
d="M118 597q0 170 -7 214q-1 5 -8 13.5t-7 15.5q0 13 24 24q20 9 36 9q142 0 163 -21q13 -12 13 -31q0 -8 -7.5 -21t-9.5 -18q-9 -33 -14 -168q-15 -409 -15 -598q0 -199 7 -303q4 -53 4 -39q0 -45 -67 -45q-8 0 -24.5 5.5t-25.5 5.5t-26.5 -5.5t-26.5 -5.5q-33 0 -33 45
q0 13 4 37.5t4 36.5q16 476 16 849z" />
    <glyph glyph-name="inferior4" horiz-adv-x="1659" 
d="M1618 145l-258 -12q1 -19 6 -77q4 -48 4 -76q0 -23 -47 -23q-10 0 -31.5 1t-31.5 1q-23 0 -23 27q2 93 2 141q-204 -14 -250 -14q-4 0 -54 19l-64 24l-7 12q1 7 9 20q102 186 239 465q33 69 101 205q10 19 47 19q139 0 139 -39q0 -3 -6.5 -6t-7.5 -7q-33 -107 -33 -512
q0 -56 4 -118h39q164 1 203 -15q15 -6 20 -35zM1254 709l-265 -519l256 5z" />
    <glyph glyph-name="pcfractionbar" horiz-adv-x="1659" 
d="M1300 1458q0 -6 -11 -20q-14 -18 -16 -21q-57 -117 -173 -350q-89 -176 -312 -600q-84 -165 -260 -481q-20 -33 -60 -33q-17 0 -43.5 28.5t-26.5 45.5q0 13 13 28q20 24 21 25.5t157 289.5q180 332 326 607l134 248q76 145 116 256q1 11 12 30q15 12 35 12q30 0 57 -17
q31 -20 31 -48z" />
  </font>
</defs>
</svg>
